<svg width="271" height="106" viewBox="0 0 271 106" fill="none" xmlns="http://www.w3.org/2000/svg">
<path d="M119.44 58.319L121.32 57.159C122.013 57.799 122.707 58.5057 123.4 59.279C124.12 60.0524 124.787 60.8124 125.4 61.559C126.04 62.3057 126.547 62.9724 126.92 63.559L124.96 64.919C124.587 64.3324 124.093 63.6524 123.48 62.879C122.893 62.1057 122.24 61.319 121.52 60.519C120.827 59.719 120.133 58.9857 119.44 58.319ZM112.48 30.719H125.96V55.719H123.52V33.039H114.84V55.839H112.48V30.719ZM134.68 28.919H137.16V61.719C137.16 62.5457 137.04 63.1724 136.8 63.599C136.587 64.0257 136.24 64.3457 135.76 64.559C135.227 64.7724 134.52 64.9057 133.64 64.959C132.76 65.039 131.613 65.0657 130.2 65.039C130.147 64.719 130.027 64.3057 129.84 63.799C129.68 63.319 129.507 62.8924 129.32 62.519C130.387 62.5457 131.333 62.559 132.16 62.559C133.013 62.559 133.587 62.5457 133.88 62.519C134.413 62.519 134.68 62.2524 134.68 61.719V28.919ZM129.2 31.999H131.6V55.959H129.2V31.999ZM117.84 35.879H120.16V50.079C120.16 51.4124 120.053 52.7724 119.84 54.159C119.653 55.5457 119.267 56.9057 118.68 58.239C118.12 59.5724 117.28 60.8257 116.16 61.999C115.067 63.1724 113.627 64.2124 111.84 65.119C111.76 64.959 111.627 64.759 111.44 64.519C111.253 64.279 111.067 64.039 110.88 63.799C110.693 63.559 110.52 63.3857 110.36 63.279C112.013 62.4257 113.333 61.4924 114.32 60.479C115.333 59.439 116.093 58.3457 116.6 57.199C117.107 56.0524 117.44 54.879 117.6 53.679C117.76 52.4524 117.84 51.239 117.84 50.039V35.879ZM103.24 30.959L105.04 28.839C105.76 29.2124 106.533 29.6524 107.36 30.159C108.187 30.639 108.973 31.1324 109.72 31.639C110.467 32.119 111.08 32.559 111.56 32.959L109.72 35.399C109.267 34.9724 108.667 34.4924 107.92 33.959C107.2 33.4257 106.427 32.9057 105.6 32.399C104.773 31.8657 103.987 31.3857 103.24 30.959ZM101.52 41.759L103.24 39.599C103.987 39.9724 104.76 40.399 105.56 40.879C106.387 41.359 107.187 41.839 107.96 42.319C108.733 42.7724 109.373 43.199 109.88 43.599L108.08 45.999C107.627 45.599 107.013 45.1457 106.24 44.639C105.493 44.1324 104.707 43.6257 103.88 43.119C103.053 42.6124 102.267 42.159 101.52 41.759ZM102.32 63.079C102.88 62.039 103.467 60.8124 104.08 59.399C104.72 57.9857 105.36 56.4924 106 54.919C106.64 53.319 107.227 51.7857 107.76 50.319L110.16 51.879C109.68 53.2657 109.147 54.719 108.56 56.239C108 57.7324 107.413 59.2124 106.8 60.679C106.187 62.119 105.6 63.4524 105.04 64.679L102.32 63.079ZM144.8 30.999L146.8 29.159C147.493 29.719 148.213 30.3457 148.96 31.039C149.707 31.7324 150.413 32.4124 151.08 33.079C151.747 33.7457 152.28 34.3457 152.68 34.879L150.6 36.959C150.2 36.399 149.667 35.7724 149 35.079C148.36 34.3857 147.667 33.679 146.92 32.959C146.2 32.239 145.493 31.5857 144.8 30.999ZM147.16 64.159L146.68 61.479L147.6 60.239L154.84 55.559C154.947 55.959 155.067 56.4124 155.2 56.919C155.36 57.399 155.52 57.799 155.68 58.119C153.947 59.2657 152.56 60.199 151.52 60.919C150.48 61.639 149.667 62.199 149.08 62.599C148.493 62.999 148.067 63.319 147.8 63.559C147.533 63.799 147.32 63.999 147.16 64.159ZM142 40.959H149.12V43.839H142V40.959ZM153.84 36.719H178.36V39.599H153.84V36.719ZM155.12 45.439H165.84V48.239H155.12V45.439ZM159.32 46.999H162.08V59.199L159.32 59.519V46.999ZM154.4 59.559C155.947 59.159 157.813 58.6657 160 58.079C162.213 57.4657 164.467 56.839 166.76 56.199L167.16 58.879C165.053 59.4924 162.96 60.1057 160.88 60.719C158.8 61.3324 156.92 61.8924 155.24 62.399L154.4 59.559ZM171.08 30.159L173.16 28.879C173.987 29.7324 174.827 30.679 175.68 31.719C176.533 32.759 177.173 33.679 177.6 34.479L175.4 35.959C175 35.159 174.387 34.2124 173.56 33.119C172.733 32.0257 171.907 31.039 171.08 30.159ZM166.84 28.599H169.88C169.88 32.119 169.96 35.4924 170.12 38.719C170.28 41.919 170.493 44.879 170.76 47.599C171.027 50.2924 171.347 52.6524 171.72 54.679C172.12 56.7057 172.573 58.279 173.08 59.399C173.613 60.519 174.2 61.1057 174.84 61.159C175.187 61.159 175.48 60.6257 175.72 59.559C175.96 58.4657 176.147 56.9457 176.28 54.999C176.467 55.1857 176.707 55.399 177 55.639C177.32 55.8524 177.627 56.0524 177.92 56.239C178.24 56.399 178.493 56.5324 178.68 56.639C178.467 58.319 178.213 59.719 177.92 60.839C177.653 61.9324 177.347 62.7857 177 63.399C176.653 64.0124 176.28 64.439 175.88 64.679C175.507 64.9457 175.133 65.079 174.76 65.079C173.56 65.0257 172.52 64.399 171.64 63.199C170.787 62.0257 170.067 60.359 169.48 58.199C168.893 56.0124 168.413 53.4257 168.04 50.439C167.693 47.4257 167.427 44.079 167.24 40.399C167.053 36.719 166.92 32.7857 166.84 28.599ZM147.16 64.159C147.053 63.919 146.907 63.6257 146.72 63.279C146.56 62.959 146.387 62.639 146.2 62.319C146.013 61.999 145.827 61.7457 145.64 61.559C146.013 61.319 146.427 60.919 146.88 60.359C147.333 59.799 147.56 59.0924 147.56 58.239V40.959H150.4V60.839C150.4 60.839 150.28 60.919 150.04 61.079C149.827 61.239 149.56 61.4524 149.24 61.719C148.92 61.959 148.6 62.2257 148.28 62.519C147.96 62.8124 147.693 63.0924 147.48 63.359C147.267 63.6524 147.16 63.919 147.16 64.159ZM182.52 54.639C182.493 54.4257 182.413 54.1457 182.28 53.799C182.147 53.4257 182.013 53.0524 181.88 52.679C181.773 52.3057 181.653 51.9857 181.52 51.719C181.973 51.639 182.453 51.3724 182.96 50.919C183.467 50.439 184.04 49.839 184.68 49.119C185.027 48.7724 185.533 48.1857 186.2 47.359C186.893 46.5324 187.653 45.559 188.48 44.439C189.307 43.319 190.147 42.1057 191 40.799C191.853 39.4924 192.64 38.1724 193.36 36.839L196.12 38.519C194.413 41.1857 192.573 43.7857 190.6 46.319C188.627 48.8524 186.64 51.079 184.64 52.999V53.079C184.64 53.079 184.533 53.1324 184.32 53.239C184.107 53.319 183.853 53.439 183.56 53.599C183.293 53.759 183.053 53.9324 182.84 54.119C182.627 54.3057 182.52 54.479 182.52 54.639ZM182.52 54.639L182.4 52.119L183.96 51.079L195.92 49.119C195.893 49.519 195.893 49.9857 195.92 50.519C195.973 51.0257 196.027 51.439 196.08 51.759C193.28 52.2657 191.027 52.679 189.32 52.999C187.64 53.319 186.347 53.5724 185.44 53.759C184.56 53.9457 183.907 54.1057 183.48 54.239C183.08 54.3724 182.76 54.5057 182.52 54.639ZM182.24 44.919C182.187 44.7057 182.093 44.4124 181.96 44.039C181.853 43.6657 181.733 43.2924 181.6 42.919C181.467 42.519 181.333 42.1857 181.2 41.919C181.573 41.839 181.947 41.5857 182.32 41.159C182.693 40.7324 183.08 40.199 183.48 39.559C183.72 39.239 184.053 38.719 184.48 37.999C184.907 37.2524 185.387 36.3724 185.92 35.359C186.453 34.3457 186.973 33.2657 187.48 32.119C188.013 30.9724 188.48 29.8124 188.88 28.639L191.96 29.919C191.267 31.519 190.493 33.119 189.64 34.719C188.813 36.2924 187.947 37.8124 187.04 39.279C186.133 40.719 185.213 42.0257 184.28 43.199V43.279C184.28 43.279 184.173 43.3324 183.96 43.439C183.773 43.5457 183.533 43.6924 183.24 43.879C182.973 44.039 182.733 44.2124 182.52 44.399C182.333 44.5857 182.24 44.759 182.24 44.919ZM182.24 44.919L182.2 42.679L183.72 41.719L192.16 40.999C192.08 41.3724 192.013 41.799 191.96 42.279C191.907 42.759 191.88 43.159 191.88 43.479C189.987 43.6924 188.44 43.879 187.24 44.039C186.04 44.1724 185.107 44.2924 184.44 44.399C183.8 44.5057 183.32 44.599 183 44.679C182.68 44.759 182.427 44.839 182.24 44.919ZM181.4 59.879C182.653 59.6657 184.067 59.4124 185.64 59.119C187.24 58.799 188.92 58.4657 190.68 58.119C192.467 57.7457 194.24 57.3857 196 57.039L196.24 59.799C193.733 60.3857 191.213 60.9457 188.68 61.479C186.173 62.0124 183.92 62.5057 181.92 62.959L181.4 59.879ZM196.32 33.759H217.72V36.639H196.32V33.759ZM197.32 42.879H217.04V45.759H197.32V42.879ZM200 60.719H214.48V63.439H200V60.719ZM205.56 28.359H208.64V44.359H205.56V28.359ZM198.36 49.839H216.04V64.999H213.04V52.559H201.28V65.159H198.36V49.839ZM222.48 49.639H257.56V52.399H222.48V49.639ZM238.44 31.319H241.6V65.199H238.44V31.319ZM237.36 50.799L239.88 51.919C238.627 53.599 237.107 55.2124 235.32 56.759C233.533 58.3057 231.613 59.6924 229.56 60.919C227.533 62.119 225.52 63.1057 223.52 63.879C223.36 63.639 223.16 63.359 222.92 63.039C222.68 62.719 222.427 62.4124 222.16 62.119C221.92 61.8524 221.68 61.6124 221.44 61.399C222.933 60.919 224.44 60.3057 225.96 59.559C227.48 58.8124 228.947 57.9724 230.36 57.039C231.8 56.1057 233.107 55.1057 234.28 54.039C235.48 52.9724 236.507 51.8924 237.36 50.799ZM242.48 50.679C243.36 51.7724 244.413 52.839 245.64 53.879C246.893 54.919 248.24 55.9057 249.68 56.839C251.12 57.7457 252.6 58.5724 254.12 59.319C255.667 60.0657 257.16 60.679 258.6 61.159C258.387 61.3457 258.147 61.599 257.88 61.919C257.613 62.2124 257.36 62.519 257.12 62.839C256.907 63.159 256.72 63.439 256.56 63.679C255.093 63.0924 253.587 62.3857 252.04 61.559C250.52 60.7057 249.027 59.759 247.56 58.719C246.12 57.679 244.76 56.5724 243.48 55.399C242.2 54.199 241.08 52.9857 240.12 51.759L242.48 50.679ZM229.44 39.479V43.639H250.68V39.479H229.44ZM229.44 32.919V36.999H250.68V32.919H229.44ZM226.36 30.319H253.92V46.239H226.36V30.319Z" fill="#696969"/>
<path d="M78.1793 63.7408H7.40844V0.80897C7.40844 0.594417 7.32151 0.388653 7.16677 0.236942C7.01204 0.0852307 6.80217 0 6.58333 0H0.820722C0.602651 0.00113726 0.393906 0.0868695 0.240116 0.238458C0.0863253 0.390046 -3.08488e-06 0.595161 0 0.80897V70.1953C0 70.6385 0.368667 71 0.825111 71H78.1793C78.3974 70.9989 78.6061 70.9131 78.7599 70.7615C78.9137 70.61 79 70.4048 79 70.191V64.5455C79 64.3309 78.9131 64.1251 78.7583 63.9734C78.6036 63.8217 78.3937 63.7365 78.1749 63.7365L78.1793 63.7408ZM16.4583 55.6726H22.2209C22.439 55.6715 22.6478 55.5857 22.8016 55.4342C22.9553 55.2826 23.0417 55.0774 23.0417 54.8636V40.3409C23.0417 40.1264 22.9547 39.9206 22.8 39.7689C22.6453 39.6172 22.4354 39.5319 22.2166 39.5319H16.4583C16.2395 39.5319 16.0296 39.6172 15.8749 39.7689C15.7202 39.9206 15.6332 40.1264 15.6332 40.3409V54.8636C15.6332 55.3069 16.0063 55.6726 16.4583 55.6726ZM32.0959 55.6726H37.8542C38.073 55.6726 38.2829 55.5874 38.4376 55.4357C38.5923 55.284 38.6793 55.0782 38.6793 54.8636V22.5909C38.6793 22.3764 38.5923 22.1706 38.4376 22.0189C38.2829 21.8672 38.073 21.7819 37.8542 21.7819H32.0916C31.8735 21.7831 31.6647 21.8688 31.511 22.0204C31.3572 22.172 31.2708 22.3771 31.2708 22.5909V54.8636C31.2708 55.3069 31.6395 55.6726 32.0959 55.6726ZM47.7292 55.6726H53.4918C53.7099 55.6715 53.9186 55.5857 54.0724 55.4342C54.2262 55.2826 54.3125 55.0774 54.3125 54.8636V30.4568C54.3113 30.243 54.2239 30.0384 54.0693 29.8876C53.9147 29.7368 53.7055 29.6522 53.4874 29.6522H47.7292C47.5111 29.6522 47.3019 29.7368 47.1473 29.8876C46.9927 30.0384 46.9052 30.243 46.9041 30.4568V54.8636C46.9041 55.3069 47.2771 55.6726 47.7292 55.6726ZM63.3668 55.6726H69.125C69.3438 55.6726 69.5537 55.5874 69.7084 55.4357C69.8632 55.284 69.9501 55.0782 69.9501 54.8636V14.5227C69.9501 14.4165 69.9288 14.3113 69.8873 14.2131C69.8458 14.115 69.7851 14.0258 69.7084 13.9507C69.6318 13.8756 69.5409 13.816 69.4408 13.7753C69.3407 13.7347 69.2334 13.7138 69.125 13.7138H63.3624C63.1443 13.7149 62.9356 13.8006 62.7818 13.9522C62.628 14.1038 62.5417 14.3089 62.5417 14.5227V54.8636C62.5417 55.3069 62.9103 55.6726 63.3668 55.6726Z" fill="#696969"/>
</svg>
