<svg width="216" height="216" viewBox="0 0 216 216" fill="none" xmlns="http://www.w3.org/2000/svg">
<path d="M60.4932 156.198C97.2849 146.503 134.45 146.611 170.054 161.583C190.47 169.651 205.154 185.677 209.53 204.67C211.467 211.887 209.656 215.441 199.036 215.98C168.679 215.549 138.26 215.98 107.903 215.98C77.5456 215.98 47.1894 215.335 16.832 215.98C6.02608 216.196 3.65236 212.856 5.58978 204.67C11.8978 178.118 32.9481 163.307 60.4943 156.198H60.4932ZM64.4286 64.6387C93.7686 57.5434 124.852 57.8425 154 65.5005C166.805 68.8397 166.931 77.1336 166.931 86.1814C167.084 100.067 160.732 113.418 149.317 123.213C137.898 133.006 122.383 138.413 106.279 138.209C74.985 138.155 47.8762 114.404 46.9399 86.1814C46.5025 73.5245 50.1257 67.9239 64.4286 64.6387ZM77.8588 4.04821C97.1445 -1.439 117.981 -1.34504 137.199 4.3182C159.685 10.7806 182.983 14.8736 209.093 20.6902C187.98 24.7292 187.544 24.7292 187.98 40.0796C188.293 51.7128 189.604 63.346 190.291 74.9792C190.604 79.6121 189.542 84.5658 182.859 84.4049C176.175 84.2429 176.55 79.611 176.175 75.41C175.176 61.9993 180.548 48.8585 178.736 35.3937C178.298 32.3774 180.422 27.6386 173.489 28.6073C168.554 29.2542 162.809 28.4993 162.309 35.5017C161.809 42.503 165.306 53.0595 160.06 55.6449C154.813 58.2292 144.569 52.6826 136.387 51.4979C108.4 47.1975 79.6018 49.163 52.7489 57.2065C52.061 56.2367 51.3741 55.6978 51.3741 55.16C50.6873 31.0847 50.6873 31.0847 23.0795 24.5143L6.15027 20.5833L42.1914 12.2893C54.06 9.43391 66.177 7.27942 77.8577 4.04821H77.8588Z" fill="#48BAEF"/>
</svg>
