<svg width="288" height="288" viewBox="0 0 288 288" fill="none" xmlns="http://www.w3.org/2000/svg">
<path d="M71.8313 72.3094C71.8313 79.4266 73.2331 86.4741 75.9568 93.0496C78.6804 99.6251 82.6726 105.6 87.7052 110.632C92.7378 115.665 98.7125 119.657 105.288 122.381C111.863 125.104 118.911 126.506 126.028 126.506C133.145 126.506 140.193 125.104 146.768 122.381C153.344 119.657 159.319 115.665 164.351 110.632C169.384 105.6 173.376 99.6251 176.1 93.0496C178.823 86.4741 180.225 79.4266 180.225 72.3094C180.225 65.1921 178.823 58.1446 176.1 51.5691C173.376 44.9937 169.384 39.019 164.351 33.9864C159.319 28.9537 153.344 24.9616 146.768 22.238C140.193 19.5143 133.145 18.1125 126.028 18.1125C118.911 18.1125 111.863 19.5143 105.288 22.238C98.7125 24.9616 92.7378 28.9537 87.7052 33.9864C82.6726 39.019 78.6804 44.9937 75.9568 51.5691C73.2331 58.1446 71.8313 65.1921 71.8313 72.3094Z" fill="#48BAEF"/>
<path d="M197.747 153.591C179.578 137.391 155.869 127.266 129.825 126.394C128.616 126.338 127.406 126.338 126.197 126.338C124.903 126.338 123.609 126.366 122.344 126.422H122.316C95.625 127.378 71.4094 138.038 53.1281 154.997C34.8188 171.956 22.4156 195.216 19.3781 221.316C18.5906 228.038 23.8219 233.916 30.6 233.916H153.563C151.959 228.263 151.116 222.3 151.116 216.169C151.088 186.581 170.775 161.606 197.747 153.591ZM125.775 226.856L112.556 213.638L121.134 150.216L113.709 142.791C112.219 141.3 112.219 138.853 113.709 137.363L117.281 133.791C118.238 132.834 119.559 132.3 120.909 132.3H130.697C132.047 132.3 133.369 132.834 134.325 133.791L137.897 137.363C139.388 138.853 139.388 141.272 137.897 142.791L130.472 150.216L139.05 213.638L125.775 226.856ZM228.684 215.634C228.684 222.469 223.144 228.009 216.309 228.009C209.475 228.009 203.934 222.469 203.934 215.634C203.934 208.8 209.475 203.259 216.309 203.259C223.144 203.259 228.684 208.8 228.684 215.634Z" fill="#48BAEF"/>
<path d="M216.337 162.45C186.666 162.45 162.619 186.497 162.619 216.169C162.619 245.841 186.666 269.887 216.337 269.887C246.009 269.887 270.056 245.841 270.056 216.169C270.056 186.497 246.009 162.45 216.337 162.45ZM248.541 228.909L243.675 237.319C243.028 238.444 241.566 238.837 240.441 238.191L235.631 235.406C234.787 234.928 233.747 234.984 232.987 235.603C230.653 237.431 228.009 238.894 225.169 239.878C224.212 240.216 223.594 241.116 223.594 242.128V247.95C223.594 249.272 222.525 250.312 221.231 250.312H211.5C210.206 250.312 209.137 249.244 209.137 247.95V242.184C209.137 241.172 208.491 240.272 207.534 239.934C204.637 238.95 201.966 237.487 199.603 235.659C198.844 235.069 197.803 234.984 196.959 235.462L192.234 238.191C191.109 238.837 189.647 238.472 189 237.319L184.162 228.937C183.516 227.812 183.909 226.35 185.034 225.703L188.831 223.509C189.759 222.975 190.237 221.906 189.956 220.866C189.422 218.756 189.141 216.562 189.141 214.284C189.141 212.991 189.225 211.725 189.394 210.487C189.534 209.531 189.084 208.575 188.241 208.097L184.978 206.212C183.853 205.566 183.459 204.103 184.106 202.978L188.972 194.569C189.619 193.444 191.081 193.05 192.206 193.697L194.653 195.103C195.553 195.637 196.706 195.497 197.466 194.766C200.278 192.037 203.709 189.956 207.506 188.634C208.462 188.297 209.109 187.397 209.109 186.384V183.937C209.109 182.616 210.178 181.575 211.472 181.575H221.175C222.497 181.575 223.537 182.644 223.537 183.937V186.441C223.537 187.453 224.156 188.353 225.112 188.691C228.881 189.984 232.256 192.094 235.041 194.794C235.8 195.525 236.953 195.666 237.853 195.131L240.412 193.641C241.537 192.994 243 193.387 243.647 194.512L248.512 202.922C249.159 204.047 248.766 205.509 247.641 206.156L244.209 208.125C243.366 208.603 242.916 209.559 243.056 210.516C243.225 211.753 243.309 212.991 243.309 214.256C243.309 216.478 243.028 218.644 242.522 220.725C242.269 221.737 242.747 222.806 243.647 223.312L247.641 225.619C248.822 226.322 249.187 227.784 248.541 228.909Z" fill="#48BAEF"/>
</svg>
