<svg width="442" height="31" viewBox="0 0 442 31" fill="none" xmlns="http://www.w3.org/2000/svg">
<path d="M9.61364 30H0.196023V0.90909H9.91193C12.7623 0.90909 15.2102 1.49148 17.2557 2.65625C19.3011 3.81155 20.8684 5.47348 21.9574 7.64205C23.0559 9.80114 23.6051 12.3911 23.6051 15.4119C23.6051 18.4422 23.0511 21.0464 21.9432 23.2244C20.8447 25.4025 19.2538 27.0786 17.1705 28.2528C15.0871 29.4176 12.5682 30 9.61364 30ZM4.58523 26.1648H9.37216C11.5881 26.1648 13.4299 25.7481 14.8977 24.9148C16.3655 24.072 17.464 22.8551 18.1932 21.2642C18.9223 19.6638 19.2869 17.7131 19.2869 15.4119C19.2869 13.1297 18.9223 11.1932 18.1932 9.60227C17.4735 8.01136 16.3987 6.80398 14.9688 5.98011C13.5388 5.15625 11.7633 4.74432 9.64205 4.74432H4.58523V26.1648ZM37.9126 30.4403C35.8672 30.4403 34.0821 29.9716 32.5575 29.0341C31.0329 28.0966 29.8492 26.785 29.0064 25.0994C28.1636 23.4138 27.7422 21.4441 27.7422 19.1903C27.7422 16.9271 28.1636 14.9479 29.0064 13.2528C29.8492 11.5578 31.0329 10.2415 32.5575 9.30398C34.0821 8.36648 35.8672 7.89773 37.9126 7.89773C39.9581 7.89773 41.7431 8.36648 43.2678 9.30398C44.7924 10.2415 45.9761 11.5578 46.8189 13.2528C47.6617 14.9479 48.0831 16.9271 48.0831 19.1903C48.0831 21.4441 47.6617 23.4138 46.8189 25.0994C45.9761 26.785 44.7924 28.0966 43.2678 29.0341C41.7431 29.9716 39.9581 30.4403 37.9126 30.4403ZM37.9268 26.875C39.2526 26.875 40.3511 26.5246 41.2223 25.8239C42.0935 25.1231 42.7375 24.1903 43.1541 23.0256C43.5803 21.8608 43.7933 20.5777 43.7933 19.1761C43.7933 17.7841 43.5803 16.5057 43.1541 15.3409C42.7375 14.1667 42.0935 13.2244 41.2223 12.5142C40.3511 11.804 39.2526 11.4489 37.9268 11.4489C36.5916 11.4489 35.4837 11.804 34.603 12.5142C33.7318 13.2244 33.0831 14.1667 32.657 15.3409C32.2403 16.5057 32.032 17.7841 32.032 19.1761C32.032 20.5777 32.2403 21.8608 32.657 23.0256C33.0831 24.1903 33.7318 25.1231 34.603 25.8239C35.4837 26.5246 36.5916 26.875 37.9268 26.875ZM57.071 17.0455V30H52.8239V8.18182H56.9006V11.733H57.1705C57.6723 10.5777 58.4583 9.64962 59.5284 8.94886C60.608 8.24811 61.9669 7.89773 63.6051 7.89773C65.0919 7.89773 66.3939 8.21023 67.5114 8.83523C68.6288 9.45076 69.4953 10.3693 70.1108 11.5909C70.7263 12.8125 71.0341 14.3229 71.0341 16.1222V30H66.7869V16.6335C66.7869 15.0521 66.375 13.8163 65.5511 12.9261C64.7273 12.0265 63.5956 11.5767 62.1562 11.5767C61.1714 11.5767 60.2955 11.7898 59.5284 12.2159C58.7708 12.642 58.1695 13.267 57.7244 14.0909C57.2888 14.9053 57.071 15.8902 57.071 17.0455ZM79.9545 0.90909V11.2642H76.4318V0.90909H79.9545ZM95.6257 8.18182V11.5909H83.7081V8.18182H95.6257ZM86.9041 2.95455H91.1513V23.5938C91.1513 24.4176 91.2744 25.0379 91.5206 25.4545C91.7668 25.8617 92.084 26.1411 92.4723 26.2926C92.87 26.4347 93.3009 26.5057 93.7649 26.5057C94.1058 26.5057 94.4041 26.482 94.6598 26.4347C94.9155 26.3873 95.1143 26.3494 95.2564 26.321L96.0234 29.8295C95.7772 29.9242 95.4268 30.0189 94.9723 30.1136C94.5178 30.2178 93.9496 30.2746 93.2678 30.2841C92.1503 30.303 91.1087 30.1042 90.1428 29.6875C89.1768 29.2708 88.3956 28.6269 87.799 27.7557C87.2024 26.8845 86.9041 25.7907 86.9041 24.4744V2.95455ZM115.157 17.0455V30H110.91V0.90909H115.1V11.733H115.37C115.881 10.5587 116.663 9.62595 117.714 8.93466C118.765 8.24337 120.138 7.89773 121.833 7.89773C123.329 7.89773 124.636 8.20549 125.754 8.82102C126.88 9.43655 127.752 10.3551 128.367 11.5767C128.992 12.7888 129.305 14.304 129.305 16.1222V30H125.058V16.6335C125.058 15.0331 124.646 13.7926 123.822 12.9119C122.998 12.0218 121.852 11.5767 120.384 11.5767C119.38 11.5767 118.481 11.7898 117.685 12.2159C116.899 12.642 116.279 13.267 115.825 14.0909C115.379 14.9053 115.157 15.8902 115.157 17.0455ZM141.322 30.483C139.939 30.483 138.689 30.2273 137.572 29.7159C136.454 29.1951 135.569 28.4422 134.915 27.4574C134.272 26.4725 133.95 25.2652 133.95 23.8352C133.95 22.6042 134.186 21.5909 134.66 20.7955C135.133 20 135.772 19.3703 136.577 18.9062C137.382 18.4422 138.282 18.0919 139.276 17.8551C140.271 17.6184 141.284 17.4384 142.316 17.3153C143.623 17.1638 144.683 17.0407 145.498 16.946C146.312 16.8419 146.904 16.6761 147.273 16.4489C147.643 16.2216 147.827 15.8523 147.827 15.3409V15.2415C147.827 14.0009 147.477 13.0398 146.776 12.358C146.085 11.6761 145.053 11.3352 143.68 11.3352C142.25 11.3352 141.123 11.6525 140.299 12.2869C139.485 12.9119 138.921 13.608 138.609 14.375L134.617 13.4659C135.091 12.1402 135.782 11.0701 136.691 10.2557C137.61 9.43182 138.665 8.83523 139.859 8.46591C141.052 8.08712 142.307 7.89773 143.623 7.89773C144.494 7.89773 145.417 8.00189 146.393 8.21023C147.378 8.40909 148.296 8.77841 149.148 9.31818C150.01 9.85795 150.716 10.6297 151.265 11.6335C151.814 12.6278 152.089 13.9205 152.089 15.5114V30H147.941V27.017H147.771C147.496 27.5663 147.084 28.1061 146.535 28.6364C145.986 29.1667 145.28 29.607 144.418 29.9574C143.557 30.3078 142.524 30.483 141.322 30.483ZM142.245 27.0739C143.419 27.0739 144.423 26.8419 145.256 26.3778C146.099 25.9138 146.738 25.3078 147.174 24.5597C147.619 23.8021 147.842 22.9924 147.842 22.1307V19.3182C147.69 19.4697 147.397 19.6117 146.961 19.7443C146.535 19.8674 146.047 19.9763 145.498 20.071C144.949 20.1562 144.414 20.2367 143.893 20.3125C143.372 20.3788 142.936 20.4356 142.586 20.483C141.762 20.5871 141.009 20.7623 140.327 21.0085C139.655 21.2547 139.115 21.6098 138.708 22.0739C138.31 22.5284 138.112 23.1345 138.112 23.892C138.112 24.9432 138.5 25.7386 139.276 26.2784C140.053 26.8087 141.042 27.0739 142.245 27.0739ZM175.629 8.18182L167.717 30H163.172L155.246 8.18182H159.805L165.331 24.9716H165.558L171.07 8.18182H175.629ZM188.282 30.4403C186.132 30.4403 184.281 29.9811 182.728 29.0625C181.184 28.1345 179.991 26.8324 179.148 25.1562C178.315 23.4706 177.898 21.4962 177.898 19.233C177.898 16.9981 178.315 15.0284 179.148 13.3239C179.991 11.6193 181.165 10.2888 182.671 9.33239C184.186 8.37595 185.957 7.89773 187.984 7.89773C189.215 7.89773 190.408 8.10133 191.563 8.50852C192.719 8.91572 193.755 9.55492 194.674 10.4261C195.593 11.2973 196.317 12.429 196.847 13.821C197.378 15.2036 197.643 16.8845 197.643 18.8636V20.3693H180.299V17.1875H193.481C193.481 16.0701 193.254 15.0805 192.799 14.2188C192.344 13.3475 191.705 12.661 190.881 12.1591C190.067 11.6572 189.111 11.4062 188.012 11.4062C186.819 11.4062 185.777 11.6998 184.887 12.2869C184.006 12.8646 183.325 13.6222 182.842 14.5597C182.368 15.4877 182.131 16.4962 182.131 17.5852V20.071C182.131 21.5294 182.387 22.7699 182.898 23.7926C183.419 24.8153 184.144 25.5966 185.072 26.1364C186 26.6667 187.084 26.9318 188.325 26.9318C189.129 26.9318 189.863 26.8182 190.526 26.5909C191.189 26.3542 191.762 26.0038 192.245 25.5398C192.728 25.0758 193.097 24.5028 193.353 23.821L197.373 24.5455C197.051 25.7292 196.473 26.7661 195.64 27.6562C194.816 28.5369 193.779 29.2235 192.529 29.7159C191.289 30.1989 189.873 30.4403 188.282 30.4403ZM219.29 30.483C217.908 30.483 216.658 30.2273 215.54 29.7159C214.423 29.1951 213.538 28.4422 212.884 27.4574C212.24 26.4725 211.918 25.2652 211.918 23.8352C211.918 22.6042 212.155 21.5909 212.629 20.7955C213.102 20 213.741 19.3703 214.546 18.9062C215.351 18.4422 216.251 18.0919 217.245 17.8551C218.239 17.6184 219.253 17.4384 220.285 17.3153C221.592 17.1638 222.652 17.0407 223.467 16.946C224.281 16.8419 224.873 16.6761 225.242 16.4489C225.612 16.2216 225.796 15.8523 225.796 15.3409V15.2415C225.796 14.0009 225.446 13.0398 224.745 12.358C224.054 11.6761 223.022 11.3352 221.648 11.3352C220.219 11.3352 219.092 11.6525 218.268 12.2869C217.453 12.9119 216.89 13.608 216.577 14.375L212.586 13.4659C213.059 12.1402 213.751 11.0701 214.66 10.2557C215.578 9.43182 216.634 8.83523 217.827 8.46591C219.021 8.08712 220.275 7.89773 221.592 7.89773C222.463 7.89773 223.386 8.00189 224.362 8.21023C225.346 8.40909 226.265 8.77841 227.117 9.31818C227.979 9.85795 228.684 10.6297 229.234 11.6335C229.783 12.6278 230.058 13.9205 230.058 15.5114V30H225.91V27.017H225.739C225.465 27.5663 225.053 28.1061 224.504 28.6364C223.954 29.1667 223.249 29.607 222.387 29.9574C221.525 30.3078 220.493 30.483 219.29 30.483ZM220.214 27.0739C221.388 27.0739 222.392 26.8419 223.225 26.3778C224.068 25.9138 224.707 25.3078 225.143 24.5597C225.588 23.8021 225.81 22.9924 225.81 22.1307V19.3182C225.659 19.4697 225.365 19.6117 224.93 19.7443C224.504 19.8674 224.016 19.9763 223.467 20.071C222.917 20.1562 222.382 20.2367 221.862 20.3125C221.341 20.3788 220.905 20.4356 220.555 20.483C219.731 20.5871 218.978 20.7623 218.296 21.0085C217.624 21.2547 217.084 21.6098 216.677 22.0739C216.279 22.5284 216.08 23.1345 216.08 23.892C216.08 24.9432 216.469 25.7386 217.245 26.2784C218.022 26.8087 219.011 27.0739 220.214 27.0739ZM239.962 17.0455V30H235.714V8.18182H239.791V11.733H240.061C240.563 10.5777 241.349 9.64962 242.419 8.94886C243.499 8.24811 244.857 7.89773 246.496 7.89773C247.982 7.89773 249.285 8.21023 250.402 8.83523C251.519 9.45076 252.386 10.3693 253.001 11.5909C253.617 12.8125 253.925 14.3229 253.925 16.1222V30H249.678V16.6335C249.678 15.0521 249.266 13.8163 248.442 12.9261C247.618 12.0265 246.486 11.5767 245.047 11.5767C244.062 11.5767 243.186 11.7898 242.419 12.2159C241.661 12.642 241.06 13.267 240.615 14.0909C240.179 14.9053 239.962 15.8902 239.962 17.0455ZM276.556 30.483C275.174 30.483 273.924 30.2273 272.806 29.7159C271.689 29.1951 270.803 28.4422 270.15 27.4574C269.506 26.4725 269.184 25.2652 269.184 23.8352C269.184 22.6042 269.421 21.5909 269.894 20.7955C270.368 20 271.007 19.3703 271.812 18.9062C272.617 18.4422 273.516 18.0919 274.511 17.8551C275.505 17.6184 276.518 17.4384 277.55 17.3153C278.857 17.1638 279.918 17.0407 280.732 16.946C281.547 16.8419 282.138 16.6761 282.508 16.4489C282.877 16.2216 283.062 15.8523 283.062 15.3409V15.2415C283.062 14.0009 282.711 13.0398 282.011 12.358C281.319 11.6761 280.287 11.3352 278.914 11.3352C277.484 11.3352 276.357 11.6525 275.533 12.2869C274.719 12.9119 274.156 13.608 273.843 14.375L269.852 13.4659C270.325 12.1402 271.016 11.0701 271.925 10.2557C272.844 9.43182 273.9 8.83523 275.093 8.46591C276.286 8.08712 277.541 7.89773 278.857 7.89773C279.728 7.89773 280.652 8.00189 281.627 8.21023C282.612 8.40909 283.531 8.77841 284.383 9.31818C285.245 9.85795 285.95 10.6297 286.499 11.6335C287.049 12.6278 287.323 13.9205 287.323 15.5114V30H283.175V27.017H283.005C282.73 27.5663 282.318 28.1061 281.769 28.6364C281.22 29.1667 280.514 29.607 279.653 29.9574C278.791 30.3078 277.759 30.483 276.556 30.483ZM277.479 27.0739C278.654 27.0739 279.657 26.8419 280.491 26.3778C281.334 25.9138 281.973 25.3078 282.408 24.5597C282.853 23.8021 283.076 22.9924 283.076 22.1307V19.3182C282.924 19.4697 282.631 19.6117 282.195 19.7443C281.769 19.8674 281.281 19.9763 280.732 20.071C280.183 20.1562 279.648 20.2367 279.127 20.3125C278.606 20.3788 278.171 20.4356 277.82 20.483C276.996 20.5871 276.244 20.7623 275.562 21.0085C274.889 21.2547 274.35 21.6098 273.942 22.0739C273.545 22.5284 273.346 23.1345 273.346 23.892C273.346 24.9432 273.734 25.7386 274.511 26.2784C275.287 26.8087 276.277 27.0739 277.479 27.0739ZM302.17 30.4403C300.059 30.4403 298.241 29.9621 296.716 29.0057C295.201 28.0398 294.036 26.7093 293.222 25.0142C292.407 23.3191 292 21.3778 292 19.1903C292 16.9744 292.417 15.0189 293.25 13.3239C294.083 11.6193 295.258 10.2888 296.773 9.33239C298.288 8.37595 300.073 7.89773 302.128 7.89773C303.785 7.89773 305.262 8.20549 306.56 8.82102C307.857 9.42708 308.903 10.2794 309.699 11.3778C310.504 12.4763 310.982 13.7595 311.134 15.2273H307C306.773 14.2045 306.252 13.3239 305.438 12.5852C304.633 11.8466 303.553 11.4773 302.199 11.4773C301.015 11.4773 299.978 11.7898 299.088 12.4148C298.207 13.0303 297.521 13.911 297.028 15.0568C296.536 16.1932 296.29 17.5379 296.29 19.0909C296.29 20.6818 296.531 22.0549 297.014 23.2102C297.497 24.3655 298.179 25.2604 299.06 25.8949C299.95 26.5294 300.996 26.8466 302.199 26.8466C303.004 26.8466 303.733 26.6998 304.386 26.4062C305.049 26.1032 305.603 25.6723 306.048 25.1136C306.503 24.5549 306.82 23.8826 307 23.0966H311.134C310.982 24.5076 310.523 25.767 309.756 26.875C308.989 27.983 307.961 28.8542 306.673 29.4886C305.395 30.1231 303.894 30.4403 302.17 30.4403ZM324.866 30.4403C322.754 30.4403 320.936 29.9621 319.411 29.0057C317.896 28.0398 316.731 26.7093 315.917 25.0142C315.103 23.3191 314.695 21.3778 314.695 19.1903C314.695 16.9744 315.112 15.0189 315.945 13.3239C316.779 11.6193 317.953 10.2888 319.468 9.33239C320.983 8.37595 322.768 7.89773 324.823 7.89773C326.48 7.89773 327.958 8.20549 329.255 8.82102C330.552 9.42708 331.599 10.2794 332.394 11.3778C333.199 12.4763 333.677 13.7595 333.829 15.2273H329.695C329.468 14.2045 328.947 13.3239 328.133 12.5852C327.328 11.8466 326.248 11.4773 324.894 11.4773C323.71 11.4773 322.674 11.7898 321.783 12.4148C320.903 13.0303 320.216 13.911 319.724 15.0568C319.231 16.1932 318.985 17.5379 318.985 19.0909C318.985 20.6818 319.227 22.0549 319.71 23.2102C320.192 24.3655 320.874 25.2604 321.755 25.8949C322.645 26.5294 323.692 26.8466 324.894 26.8466C325.699 26.8466 326.428 26.6998 327.082 26.4062C327.745 26.1032 328.299 25.6723 328.744 25.1136C329.198 24.5549 329.515 23.8826 329.695 23.0966H333.829C333.677 24.5076 333.218 25.767 332.451 26.875C331.684 27.983 330.656 28.8542 329.369 29.4886C328.09 30.1231 326.589 30.4403 324.866 30.4403ZM347.561 30.4403C345.516 30.4403 343.731 29.9716 342.206 29.0341C340.681 28.0966 339.498 26.785 338.655 25.0994C337.812 23.4138 337.391 21.4441 337.391 19.1903C337.391 16.9271 337.812 14.9479 338.655 13.2528C339.498 11.5578 340.681 10.2415 342.206 9.30398C343.731 8.36648 345.516 7.89773 347.561 7.89773C349.607 7.89773 351.392 8.36648 352.916 9.30398C354.441 10.2415 355.625 11.5578 356.467 13.2528C357.31 14.9479 357.732 16.9271 357.732 19.1903C357.732 21.4441 357.31 23.4138 356.467 25.0994C355.625 26.785 354.441 28.0966 352.916 29.0341C351.392 29.9716 349.607 30.4403 347.561 30.4403ZM347.575 26.875C348.901 26.875 350 26.5246 350.871 25.8239C351.742 25.1231 352.386 24.1903 352.803 23.0256C353.229 21.8608 353.442 20.5777 353.442 19.1761C353.442 17.7841 353.229 16.5057 352.803 15.3409C352.386 14.1667 351.742 13.2244 350.871 12.5142C350 11.804 348.901 11.4489 347.575 11.4489C346.24 11.4489 345.132 11.804 344.251 12.5142C343.38 13.2244 342.732 14.1667 342.305 15.3409C341.889 16.5057 341.68 17.7841 341.68 19.1761C341.68 20.5777 341.889 21.8608 342.305 23.0256C342.732 24.1903 343.38 25.1231 344.251 25.8239C345.132 26.5246 346.24 26.875 347.575 26.875ZM376.293 20.9517V8.18182H380.555V30H376.379V26.2216H376.151C375.649 27.3864 374.844 28.357 373.737 29.1335C372.638 29.9006 371.27 30.2841 369.631 30.2841C368.23 30.2841 366.989 29.9763 365.91 29.3608C364.84 28.7358 363.997 27.8125 363.381 26.5909C362.775 25.3693 362.472 23.8589 362.472 22.0597V8.18182H366.719V21.5483C366.719 23.035 367.131 24.2187 367.955 25.0994C368.779 25.9801 369.849 26.4205 371.165 26.4205C371.961 26.4205 372.752 26.2216 373.538 25.8239C374.333 25.4261 374.991 24.8248 375.512 24.0199C376.042 23.215 376.303 22.1922 376.293 20.9517ZM390.509 17.0455V30H386.261V8.18182H390.338V11.733H390.608C391.11 10.5777 391.896 9.64962 392.966 8.94886C394.045 8.24811 395.404 7.89773 397.043 7.89773C398.529 7.89773 399.831 8.21023 400.949 8.83523C402.066 9.45076 402.933 10.3693 403.548 11.5909C404.164 12.8125 404.472 14.3229 404.472 16.1222V30H400.224V16.6335C400.224 15.0521 399.813 13.8163 398.989 12.9261C398.165 12.0265 397.033 11.5767 395.594 11.5767C394.609 11.5767 393.733 11.7898 392.966 12.2159C392.208 12.642 391.607 13.267 391.162 14.0909C390.726 14.9053 390.509 15.8902 390.509 17.0455ZM420.352 8.18182V11.5909H408.435V8.18182H420.352ZM411.631 2.95455H415.878V23.5938C415.878 24.4176 416.001 25.0379 416.247 25.4545C416.493 25.8617 416.811 26.1411 417.199 26.2926C417.597 26.4347 418.027 26.5057 418.491 26.5057C418.832 26.5057 419.131 26.482 419.386 26.4347C419.642 26.3873 419.841 26.3494 419.983 26.321L420.75 29.8295C420.504 29.9242 420.153 30.0189 419.699 30.1136C419.244 30.2178 418.676 30.2746 417.994 30.2841C416.877 30.303 415.835 30.1042 414.869 29.6875C413.903 29.2708 413.122 28.6269 412.526 27.7557C411.929 26.8845 411.631 25.7907 411.631 24.4744V2.95455ZM429.695 21.6335V21.3636C429.714 19.6023 429.889 18.2008 430.221 17.1591C430.562 16.1174 431.045 15.2746 431.67 14.6307C432.295 13.9867 433.048 13.3996 433.928 12.8693C434.496 12.5095 435.008 12.107 435.462 11.6619C435.917 11.2169 436.277 10.7055 436.542 10.1278C436.807 9.55019 436.94 8.91098 436.94 8.21023C436.94 7.36742 436.741 6.63826 436.343 6.02273C435.945 5.4072 435.415 4.93371 434.752 4.60227C434.099 4.26136 433.37 4.09091 432.565 4.09091C431.835 4.09091 431.139 4.24242 430.477 4.54545C429.814 4.84848 429.264 5.32197 428.829 5.96591C428.393 6.60038 428.142 7.41951 428.076 8.4233H423.758C423.824 6.71875 424.255 5.27936 425.05 4.10511C425.846 2.9214 426.897 2.02651 428.204 1.42045C429.52 0.814393 430.974 0.511363 432.565 0.511363C434.307 0.511363 435.832 0.838068 437.138 1.49148C438.445 2.13542 439.459 3.03977 440.178 4.20455C440.907 5.35985 441.272 6.70928 441.272 8.25284C441.272 9.31345 441.106 10.2699 440.775 11.1222C440.443 11.965 439.97 12.7178 439.354 13.3807C438.748 14.0436 438.019 14.6307 437.167 15.142C436.362 15.6439 435.709 16.1648 435.207 16.7045C434.714 17.2443 434.354 17.8835 434.127 18.6222C433.9 19.3608 433.777 20.2746 433.758 21.3636V21.6335H429.695ZM431.84 30.2699C431.064 30.2699 430.396 29.9953 429.837 29.446C429.279 28.8873 428.999 28.215 428.999 27.429C428.999 26.6525 429.279 25.9896 429.837 25.4403C430.396 24.8816 431.064 24.6023 431.84 24.6023C432.607 24.6023 433.27 24.8816 433.829 25.4403C434.397 25.9896 434.681 26.6525 434.681 27.429C434.681 27.9498 434.549 28.428 434.283 28.8636C434.028 29.2898 433.687 29.6307 433.261 29.8864C432.835 30.142 432.361 30.2699 431.84 30.2699Z" fill="white"/>
</svg>
