<svg width="44" height="44" viewBox="0 0 44 44" fill="none" xmlns="http://www.w3.org/2000/svg">
<path d="M22.0001 0.196899C30.0704 0.196899 36.6129 6.73904 36.6129 14.8097C36.6129 14.9959 36.6081 15.1818 36.6013 15.3661H33.3764C33.3853 15.1818 33.3898 14.9963 33.3898 14.8097C33.3898 8.51899 28.2904 3.4196 22.0001 3.4196C15.7095 3.4196 10.6099 8.51899 10.6099 14.8097C10.6099 14.9963 10.6148 15.1818 10.6236 15.3661H7.39882C7.39145 15.1807 7.38758 14.9952 7.38721 14.8097C7.38716 6.73904 13.9295 0.196899 22.0001 0.196899Z" fill="#A4A4A4"/>
<path d="M2.71659 14.8273H41.2826C41.9163 14.8606 42.3807 15.2117 42.3705 15.9147L42.3649 39.8219C42.3645 42.0119 40.5733 43.803 38.3837 43.803H5.61554C3.42614 43.803 1.63471 42.0119 1.63436 39.8219L1.62891 15.9147C1.63172 15.2035 2.11623 14.8265 2.71659 14.8273ZM19.2023 37.2744H24.7969L23.5318 29.6471V29.6463C25.1424 29.0303 26.2861 27.4699 26.2861 25.6427C26.2861 23.2751 24.3668 21.3562 21.9999 21.3562C19.6323 21.3562 17.7133 23.2751 17.7133 25.6427C17.7133 27.4699 18.8568 29.0303 20.4672 29.6463V29.6471L19.2023 37.2744Z" fill="#A4A4A4"/>
</svg>
