<svg width="61" height="61" viewBox="0 0 61 61" fill="none" xmlns="http://www.w3.org/2000/svg">
<path d="M11.4494 61.0029C8.41282 61.0029 5.50062 59.7979 3.35345 57.653C1.20627 55.508 0 52.5988 0 49.5654V11.4404C0 8.40702 1.20627 5.49784 3.35345 3.3529C5.50062 1.20795 8.41282 0.00292969 11.4494 0.00292969H34.3062C35.3184 0.00292969 36.2891 0.404603 37.0048 1.11959C37.7205 1.83457 38.1226 2.80429 38.1226 3.81543C38.1226 4.82657 37.7205 5.79629 37.0048 6.51127C36.2891 7.22626 35.3184 7.62793 34.3062 7.62793H11.4494C10.4372 7.62793 9.46646 8.0296 8.75074 8.74459C8.03501 9.45957 7.63292 10.4293 7.63292 11.4404V49.5654C7.63292 50.5766 8.03501 51.5463 8.75074 52.2613C9.46646 52.9763 10.4372 53.3779 11.4494 53.3779H34.3062C35.3184 53.3779 36.2891 53.7796 37.0048 54.4946C37.7205 55.2096 38.1226 56.1793 38.1226 57.1904C38.1226 58.2016 37.7205 59.1713 37.0048 59.8863C36.2891 60.6013 35.3184 61.0029 34.3062 61.0029H11.4494ZM43.9427 43.7514C43.2284 43.0366 42.8272 42.0678 42.8272 41.0578C42.8272 40.0478 43.2284 39.0791 43.9427 38.3643L47.9844 34.3192H22.8835C21.8713 34.3192 20.9006 33.9176 20.1849 33.2026C19.4691 32.4876 19.067 31.5179 19.067 30.5067C19.067 29.4956 19.4691 28.5259 20.1849 27.8109C20.9006 27.0959 21.8713 26.6942 22.8835 26.6942H47.9844L43.0535 21.7609C42.386 21.0375 42.0244 20.0843 42.0441 19.1007C42.0638 18.1171 42.4633 17.1792 43.1592 16.4831C43.8551 15.7869 44.7934 15.3864 45.778 15.3654C46.7626 15.3443 47.7172 15.7043 48.4423 16.37L59.8917 27.8075C60.4213 28.3443 60.7815 29.0246 60.9273 29.7641C61.0732 30.5036 60.9984 31.2696 60.7123 31.9669C60.5197 32.4259 60.2412 32.8438 59.8917 33.1984L49.343 43.7514C48.6276 44.4638 47.6587 44.8638 46.6486 44.8638C45.6385 44.8638 44.6696 44.4638 43.9542 43.7514H43.9427Z" fill="#A3A3A3"/>
</svg>
