<svg width="170" height="170" viewBox="0 0 170 170" fill="none" xmlns="http://www.w3.org/2000/svg">
<path d="M81.8789 124.246V137.644H95.0273L133.128 98.4639L119.963 85.0498L81.8789 124.246ZM143.155 83.29L135.236 75.2217C133.858 73.8105 131.75 73.8105 130.372 75.2217L124.13 81.5801L137.278 94.9941L143.139 88.2539C144.5 86.8428 144.5 84.668 143.155 83.29Z" fill="#030000"/>
<path d="M70.6562 129.559H47.5801C44.2764 129.559 41.5869 126.703 41.5869 123.2V42.583C41.5869 39.0801 44.2764 36.2246 47.5801 36.2246H119.764C123.067 36.2246 125.757 39.0801 125.757 42.583V63.1025C125.757 65.875 127.932 68.1328 130.604 68.1328C133.277 68.1328 135.452 65.875 135.452 63.1025V42.583C135.452 33.5352 128.413 26.1641 119.78 26.1641H47.5801C38.9307 26.1641 31.9082 33.5352 31.9082 42.583V123.2C31.9082 132.265 38.9473 139.619 47.5801 139.619H70.6562C73.3291 139.619 75.5039 137.361 75.5039 134.589C75.5039 131.816 73.3291 129.559 70.6562 129.559Z" fill="#030000"/>
<path d="M114.219 54.6855C114.219 51.9131 112.044 49.6553 109.371 49.6553H57.458C54.7852 49.6553 52.6104 51.9131 52.6104 54.6855C52.6104 57.458 54.7852 59.7158 57.458 59.7158H109.371C112.044 59.7158 114.219 57.458 114.219 54.6855ZM77.7949 91.458H57.458C54.7852 91.458 52.6104 93.7158 52.6104 96.4883C52.6104 99.2607 54.7852 101.519 57.458 101.519H77.7949C80.4678 101.519 82.6426 99.2607 82.6426 96.4883C82.6426 93.7158 80.4678 91.458 77.7949 91.458ZM57.458 69.8594C54.7852 69.8594 52.6104 72.1172 52.6104 74.8896C52.6104 77.6621 54.7852 79.9199 57.458 79.9199H93.2842C95.957 79.9199 98.1318 77.6621 98.1318 74.8896C98.1318 72.1172 95.957 69.8594 93.2842 69.8594H57.458Z" fill="#030000"/>
</svg>
