<svg width="89" height="92" viewBox="0 0 89 92" fill="none" xmlns="http://www.w3.org/2000/svg">
<path d="M61.1988 51.7599C64.9135 51.7599 68.4057 53.2549 71.0323 55.97C73.6588 58.685 75.1051 62.295 75.1051 66.1349C75.1051 69.9748 73.6588 73.5847 71.0323 76.2998C68.4057 79.0149 64.9135 80.5099 61.1988 80.5099C57.4841 80.5099 53.9928 79.014 51.3662 76.2989C48.7397 73.5838 47.2934 69.9739 47.2934 66.134C47.2934 62.2941 48.7397 58.6841 51.3662 55.9691C53.9928 53.2549 57.4841 51.7599 61.1988 51.7599ZM61.1988 46.0099C50.4467 46.0099 41.7301 55.0203 41.7301 66.1349C41.7301 77.2495 50.4467 86.2599 61.1988 86.2599C71.9509 86.2599 80.6676 77.2495 80.6676 66.1349C80.6676 55.0203 71.9509 46.0099 61.1988 46.0099ZM55.7128 20.0801H24.2499C22.7141 20.0801 21.4686 21.3675 21.4686 22.9551C21.4686 24.5426 22.7141 25.8301 24.2499 25.8301H55.7128C57.2486 25.8301 58.494 24.5426 58.494 22.9551C58.494 21.3675 57.2486 20.0801 55.7128 20.0801ZM47.1743 36.0049H24.2499C22.7141 36.0049 21.4686 37.2923 21.4686 38.8799C21.4686 40.4674 22.7141 41.7549 24.2499 41.7549H47.1743C48.7101 41.7549 49.9556 40.4674 49.9556 38.8799C49.9556 37.2923 48.7101 36.0049 47.1743 36.0049ZM32.1373 51.9297H24.2499C22.7141 51.9297 21.4686 53.2171 21.4686 54.8047C21.4686 56.3922 22.7141 57.6797 24.2499 57.6797H32.1373C33.6731 57.6797 34.9186 56.3922 34.9186 54.8047C34.9186 53.2171 33.6731 51.9297 32.1373 51.9297Z" fill="#3690D0"/>
<path d="M61.5713 70.2715C62.1108 70.2715 62.584 70.4523 62.9229 70.791C63.2616 71.1298 63.4423 71.6031 63.4424 72.1426C63.4424 72.6821 63.2616 73.1553 62.9229 73.4941C62.584 73.833 62.1109 74.0146 61.5713 74.0146C61.0317 74.0146 60.5585 73.8329 60.2197 73.4941C59.881 73.1553 59.7002 72.6821 59.7002 72.1426C59.7003 71.6031 59.881 71.1298 60.2197 70.791C60.5585 70.4523 61.0318 70.2715 61.5713 70.2715ZM61.5713 57.7002C62.5028 57.7002 63.4423 58.4437 63.4424 59.5713V59.5928L62.8135 68.2363L62.8105 68.2734L62.7988 68.3096C62.6164 68.8564 62.2151 69.2998 61.5713 69.2998C60.9275 69.2997 60.5261 68.8564 60.3438 68.3096L60.332 68.2734L60.3291 68.2363L59.7012 59.751L59.7002 59.7393V59.7285C59.7002 58.6589 60.4265 57.7003 61.5713 57.7002Z" fill="#EF0000" stroke="#F50000" stroke-width="0.6"/>
<path d="M35.7582 86.25H18.5144C13.1466 86.25 8.78006 81.7363 8.78006 76.1875V15.8125C8.78006 10.2638 13.1466 5.75 18.5144 5.75H61.4482C66.8161 5.75 71.1826 10.2638 71.1826 15.8125V37.5736C71.1826 39.1611 69.9371 40.4486 68.4014 40.4486C66.8656 40.4486 65.6201 39.1611 65.6201 37.5736V15.8125C65.6201 13.4343 63.7489 11.5 61.4482 11.5H18.5144C16.2138 11.5 14.3426 13.4343 14.3426 15.8125V76.1875C14.3426 78.5657 16.2138 80.5 18.5144 80.5H35.7582C37.294 80.5 38.5394 81.7875 38.5394 83.375C38.5394 84.9625 37.294 86.25 35.7582 86.25Z" fill="#3690D0"/>
</svg>
