<svg width="2268" height="1518" viewBox="0 0 2268 1518" fill="none" xmlns="http://www.w3.org/2000/svg">
<g filter="url(#filter0_d_3_291)">
<rect x="405" y="173" width="1548" height="1259" rx="50" fill="white"/>
</g>
<path d="M1253.58 250.903C1250.55 248.856 1246.44 249.657 1244.39 252.683C1242.35 255.712 1243.14 259.827 1246.17 261.874C1268.71 277.101 1282.17 302.408 1282.17 329.569C1282.17 374.583 1245.55 411.202 1200.54 411.202C1155.52 411.202 1118.9 374.583 1118.9 329.569C1118.9 302.408 1132.36 277.1 1154.9 261.874C1157.93 259.827 1158.72 255.712 1156.68 252.682C1154.63 249.657 1150.52 248.856 1147.49 250.903C1121.3 268.596 1105.67 298.004 1105.67 329.569C1105.67 381.88 1148.22 424.44 1200.54 424.44C1252.85 424.44 1295.41 381.88 1295.41 329.569C1295.41 298.004 1279.77 268.596 1253.58 250.903Z" fill="#00DB6E"/>
<path d="M1176.91 234.698C1173.26 234.698 1170.29 237.661 1170.29 241.317V247.774C1170.29 251.431 1173.26 254.393 1176.91 254.393C1180.57 254.393 1183.53 251.431 1183.53 247.774V241.317C1183.53 237.661 1180.57 234.698 1176.91 234.698Z" fill="#00DB6E"/>
<path d="M1224.16 234.698C1220.5 234.698 1217.54 237.661 1217.54 241.317V247.774C1217.54 251.431 1220.5 254.393 1224.16 254.393C1227.81 254.393 1230.78 251.431 1230.78 247.774V241.317C1230.78 237.661 1227.81 234.698 1224.16 234.698Z" fill="#00DB6E"/>
<path d="M1182.21 269.245C1184.59 273.069 1191.11 279.541 1200.47 279.541C1209.78 279.541 1216.38 273.119 1218.81 269.322C1220.79 266.243 1219.89 262.15 1216.81 260.178C1213.73 258.202 1209.64 259.107 1207.67 262.182C1207.64 262.223 1204.83 266.304 1200.47 266.304C1196.23 266.304 1193.59 262.462 1193.42 262.199C1191.47 259.139 1187.42 258.211 1184.34 260.131C1181.23 262.059 1180.28 266.14 1182.21 269.245Z" fill="#00DB6E"/>
<path d="M1149.59 329.778C1146.97 332.325 1146.91 336.516 1149.45 339.138L1181.65 372.286C1182.89 373.57 1184.6 374.294 1186.39 374.294C1188.18 374.294 1189.9 373.57 1191.14 372.286L1251.62 310.014C1254.16 307.392 1254.1 303.201 1251.48 300.655C1248.86 298.11 1244.67 298.173 1242.12 300.793L1186.39 358.174L1158.95 329.916C1156.41 327.298 1152.22 327.234 1149.59 329.778Z" fill="#00DB6E"/>
<path d="M1105.98 505.321L1110.3 502.741C1111.22 503.661 1112.16 504.701 1113.12 505.861C1114.12 506.981 1115.04 508.081 1115.88 509.161C1116.76 510.241 1117.46 511.201 1117.98 512.041L1113.42 514.981C1112.94 514.101 1112.28 513.081 1111.44 511.921C1110.6 510.801 1109.7 509.661 1108.74 508.501C1107.82 507.341 1106.9 506.281 1105.98 505.321ZM1095.3 462.181H1116.72V501.301H1111.08V467.341H1100.7V501.661H1095.3V462.181ZM1127.76 460.021H1133.4V508.141C1133.4 509.741 1133.22 511.001 1132.86 511.921C1132.5 512.841 1131.84 513.541 1130.88 514.021C1129.96 514.501 1128.74 514.821 1127.22 514.981C1125.74 515.141 1123.9 515.201 1121.7 515.161C1121.58 514.361 1121.34 513.381 1120.98 512.221C1120.62 511.101 1120.26 510.121 1119.9 509.281C1121.34 509.321 1122.68 509.341 1123.92 509.341C1125.2 509.341 1126.08 509.341 1126.56 509.341C1127.36 509.341 1127.76 508.941 1127.76 508.141V460.021ZM1119.54 464.521H1125V501.541H1119.54V464.521ZM1103.16 470.641H1108.38V493.681C1108.38 495.681 1108.22 497.701 1107.9 499.741C1107.58 501.781 1106.98 503.781 1106.1 505.741C1105.26 507.661 1104.02 509.441 1102.38 511.081C1100.74 512.721 1098.56 514.161 1095.84 515.401C1095.68 515.001 1095.4 514.501 1095 513.901C1094.64 513.341 1094.26 512.781 1093.86 512.221C1093.46 511.701 1093.1 511.301 1092.78 511.021C1095.14 509.941 1097.02 508.761 1098.42 507.481C1099.82 506.161 1100.86 504.761 1101.54 503.281C1102.22 501.761 1102.66 500.181 1102.86 498.541C1103.06 496.901 1103.16 495.261 1103.16 493.621V470.641ZM1080.96 464.761L1085.22 459.541C1086.26 460.021 1087.4 460.621 1088.64 461.341C1089.92 462.061 1091.16 462.781 1092.36 463.501C1093.56 464.181 1094.52 464.821 1095.24 465.421L1090.86 471.241C1090.18 470.641 1089.26 469.961 1088.1 469.201C1086.98 468.401 1085.78 467.621 1084.5 466.861C1083.26 466.101 1082.08 465.401 1080.96 464.761ZM1078.68 480.841L1082.76 475.621C1083.8 476.101 1084.94 476.681 1086.18 477.361C1087.46 478.041 1088.68 478.721 1089.84 479.401C1091.04 480.081 1092.04 480.701 1092.84 481.261L1088.52 487.021C1087.84 486.421 1086.92 485.761 1085.76 485.041C1084.6 484.321 1083.4 483.581 1082.16 482.821C1080.92 482.061 1079.76 481.401 1078.68 480.841ZM1079.7 511.021C1080.46 509.461 1081.28 507.621 1082.16 505.501C1083.08 503.381 1084 501.141 1084.92 498.781C1085.84 496.381 1086.68 494.021 1087.44 491.701L1093.26 495.421C1092.62 497.581 1091.9 499.781 1091.1 502.021C1090.3 504.221 1089.48 506.401 1088.64 508.561C1087.84 510.681 1087.02 512.741 1086.18 514.741L1079.7 511.021ZM1142.82 464.161L1147.5 459.841C1148.58 460.681 1149.72 461.641 1150.92 462.721C1152.12 463.801 1153.26 464.881 1154.34 465.961C1155.46 467.001 1156.36 467.961 1157.04 468.841L1152.06 473.761C1151.46 472.881 1150.64 471.881 1149.6 470.761C1148.56 469.641 1147.44 468.501 1146.24 467.341C1145.04 466.181 1143.9 465.121 1142.82 464.161ZM1147.14 514.381L1145.82 508.201L1147.56 505.921L1159.2 498.601C1159.36 499.521 1159.62 500.601 1159.98 501.841C1160.34 503.041 1160.68 504.021 1161 504.781C1158.32 506.541 1156.12 507.981 1154.4 509.101C1152.72 510.221 1151.4 511.101 1150.44 511.741C1149.52 512.381 1148.82 512.901 1148.34 513.301C1147.86 513.701 1147.46 514.061 1147.14 514.381ZM1139.94 477.541H1150.74V484.441H1139.94V477.541ZM1158.06 470.581H1194.96V477.421H1158.06V470.581ZM1159.86 484.321H1175.82V490.921H1159.86V484.321ZM1164.72 488.641H1171.32V505.861L1164.72 506.461V488.641ZM1158.84 505.261C1161.2 504.701 1164.02 504.001 1167.3 503.161C1170.62 502.281 1173.96 501.401 1177.32 500.521L1178.34 506.761C1175.3 507.641 1172.24 508.541 1169.16 509.461C1166.08 510.341 1163.24 511.161 1160.64 511.921L1158.84 505.261ZM1184.22 462.601L1189.02 459.661C1190.14 460.901 1191.26 462.281 1192.38 463.801C1193.5 465.281 1194.34 466.581 1194.9 467.701L1189.74 471.061C1189.26 469.861 1188.48 468.481 1187.4 466.921C1186.32 465.321 1185.26 463.881 1184.22 462.601ZM1176.48 459.481H1183.8C1183.8 464.281 1183.86 468.941 1183.98 473.461C1184.1 477.941 1184.3 482.121 1184.58 486.001C1184.9 489.841 1185.24 493.201 1185.6 496.081C1186 498.961 1186.44 501.221 1186.92 502.861C1187.44 504.461 1187.98 505.261 1188.54 505.261C1188.94 505.301 1189.26 504.601 1189.5 503.161C1189.78 501.681 1189.96 499.601 1190.04 496.921C1190.44 497.401 1191 497.921 1191.72 498.481C1192.48 499.041 1193.22 499.561 1193.94 500.041C1194.7 500.481 1195.28 500.821 1195.68 501.061C1195.32 503.941 1194.84 506.301 1194.24 508.141C1193.64 509.981 1193 511.401 1192.32 512.401C1191.68 513.401 1191 514.081 1190.28 514.441C1189.56 514.801 1188.9 514.981 1188.3 514.981C1186.46 514.981 1184.86 514.141 1183.5 512.461C1182.18 510.781 1181.08 508.361 1180.2 505.201C1179.36 502.001 1178.68 498.161 1178.16 493.681C1177.64 489.161 1177.24 484.041 1176.96 478.321C1176.72 472.561 1176.56 466.281 1176.48 459.481ZM1147.14 514.381C1146.98 513.781 1146.7 513.081 1146.3 512.281C1145.9 511.481 1145.48 510.701 1145.04 509.941C1144.64 509.141 1144.22 508.521 1143.78 508.081C1144.5 507.681 1145.22 507.021 1145.94 506.101C1146.66 505.141 1147.02 503.981 1147.02 502.621V477.541H1153.86V507.781C1153.86 507.781 1153.62 507.921 1153.14 508.201C1152.7 508.481 1152.14 508.861 1151.46 509.341C1150.82 509.821 1150.16 510.341 1149.48 510.901C1148.84 511.501 1148.28 512.101 1147.8 512.701C1147.36 513.301 1147.14 513.861 1147.14 514.381ZM1211.28 476.041H1242.42V482.581H1211.28V476.041ZM1200.12 486.901H1253.88V493.621H1200.12V486.901ZM1214.64 492.301H1222.44C1222.16 495.061 1221.7 497.641 1221.06 500.041C1220.42 502.401 1219.4 504.561 1218 506.521C1216.64 508.441 1214.72 510.161 1212.24 511.681C1209.76 513.201 1206.56 514.481 1202.64 515.521C1202.4 514.881 1202.04 514.161 1201.56 513.361C1201.12 512.561 1200.62 511.761 1200.06 510.961C1199.5 510.201 1198.96 509.581 1198.44 509.101C1201.88 508.341 1204.62 507.421 1206.66 506.341C1208.74 505.261 1210.3 504.041 1211.34 502.681C1212.42 501.281 1213.18 499.721 1213.62 498.001C1214.1 496.241 1214.44 494.341 1214.64 492.301ZM1230.12 491.101H1237.38V505.741C1237.38 506.701 1237.52 507.321 1237.8 507.601C1238.12 507.841 1238.82 507.961 1239.9 507.961C1240.14 507.961 1240.52 507.961 1241.04 507.961C1241.56 507.961 1242.14 507.961 1242.78 507.961C1243.42 507.961 1244.02 507.961 1244.58 507.961C1245.14 507.961 1245.58 507.961 1245.9 507.961C1246.54 507.961 1247.02 507.801 1247.34 507.481C1247.7 507.161 1247.94 506.481 1248.06 505.441C1248.22 504.361 1248.34 502.781 1248.42 500.701C1248.94 501.061 1249.58 501.421 1250.34 501.781C1251.1 502.141 1251.88 502.461 1252.68 502.741C1253.52 503.021 1254.26 503.261 1254.9 503.461C1254.66 506.341 1254.24 508.581 1253.64 510.181C1253.04 511.821 1252.18 512.941 1251.06 513.541C1249.98 514.181 1248.48 514.501 1246.56 514.501C1246.2 514.501 1245.66 514.501 1244.94 514.501C1244.26 514.501 1243.5 514.501 1242.66 514.501C1241.86 514.501 1241.1 514.501 1240.38 514.501C1239.7 514.501 1239.18 514.501 1238.82 514.501C1236.5 514.501 1234.7 514.241 1233.42 513.721C1232.18 513.201 1231.32 512.301 1230.84 511.021C1230.36 509.741 1230.12 508.021 1230.12 505.861V491.101ZM1222.98 459.061H1230.66V469.981H1222.98V459.061ZM1201.2 464.821H1252.74V479.101H1245.06V471.661H1208.52V479.101H1201.2V464.821ZM1267.92 481.621H1281.78V488.161H1267.92V481.621ZM1279.02 481.621H1285.98C1285.98 481.621 1285.98 481.781 1285.98 482.101C1285.98 482.421 1285.98 482.801 1285.98 483.241C1285.98 483.641 1285.98 483.981 1285.98 484.261C1285.9 488.501 1285.8 491.981 1285.68 494.701C1285.56 497.381 1285.36 499.481 1285.08 501.001C1284.84 502.481 1284.5 503.521 1284.06 504.121C1283.46 504.881 1282.82 505.421 1282.14 505.741C1281.5 506.061 1280.74 506.301 1279.86 506.461C1279.06 506.621 1278.04 506.721 1276.8 506.761C1275.6 506.761 1274.28 506.741 1272.84 506.701C1272.8 505.661 1272.6 504.501 1272.24 503.221C1271.88 501.941 1271.44 500.861 1270.92 499.981C1272 500.061 1273 500.121 1273.92 500.161C1274.88 500.201 1275.6 500.221 1276.08 500.221C1276.48 500.221 1276.82 500.181 1277.1 500.101C1277.42 499.981 1277.68 499.781 1277.88 499.501C1278.16 499.141 1278.36 498.401 1278.48 497.281C1278.64 496.121 1278.76 494.381 1278.84 492.061C1278.92 489.701 1278.98 486.581 1279.02 482.701V481.621ZM1297.02 462.781L1301.4 458.461C1302.52 459.021 1303.7 459.681 1304.94 460.441C1306.18 461.201 1307.36 461.961 1308.48 462.721C1309.64 463.481 1310.58 464.221 1311.3 464.941L1306.68 469.741C1306 469.061 1305.12 468.301 1304.04 467.461C1302.96 466.621 1301.8 465.801 1300.56 465.001C1299.32 464.161 1298.14 463.421 1297.02 462.781ZM1304.1 478.261L1311.42 480.001C1308.9 487.801 1305.46 494.701 1301.1 500.701C1296.74 506.661 1291.58 511.481 1285.62 515.161C1285.3 514.641 1284.82 514.001 1284.18 513.241C1283.54 512.521 1282.88 511.781 1282.2 511.021C1281.52 510.301 1280.92 509.701 1280.4 509.221C1286.16 506.101 1291.04 501.901 1295.04 496.621C1299.04 491.301 1302.06 485.181 1304.1 478.261ZM1268.28 468.001H1314.6V475.081H1268.28V468.001ZM1263.48 468.001H1271.04V485.701C1271.04 487.941 1270.96 490.401 1270.8 493.081C1270.64 495.721 1270.34 498.441 1269.9 501.241C1269.46 504.001 1268.8 506.661 1267.92 509.221C1267.08 511.781 1265.98 514.081 1264.62 516.121C1264.22 515.601 1263.62 515.021 1262.82 514.381C1262.06 513.741 1261.28 513.101 1260.48 512.461C1259.72 511.861 1259.06 511.441 1258.5 511.201C1260.02 508.801 1261.12 506.121 1261.8 503.161C1262.52 500.161 1262.98 497.141 1263.18 494.101C1263.38 491.061 1263.48 488.241 1263.48 485.641V468.001ZM1287.84 459.061H1295.4C1295.32 463.981 1295.46 468.801 1295.82 473.521C1296.18 478.241 1296.7 482.661 1297.38 486.781C1298.1 490.861 1298.94 494.481 1299.9 497.641C1300.86 500.761 1301.92 503.201 1303.08 504.961C1304.24 506.721 1305.42 507.601 1306.62 507.601C1307.3 507.601 1307.82 506.781 1308.18 505.141C1308.58 503.501 1308.86 500.801 1309.02 497.041C1309.86 497.841 1310.84 498.621 1311.96 499.381C1313.12 500.141 1314.18 500.701 1315.14 501.061C1314.78 504.781 1314.24 507.661 1313.52 509.701C1312.8 511.701 1311.84 513.081 1310.64 513.841C1309.44 514.601 1307.9 514.981 1306.02 514.981C1303.86 514.981 1301.9 514.241 1300.14 512.761C1298.42 511.281 1296.88 509.221 1295.52 506.581C1294.2 503.941 1293.06 500.841 1292.1 497.281C1291.14 493.721 1290.34 489.861 1289.7 485.701C1289.1 481.541 1288.64 477.221 1288.32 472.741C1288.04 468.221 1287.88 463.661 1287.84 459.061Z" fill="black"/>
<path d="M1010.12 531.841L1011.9 530.476C1012.46 531.013 1013.03 531.619 1013.62 532.296C1014.2 532.949 1014.75 533.603 1015.26 534.256C1015.77 534.886 1016.18 535.446 1016.49 535.936L1014.63 537.581C1014.33 537.044 1013.92 536.449 1013.41 535.796C1012.92 535.119 1012.38 534.443 1011.8 533.766C1011.24 533.066 1010.68 532.424 1010.12 531.841ZM1012.43 560.856L1011.97 558.616L1012.64 557.426L1018.1 552.841C1018.17 553.168 1018.27 553.553 1018.41 553.996C1018.55 554.416 1018.67 554.743 1018.76 554.976C1017.48 556.096 1016.44 557.006 1015.65 557.706C1014.88 558.383 1014.27 558.919 1013.83 559.316C1013.41 559.736 1013.09 560.051 1012.88 560.261C1012.69 560.494 1012.54 560.693 1012.43 560.856ZM1008.61 540.591H1014.35V543.111H1008.61V540.591ZM1020.48 538.246H1027.48V540.206H1020.48V538.246ZM1020.44 542.936H1027.48V544.896H1020.44V542.936ZM1023.21 529.566L1025.8 530.056C1025.47 530.919 1025.12 531.818 1024.75 532.751C1024.37 533.661 1024.03 534.443 1023.73 535.096L1021.84 534.606C1022.1 533.883 1022.35 533.054 1022.61 532.121C1022.89 531.164 1023.09 530.313 1023.21 529.566ZM1019.04 533.521H1027.06V535.656H1021.25V549.306H1019.04V533.521ZM1026.25 533.521H1028.49V558.756C1028.49 559.386 1028.41 559.888 1028.25 560.261C1028.08 560.658 1027.78 560.961 1027.34 561.171C1026.92 561.358 1026.33 561.474 1025.59 561.521C1024.86 561.568 1023.96 561.591 1022.89 561.591C1022.87 561.264 1022.77 560.879 1022.61 560.436C1022.47 559.993 1022.31 559.619 1022.12 559.316C1022.91 559.339 1023.64 559.351 1024.29 559.351C1024.97 559.351 1025.42 559.351 1025.66 559.351C1025.89 559.351 1026.04 559.304 1026.11 559.211C1026.2 559.118 1026.25 558.954 1026.25 558.721V533.521ZM1024.89 549.026L1027.02 549.621C1026.34 551.021 1025.52 552.386 1024.54 553.716C1023.56 555.023 1022.49 556.236 1021.35 557.356C1020.23 558.476 1019.08 559.468 1017.89 560.331C1017.79 560.168 1017.65 559.969 1017.47 559.736C1017.3 559.503 1017.12 559.269 1016.91 559.036C1016.72 558.803 1016.54 558.616 1016.38 558.476C1017.5 557.729 1018.6 556.866 1019.67 555.886C1020.74 554.883 1021.72 553.798 1022.61 552.631C1023.52 551.464 1024.28 550.263 1024.89 549.026ZM1029.68 537.336H1040.6V539.751H1029.68V537.336ZM1035.98 529.846H1038.4V558.581C1038.4 559.304 1038.3 559.864 1038.12 560.261C1037.93 560.658 1037.6 560.961 1037.14 561.171C1036.67 561.381 1036.04 561.509 1035.25 561.556C1034.45 561.603 1033.5 561.626 1032.38 561.626C1032.31 561.299 1032.19 560.903 1032.03 560.436C1031.86 559.969 1031.69 559.561 1031.5 559.211C1032.36 559.234 1033.16 559.246 1033.88 559.246C1034.6 559.269 1035.08 559.269 1035.32 559.246C1035.57 559.223 1035.75 559.164 1035.84 559.071C1035.93 558.978 1035.98 558.814 1035.98 558.581V529.846ZM1029.79 543.146L1031.82 542.586C1032.21 543.449 1032.6 544.371 1032.97 545.351C1033.34 546.331 1033.67 547.288 1033.95 548.221C1034.23 549.131 1034.42 549.936 1034.51 550.636L1032.38 551.336C1032.26 550.636 1032.07 549.819 1031.82 548.886C1031.56 547.953 1031.26 546.984 1030.91 545.981C1030.56 544.954 1030.18 544.009 1029.79 543.146ZM1017.01 547.976H1027.48V550.216H1017.01V547.976ZM1012.43 560.856C1012.36 560.646 1012.23 560.424 1012.04 560.191C1011.85 559.958 1011.66 559.724 1011.45 559.491C1011.26 559.258 1011.08 559.071 1010.92 558.931C1011.22 558.674 1011.59 558.231 1012.01 557.601C1012.43 556.971 1012.64 556.236 1012.64 555.396V540.591H1015.02V557.496C1015.02 557.496 1014.88 557.624 1014.6 557.881C1014.34 558.114 1014.04 558.418 1013.69 558.791C1013.36 559.164 1013.07 559.538 1012.81 559.911C1012.55 560.284 1012.43 560.599 1012.43 560.856ZM1045.12 531.841L1046.9 530.476C1047.46 531.013 1048.03 531.619 1048.62 532.296C1049.2 532.949 1049.75 533.603 1050.26 534.256C1050.77 534.886 1051.18 535.446 1051.49 535.936L1049.63 537.581C1049.33 537.044 1048.92 536.449 1048.41 535.796C1047.92 535.119 1047.38 534.443 1046.8 533.766C1046.24 533.066 1045.68 532.424 1045.12 531.841ZM1047.43 560.856L1046.97 558.616L1047.64 557.426L1053.1 552.841C1053.17 553.168 1053.27 553.553 1053.41 553.996C1053.55 554.416 1053.67 554.743 1053.76 554.976C1052.48 556.096 1051.44 557.006 1050.65 557.706C1049.88 558.383 1049.27 558.919 1048.83 559.316C1048.41 559.736 1048.09 560.051 1047.88 560.261C1047.69 560.494 1047.54 560.693 1047.43 560.856ZM1043.61 540.591H1049.35V543.111H1043.61V540.591ZM1055.48 538.246H1062.48V540.206H1055.48V538.246ZM1055.44 542.936H1062.48V544.896H1055.44V542.936ZM1058.21 529.566L1060.8 530.056C1060.47 530.919 1060.12 531.818 1059.75 532.751C1059.37 533.661 1059.03 534.443 1058.73 535.096L1056.84 534.606C1057.1 533.883 1057.35 533.054 1057.61 532.121C1057.89 531.164 1058.09 530.313 1058.21 529.566ZM1054.04 533.521H1062.06V535.656H1056.25V549.306H1054.04V533.521ZM1061.25 533.521H1063.49V558.756C1063.49 559.386 1063.41 559.888 1063.25 560.261C1063.08 560.658 1062.78 560.961 1062.34 561.171C1061.92 561.358 1061.33 561.474 1060.59 561.521C1059.86 561.568 1058.96 561.591 1057.89 561.591C1057.87 561.264 1057.77 560.879 1057.61 560.436C1057.47 559.993 1057.31 559.619 1057.12 559.316C1057.91 559.339 1058.64 559.351 1059.29 559.351C1059.97 559.351 1060.42 559.351 1060.66 559.351C1060.89 559.351 1061.04 559.304 1061.11 559.211C1061.2 559.118 1061.25 558.954 1061.25 558.721V533.521ZM1059.89 549.026L1062.02 549.621C1061.34 551.021 1060.52 552.386 1059.54 553.716C1058.56 555.023 1057.49 556.236 1056.35 557.356C1055.23 558.476 1054.08 559.468 1052.89 560.331C1052.79 560.168 1052.65 559.969 1052.47 559.736C1052.3 559.503 1052.12 559.269 1051.91 559.036C1051.72 558.803 1051.54 558.616 1051.38 558.476C1052.5 557.729 1053.6 556.866 1054.67 555.886C1055.74 554.883 1056.72 553.798 1057.61 552.631C1058.52 551.464 1059.28 550.263 1059.89 549.026ZM1064.68 537.336H1075.6V539.751H1064.68V537.336ZM1070.98 529.846H1073.4V558.581C1073.4 559.304 1073.3 559.864 1073.12 560.261C1072.93 560.658 1072.6 560.961 1072.14 561.171C1071.67 561.381 1071.04 561.509 1070.25 561.556C1069.45 561.603 1068.5 561.626 1067.38 561.626C1067.31 561.299 1067.19 560.903 1067.03 560.436C1066.86 559.969 1066.69 559.561 1066.5 559.211C1067.36 559.234 1068.16 559.246 1068.88 559.246C1069.6 559.269 1070.08 559.269 1070.32 559.246C1070.57 559.223 1070.75 559.164 1070.84 559.071C1070.93 558.978 1070.98 558.814 1070.98 558.581V529.846ZM1064.79 543.146L1066.82 542.586C1067.21 543.449 1067.6 544.371 1067.97 545.351C1068.34 546.331 1068.67 547.288 1068.95 548.221C1069.23 549.131 1069.42 549.936 1069.51 550.636L1067.38 551.336C1067.26 550.636 1067.07 549.819 1066.82 548.886C1066.56 547.953 1066.26 546.984 1065.91 545.981C1065.56 544.954 1065.18 544.009 1064.79 543.146ZM1052.01 547.976H1062.48V550.216H1052.01V547.976ZM1047.43 560.856C1047.36 560.646 1047.23 560.424 1047.04 560.191C1046.85 559.958 1046.66 559.724 1046.45 559.491C1046.26 559.258 1046.08 559.071 1045.92 558.931C1046.22 558.674 1046.59 558.231 1047.01 557.601C1047.43 556.971 1047.64 556.236 1047.64 555.396V540.591H1050.02V557.496C1050.02 557.496 1049.88 557.624 1049.6 557.881C1049.34 558.114 1049.04 558.418 1048.69 558.791C1048.36 559.164 1048.07 559.538 1047.81 559.911C1047.55 560.284 1047.43 560.599 1047.43 560.856ZM1093.31 529.741L1095.9 530.336C1095.43 532.179 1094.89 533.999 1094.26 535.796C1093.63 537.569 1092.93 539.238 1092.16 540.801C1091.39 542.341 1090.55 543.694 1089.64 544.861C1089.5 544.721 1089.29 544.546 1089.01 544.336C1088.75 544.103 1088.48 543.893 1088.2 543.706C1087.94 543.496 1087.71 543.321 1087.5 543.181C1088.39 542.108 1089.19 540.859 1089.92 539.436C1090.64 537.989 1091.28 536.449 1091.84 534.816C1092.42 533.159 1092.91 531.468 1093.31 529.741ZM1092.72 544.581L1095.27 545.106C1094.92 546.646 1094.48 548.151 1093.94 549.621C1093.4 551.068 1092.81 552.433 1092.16 553.716C1091.53 554.976 1090.85 556.096 1090.13 557.076C1089.96 556.936 1089.74 556.773 1089.46 556.586C1089.18 556.399 1088.9 556.224 1088.62 556.061C1088.34 555.898 1088.1 555.758 1087.89 555.641C1088.96 554.311 1089.9 552.666 1090.72 550.706C1091.56 548.723 1092.23 546.681 1092.72 544.581ZM1092.96 536.356H1108.71V538.806H1091.98L1092.96 536.356ZM1098.42 537.336H1101.01V558.616C1101.01 559.339 1100.92 559.911 1100.73 560.331C1100.54 560.751 1100.22 561.078 1099.75 561.311C1099.26 561.521 1098.63 561.661 1097.86 561.731C1097.11 561.801 1096.19 561.836 1095.1 561.836C1095.03 561.463 1094.9 561.008 1094.71 560.471C1094.55 559.958 1094.36 559.526 1094.15 559.176C1094.99 559.199 1095.75 559.211 1096.43 559.211C1097.13 559.211 1097.59 559.199 1097.83 559.176C1098.04 559.176 1098.19 559.141 1098.28 559.071C1098.37 559.001 1098.42 558.849 1098.42 558.616V537.336ZM1103.53 545.106L1105.91 544.336C1106.59 545.573 1107.22 546.891 1107.8 548.291C1108.38 549.691 1108.9 551.079 1109.34 552.456C1109.78 553.809 1110.1 555.023 1110.29 556.096L1107.77 556.971C1107.6 555.898 1107.3 554.673 1106.86 553.296C1106.44 551.919 1105.93 550.519 1105.35 549.096C1104.79 547.673 1104.18 546.343 1103.53 545.106ZM1107.94 536.356H1108.33L1108.78 536.251L1110.57 536.636C1110.33 537.919 1110.08 539.261 1109.8 540.661C1109.52 542.038 1109.26 543.204 1109.03 544.161L1106.79 543.741C1106.9 543.134 1107.03 542.434 1107.17 541.641C1107.31 540.848 1107.45 540.031 1107.59 539.191C1107.73 538.328 1107.85 537.511 1107.94 536.741V536.356ZM1086.24 529.741L1088.73 530.476C1087.98 532.459 1087.09 534.419 1086.07 536.356C1085.04 538.269 1083.93 540.078 1082.74 541.781C1081.55 543.484 1080.31 544.989 1079.03 546.296C1078.96 546.086 1078.83 545.818 1078.65 545.491C1078.48 545.164 1078.3 544.838 1078.09 544.511C1077.9 544.161 1077.72 543.893 1077.56 543.706C1078.73 542.563 1079.85 541.244 1080.92 539.751C1081.99 538.258 1082.99 536.659 1083.9 534.956C1084.81 533.229 1085.59 531.491 1086.24 529.741ZM1082.6 538.736L1085.09 536.251L1085.12 536.286V561.731H1082.6V538.736ZM1116.59 535.236H1127.23V558.126H1116.59V555.746H1124.81V537.581H1116.59V535.236ZM1115.05 535.236H1117.46V560.891H1115.05V535.236ZM1116.41 544.966H1126.07V547.276H1116.41V544.966ZM1120.4 529.531L1123.24 530.021C1122.89 531.118 1122.5 532.226 1122.08 533.346C1121.68 534.466 1121.31 535.423 1120.96 536.216L1118.83 535.691C1119.04 535.108 1119.23 534.454 1119.42 533.731C1119.63 533.008 1119.82 532.273 1119.98 531.526C1120.17 530.779 1120.31 530.114 1120.4 529.531ZM1132.23 535.131H1142.98V537.546H1132.23V535.131ZM1142.03 535.131H1144.52C1144.52 535.131 1144.52 535.213 1144.52 535.376C1144.52 535.539 1144.52 535.738 1144.52 535.971C1144.52 536.181 1144.5 536.344 1144.48 536.461C1144.34 540.474 1144.2 543.869 1144.06 546.646C1143.94 549.423 1143.79 551.698 1143.61 553.471C1143.42 555.221 1143.2 556.586 1142.94 557.566C1142.71 558.546 1142.42 559.246 1142.07 559.666C1141.67 560.179 1141.25 560.529 1140.81 560.716C1140.39 560.926 1139.86 561.066 1139.23 561.136C1138.65 561.183 1137.88 561.194 1136.92 561.171C1135.99 561.171 1135.02 561.136 1134.02 561.066C1133.99 560.693 1133.9 560.261 1133.74 559.771C1133.6 559.281 1133.4 558.873 1133.14 558.546C1134.31 558.639 1135.36 558.698 1136.29 558.721C1137.25 558.744 1137.94 558.756 1138.36 558.756C1138.71 558.756 1138.99 558.721 1139.2 558.651C1139.43 558.558 1139.65 558.394 1139.86 558.161C1140.14 557.858 1140.39 557.239 1140.6 556.306C1140.83 555.349 1141.03 553.996 1141.19 552.246C1141.35 550.496 1141.51 548.268 1141.65 545.561C1141.79 542.831 1141.91 539.541 1142.03 535.691V535.131ZM1132.93 529.461L1135.45 530.021C1135.03 531.771 1134.52 533.486 1133.91 535.166C1133.33 536.823 1132.67 538.386 1131.95 539.856C1131.25 541.326 1130.5 542.621 1129.71 543.741C1129.55 543.601 1129.33 543.438 1129.05 543.251C1128.79 543.041 1128.52 542.854 1128.24 542.691C1127.96 542.504 1127.72 542.353 1127.51 542.236C1128.32 541.186 1129.07 539.984 1129.75 538.631C1130.42 537.254 1131.03 535.784 1131.57 534.221C1132.1 532.658 1132.56 531.071 1132.93 529.461ZM1131.32 544.196L1133.39 543.041C1134.04 543.858 1134.72 544.756 1135.42 545.736C1136.14 546.716 1136.8 547.661 1137.41 548.571C1138.04 549.481 1138.54 550.286 1138.92 550.986L1136.68 552.386C1136.33 551.663 1135.85 550.834 1135.24 549.901C1134.66 548.944 1134.02 547.976 1133.32 546.996C1132.64 545.993 1131.97 545.059 1131.32 544.196ZM1159.85 529.601L1162.68 530.406C1161.91 531.573 1161.06 532.774 1160.13 534.011C1159.19 535.248 1158.33 536.298 1157.54 537.161L1155.4 536.391C1155.91 535.761 1156.44 535.049 1156.98 534.256C1157.54 533.463 1158.07 532.658 1158.59 531.841C1159.1 531.024 1159.52 530.278 1159.85 529.601ZM1168.25 532.331L1170.28 531.071C1171.35 531.724 1172.45 532.483 1173.57 533.346C1174.71 534.186 1175.78 535.038 1176.79 535.901C1177.79 536.741 1178.61 537.534 1179.24 538.281L1177.03 539.716C1176.45 538.993 1175.67 538.199 1174.69 537.336C1173.71 536.449 1172.66 535.574 1171.54 534.711C1170.42 533.824 1169.32 533.031 1168.25 532.331ZM1150.19 535.691C1151.73 535.644 1153.48 535.609 1155.44 535.586C1157.42 535.563 1159.52 535.528 1161.74 535.481C1163.95 535.411 1166.23 535.341 1168.56 535.271C1170.92 535.201 1173.24 535.131 1175.53 535.061L1175.42 537.266C1172.43 537.383 1169.42 537.499 1166.39 537.616C1163.38 537.709 1160.51 537.803 1157.78 537.896C1155.05 537.966 1152.62 538.024 1150.5 538.071L1150.19 535.691ZM1148.86 540.941H1180.25V543.251H1148.86V540.941ZM1165.52 544.896L1167.62 545.911C1166.73 546.588 1165.7 547.218 1164.54 547.801C1163.39 548.384 1162.19 548.921 1160.93 549.411C1159.67 549.878 1158.46 550.263 1157.29 550.566C1157.1 550.333 1156.86 550.064 1156.56 549.761C1156.28 549.434 1156 549.166 1155.72 548.956C1156.86 548.676 1158.04 548.326 1159.25 547.906C1160.49 547.486 1161.65 547.019 1162.75 546.506C1163.85 545.993 1164.77 545.456 1165.52 544.896ZM1169.16 548.991L1171.26 550.006C1170.14 550.939 1168.79 551.791 1167.23 552.561C1165.67 553.308 1164.01 553.973 1162.26 554.556C1160.51 555.139 1158.77 555.641 1157.05 556.061C1156.86 555.781 1156.63 555.454 1156.35 555.081C1156.09 554.708 1155.83 554.393 1155.58 554.136C1157.21 553.809 1158.88 553.401 1160.58 552.911C1162.31 552.398 1163.92 551.814 1165.41 551.161C1166.9 550.484 1168.15 549.761 1169.16 548.991ZM1173.74 552.946L1176.02 554.031C1174.59 555.501 1172.78 556.761 1170.59 557.811C1168.42 558.838 1165.99 559.689 1163.31 560.366C1160.63 561.066 1157.79 561.614 1154.81 562.011C1154.67 561.661 1154.48 561.276 1154.25 560.856C1154.04 560.459 1153.81 560.109 1153.58 559.806C1156.43 559.503 1159.13 559.059 1161.7 558.476C1164.29 557.869 1166.62 557.111 1168.7 556.201C1170.78 555.291 1172.46 554.206 1173.74 552.946ZM1161.28 536.881L1163.84 537.511C1162.44 540.941 1160.5 543.881 1158.03 546.331C1155.55 548.758 1152.74 550.718 1149.59 552.211C1149.47 552.024 1149.3 551.803 1149.07 551.546C1148.83 551.289 1148.59 551.044 1148.33 550.811C1148.07 550.554 1147.85 550.344 1147.67 550.181C1150.82 548.874 1153.57 547.101 1155.93 544.861C1158.28 542.621 1160.07 539.961 1161.28 536.881ZM1170.07 541.466C1170.84 542.633 1171.8 543.776 1172.97 544.896C1174.14 545.993 1175.42 546.973 1176.82 547.836C1178.22 548.699 1179.61 549.411 1180.99 549.971C1180.8 550.134 1180.59 550.344 1180.36 550.601C1180.15 550.834 1179.94 551.079 1179.73 551.336C1179.54 551.593 1179.38 551.826 1179.24 552.036C1177.81 551.383 1176.38 550.554 1174.93 549.551C1173.51 548.548 1172.18 547.428 1170.94 546.191C1169.73 544.954 1168.7 543.659 1167.86 542.306L1170.07 541.466ZM1191.14 542.306H1207.83V544.756H1191.14V542.306ZM1192.82 534.606H1211.54V537.126H1192.82V534.606ZM1183.89 549.901H1215.22V552.386H1183.89V549.901ZM1206.92 542.306H1209.62C1209.62 542.306 1209.6 542.388 1209.58 542.551C1209.58 542.714 1209.57 542.901 1209.55 543.111C1209.55 543.298 1209.53 543.461 1209.51 543.601C1209.16 547.241 1208.81 550.216 1208.46 552.526C1208.11 554.813 1207.73 556.586 1207.31 557.846C1206.91 559.083 1206.43 559.981 1205.87 560.541C1205.43 560.984 1204.96 561.276 1204.47 561.416C1204 561.579 1203.42 561.696 1202.72 561.766C1202.09 561.789 1201.19 561.789 1200.03 561.766C1198.88 561.743 1197.68 561.696 1196.42 561.626C1196.4 561.229 1196.3 560.786 1196.14 560.296C1195.98 559.806 1195.77 559.374 1195.51 559.001C1196.84 559.141 1198.09 559.223 1199.26 559.246C1200.45 559.269 1201.29 559.281 1201.77 559.281C1202.22 559.281 1202.57 559.258 1202.83 559.211C1203.11 559.164 1203.36 559.048 1203.6 558.861C1204.06 558.441 1204.48 557.636 1204.86 556.446C1205.25 555.256 1205.61 553.553 1205.94 551.336C1206.27 549.119 1206.59 546.273 1206.92 542.796V542.306ZM1192.61 529.531L1195.34 529.811C1195.06 531.164 1194.76 532.599 1194.46 534.116C1194.16 535.633 1193.84 537.149 1193.52 538.666C1193.19 540.183 1192.86 541.618 1192.54 542.971C1192.21 544.324 1191.91 545.526 1191.63 546.576L1188.93 546.331C1189.23 545.258 1189.55 544.033 1189.88 542.656C1190.2 541.279 1190.53 539.833 1190.86 538.316C1191.21 536.776 1191.53 535.259 1191.84 533.766C1192.14 532.273 1192.4 530.861 1192.61 529.531ZM1233.35 550.531L1232.65 536.951L1232.58 532.821H1236.43L1236.36 536.951L1235.66 550.531H1233.35ZM1234.5 559.176C1233.87 559.176 1233.33 558.966 1232.89 558.546C1232.47 558.126 1232.26 557.566 1232.26 556.866C1232.26 556.166 1232.48 555.606 1232.93 555.186C1233.37 554.743 1233.89 554.521 1234.5 554.521C1235.11 554.521 1235.63 554.743 1236.08 555.186C1236.52 555.606 1236.74 556.166 1236.74 556.866C1236.74 557.566 1236.52 558.126 1236.08 558.546C1235.63 558.966 1235.11 559.176 1234.5 559.176ZM1268.31 529.741L1270.9 530.336C1270.43 532.179 1269.89 533.999 1269.26 535.796C1268.63 537.569 1267.93 539.238 1267.16 540.801C1266.39 542.341 1265.55 543.694 1264.64 544.861C1264.5 544.721 1264.29 544.546 1264.01 544.336C1263.75 544.103 1263.48 543.893 1263.2 543.706C1262.94 543.496 1262.71 543.321 1262.5 543.181C1263.39 542.108 1264.19 540.859 1264.92 539.436C1265.64 537.989 1266.28 536.449 1266.84 534.816C1267.42 533.159 1267.91 531.468 1268.31 529.741ZM1267.72 544.581L1270.27 545.106C1269.92 546.646 1269.48 548.151 1268.94 549.621C1268.4 551.068 1267.81 552.433 1267.16 553.716C1266.53 554.976 1265.85 556.096 1265.13 557.076C1264.96 556.936 1264.74 556.773 1264.46 556.586C1264.18 556.399 1263.9 556.224 1263.62 556.061C1263.34 555.898 1263.1 555.758 1262.89 555.641C1263.96 554.311 1264.9 552.666 1265.72 550.706C1266.56 548.723 1267.23 546.681 1267.72 544.581ZM1267.96 536.356H1283.71V538.806H1266.98L1267.96 536.356ZM1273.42 537.336H1276.01V558.616C1276.01 559.339 1275.92 559.911 1275.73 560.331C1275.54 560.751 1275.22 561.078 1274.75 561.311C1274.26 561.521 1273.63 561.661 1272.86 561.731C1272.11 561.801 1271.19 561.836 1270.1 561.836C1270.03 561.463 1269.9 561.008 1269.71 560.471C1269.55 559.958 1269.36 559.526 1269.15 559.176C1269.99 559.199 1270.75 559.211 1271.43 559.211C1272.13 559.211 1272.59 559.199 1272.83 559.176C1273.04 559.176 1273.19 559.141 1273.28 559.071C1273.37 559.001 1273.42 558.849 1273.42 558.616V537.336ZM1278.53 545.106L1280.91 544.336C1281.59 545.573 1282.22 546.891 1282.8 548.291C1283.38 549.691 1283.9 551.079 1284.34 552.456C1284.78 553.809 1285.1 555.023 1285.29 556.096L1282.77 556.971C1282.6 555.898 1282.3 554.673 1281.86 553.296C1281.44 551.919 1280.93 550.519 1280.35 549.096C1279.79 547.673 1279.18 546.343 1278.53 545.106ZM1282.94 536.356H1283.33L1283.78 536.251L1285.57 536.636C1285.33 537.919 1285.08 539.261 1284.8 540.661C1284.52 542.038 1284.26 543.204 1284.03 544.161L1281.79 543.741C1281.9 543.134 1282.03 542.434 1282.17 541.641C1282.31 540.848 1282.45 540.031 1282.59 539.191C1282.73 538.328 1282.85 537.511 1282.94 536.741V536.356ZM1261.24 529.741L1263.73 530.476C1262.98 532.459 1262.09 534.419 1261.07 536.356C1260.04 538.269 1258.93 540.078 1257.74 541.781C1256.55 543.484 1255.31 544.989 1254.03 546.296C1253.96 546.086 1253.83 545.818 1253.65 545.491C1253.48 545.164 1253.3 544.838 1253.09 544.511C1252.9 544.161 1252.72 543.893 1252.56 543.706C1253.73 542.563 1254.85 541.244 1255.92 539.751C1256.99 538.258 1257.99 536.659 1258.9 534.956C1259.81 533.229 1260.59 531.491 1261.24 529.741ZM1257.6 538.736L1260.09 536.251L1260.12 536.286V561.731H1257.6V538.736ZM1307.76 557.531L1309.47 555.851C1310.75 556.294 1312.06 556.773 1313.39 557.286C1314.74 557.776 1316.02 558.266 1317.21 558.756C1318.4 559.246 1319.42 559.689 1320.29 560.086L1318.08 561.871C1317.29 561.451 1316.33 560.996 1315.21 560.506C1314.11 560.016 1312.92 559.514 1311.64 559.001C1310.36 558.488 1309.06 557.998 1307.76 557.531ZM1289 553.016H1320.08V555.256H1289V553.016ZM1289.98 532.541H1319.2V534.781H1289.98V532.541ZM1303.07 529.566H1305.8V538.176H1303.07V529.566ZM1296.8 542.831V545.176H1312.76V542.831H1296.8ZM1296.8 546.856V549.236H1312.76V546.856H1296.8ZM1296.8 538.876V541.151H1312.76V538.876H1296.8ZM1294.25 537.091H1315.42V550.951H1294.25V537.091ZM1299.11 555.921L1301.42 557.426C1300.49 557.986 1299.41 558.546 1298.2 559.106C1296.99 559.666 1295.74 560.179 1294.46 560.646C1293.17 561.136 1291.95 561.544 1290.78 561.871C1290.57 561.614 1290.29 561.299 1289.94 560.926C1289.59 560.553 1289.28 560.249 1289 560.016C1290.16 559.689 1291.39 559.304 1292.67 558.861C1293.95 558.418 1295.17 557.939 1296.31 557.426C1297.45 556.913 1298.39 556.411 1299.11 555.921ZM1336.21 533.101H1354.76V535.306H1336.21V533.101ZM1336.49 554.556H1353.96V556.796H1336.49V554.556ZM1339.26 549.481H1351.26V551.581H1339.26V549.481ZM1337.3 537.966H1353.82V540.066H1337.3V537.966ZM1334.81 542.901H1355.64V545.141H1334.81V542.901ZM1343.98 546.506H1346.43V561.871H1343.98V546.506ZM1348.6 538.806C1349.09 540.393 1349.71 541.956 1350.46 543.496C1351.23 545.013 1352.1 546.389 1353.08 547.626C1354.06 548.863 1355.1 549.854 1356.2 550.601C1355.92 550.811 1355.61 551.114 1355.29 551.511C1354.96 551.884 1354.69 552.234 1354.48 552.561C1353.31 551.651 1352.23 550.508 1351.23 549.131C1350.22 547.754 1349.32 546.226 1348.53 544.546C1347.74 542.866 1347.07 541.139 1346.54 539.366L1348.6 538.806ZM1323.82 537.196H1335.2V539.646H1323.82V537.196ZM1328.72 529.601H1331.14V561.766H1328.72V529.601ZM1328.65 538.666L1330.3 539.191C1330.02 540.591 1329.67 542.038 1329.25 543.531C1328.85 545.024 1328.39 546.494 1327.88 547.941C1327.37 549.388 1326.82 550.729 1326.24 551.966C1325.65 553.203 1325.05 554.264 1324.42 555.151C1324.3 554.801 1324.1 554.416 1323.82 553.996C1323.54 553.553 1323.3 553.179 1323.09 552.876C1323.67 552.083 1324.24 551.138 1324.8 550.041C1325.36 548.944 1325.89 547.754 1326.38 546.471C1326.87 545.188 1327.31 543.881 1327.71 542.551C1328.1 541.198 1328.42 539.903 1328.65 538.666ZM1330.96 541.291C1331.17 541.524 1331.46 541.921 1331.84 542.481C1332.23 543.018 1332.66 543.613 1333.13 544.266C1333.62 544.919 1334.05 545.526 1334.43 546.086C1334.82 546.623 1335.09 547.008 1335.23 547.241L1333.8 549.201C1333.61 548.804 1333.34 548.291 1332.99 547.661C1332.64 547.031 1332.26 546.378 1331.84 545.701C1331.44 545.001 1331.04 544.359 1330.65 543.776C1330.27 543.169 1329.98 542.703 1329.77 542.376L1330.96 541.291ZM1342.62 529.846H1345V531.421C1345 532.564 1344.93 533.836 1344.79 535.236C1344.67 536.613 1344.42 538.059 1344.05 539.576C1343.68 541.069 1343.12 542.586 1342.37 544.126C1341.65 545.666 1340.68 547.183 1339.47 548.676C1338.28 550.169 1336.79 551.569 1335.02 552.876C1334.88 552.689 1334.69 552.491 1334.46 552.281C1334.25 552.048 1334.03 551.826 1333.8 551.616C1333.59 551.383 1333.39 551.208 1333.2 551.091C1334.9 549.878 1336.33 548.583 1337.47 547.206C1338.61 545.829 1339.52 544.429 1340.2 543.006C1340.88 541.583 1341.39 540.183 1341.74 538.806C1342.09 537.429 1342.32 536.111 1342.44 534.851C1342.56 533.591 1342.62 532.436 1342.62 531.386V529.846ZM1373.35 550.531L1372.65 536.951L1372.58 532.821H1376.43L1376.36 536.951L1375.66 550.531H1373.35ZM1374.5 559.176C1373.87 559.176 1373.33 558.966 1372.89 558.546C1372.47 558.126 1372.26 557.566 1372.26 556.866C1372.26 556.166 1372.48 555.606 1372.93 555.186C1373.37 554.743 1373.89 554.521 1374.5 554.521C1375.11 554.521 1375.63 554.743 1376.08 555.186C1376.52 555.606 1376.74 556.166 1376.74 556.866C1376.74 557.566 1376.52 558.126 1376.08 558.546C1375.63 558.966 1375.11 559.176 1374.5 559.176Z" fill="#747474"/>
<g filter="url(#filter1_d_3_291)">
<path d="M405 803V894H322L405 803Z" fill="white"/>
</g>
<rect x="457" y="698.001" width="1453" height="367" rx="30" fill="#DAFFE4"/>
<path d="M540.699 922.001V918.024L553.004 905.275C554.318 903.89 555.401 902.677 556.253 901.635C557.117 900.582 557.762 899.581 558.188 898.634C558.615 897.688 558.828 896.681 558.828 895.616C558.828 894.409 558.544 893.367 557.975 892.491C557.407 891.603 556.632 890.923 555.649 890.449C554.667 889.964 553.56 889.721 552.329 889.721C551.027 889.721 549.891 889.987 548.92 890.52C547.949 891.053 547.204 891.804 546.683 892.775C546.162 893.746 545.901 894.882 545.901 896.184H540.664C540.664 893.971 541.173 892.035 542.191 890.378C543.209 888.721 544.605 887.437 546.381 886.525C548.156 885.602 550.175 885.14 552.436 885.14C554.72 885.14 556.732 885.596 558.472 886.507C560.224 887.407 561.592 888.638 562.574 890.201C563.557 891.751 564.048 893.503 564.048 895.456C564.048 896.806 563.793 898.126 563.284 899.416C562.787 900.706 561.917 902.144 560.674 903.73C559.431 905.305 557.703 907.216 555.49 909.465L548.263 917.029V917.296H564.634V922.001H540.699ZM569.818 914.899V910.46L585.532 885.637H589.03V892.171H586.811L575.571 909.963V910.247H597.109V914.899H569.818ZM587.059 922.001V913.549L587.095 911.525V885.637H592.297V922.001H587.059ZM622.999 880.701H627.049V920.801C627.049 922.168 626.849 923.184 626.449 923.851C626.049 924.518 625.399 925.001 624.499 925.301C623.565 925.601 622.299 925.801 620.699 925.901C619.132 926.001 617.182 926.034 614.849 926.001C614.782 925.668 614.649 925.251 614.449 924.751C614.282 924.284 614.099 923.818 613.899 923.351C613.699 922.884 613.499 922.468 613.299 922.101C614.532 922.134 615.715 922.151 616.849 922.151C617.982 922.184 618.965 922.184 619.799 922.151C620.665 922.151 621.265 922.151 621.599 922.151C622.099 922.118 622.449 922.018 622.649 921.851C622.882 921.651 622.999 921.301 622.999 920.801V880.701ZM635.049 893.451L638.649 892.101C640.149 894.434 641.565 896.934 642.899 899.601C644.232 902.268 645.399 904.884 646.399 907.451C647.432 910.018 648.165 912.301 648.599 914.301L644.549 915.951C644.182 913.951 643.515 911.668 642.549 909.101C641.615 906.501 640.482 903.851 639.149 901.151C637.849 898.418 636.482 895.851 635.049 893.451ZM609.899 892.451L614.099 893.151C613.532 895.584 612.832 898.151 611.999 900.851C611.165 903.518 610.165 906.101 608.999 908.601C607.832 911.068 606.482 913.234 604.949 915.101C604.649 914.868 604.282 914.634 603.849 914.401C603.449 914.134 603.015 913.884 602.549 913.651C602.115 913.418 601.732 913.234 601.399 913.101C602.899 911.334 604.199 909.268 605.299 906.901C606.399 904.534 607.332 902.101 608.099 899.601C608.899 897.068 609.499 894.684 609.899 892.451ZM655.699 884.201H669.499V916.701H655.699V913.301H665.999V887.601H655.699V884.201ZM655.849 898.551H667.299V901.901H655.849V898.551ZM653.849 884.201H657.449V920.751H653.849V884.201ZM671.799 890.001H697.899V893.751H671.799V890.001ZM687.999 880.251H691.799V920.351C691.799 921.718 691.599 922.718 691.199 923.351C690.832 924.018 690.199 924.501 689.299 924.801C688.399 925.134 687.132 925.334 685.499 925.401C683.865 925.468 681.799 925.501 679.299 925.501C679.199 924.968 679.015 924.318 678.749 923.551C678.482 922.818 678.199 922.184 677.899 921.651C679.232 921.684 680.482 921.718 681.649 921.751C682.849 921.784 683.882 921.801 684.749 921.801C685.615 921.768 686.232 921.734 686.599 921.701C687.099 921.701 687.449 921.601 687.649 921.401C687.882 921.201 687.999 920.851 687.999 920.351V880.251ZM673.499 899.401L676.599 897.751C677.499 899.018 678.449 900.384 679.449 901.851C680.449 903.318 681.382 904.734 682.249 906.101C683.149 907.468 683.882 908.668 684.449 909.701L681.149 911.601C680.615 910.568 679.915 909.351 679.049 907.951C678.215 906.518 677.299 905.051 676.299 903.551C675.332 902.051 674.399 900.668 673.499 899.401ZM722.399 900.301L725.199 898.251C726.465 899.351 727.799 900.551 729.199 901.851C730.599 903.118 731.965 904.418 733.299 905.751C734.632 907.051 735.882 908.318 737.049 909.551C738.215 910.751 739.199 911.834 739.999 912.801L736.899 915.251C736.132 914.251 735.182 913.134 734.049 911.901C732.949 910.668 731.732 909.368 730.399 908.001C729.099 906.634 727.749 905.301 726.349 904.001C724.982 902.668 723.665 901.434 722.399 900.301ZM722.949 880.001H726.749V889.801C726.749 891.401 726.649 893.084 726.449 894.851C726.282 896.618 725.932 898.418 725.399 900.251C724.899 902.084 724.115 903.918 723.049 905.751C722.015 907.584 720.632 909.351 718.899 911.051C717.165 912.751 715.015 914.368 712.449 915.901C712.282 915.601 712.032 915.284 711.699 914.951C711.399 914.618 711.065 914.268 710.699 913.901C710.365 913.534 710.049 913.251 709.749 913.051C712.249 911.718 714.315 910.284 715.949 908.751C717.582 907.184 718.865 905.584 719.799 903.951C720.765 902.284 721.465 900.634 721.899 899.001C722.332 897.368 722.615 895.768 722.749 894.201C722.882 892.634 722.949 891.151 722.949 889.751V880.001ZM704.749 888.551H742.949V892.251H708.449V926.101H704.749V888.551ZM741.249 888.551H744.949V921.051C744.949 922.284 744.782 923.218 744.449 923.851C744.115 924.518 743.532 925.018 742.699 925.351C741.799 925.651 740.565 925.818 738.999 925.851C737.465 925.918 735.582 925.951 733.349 925.951C733.282 925.584 733.182 925.168 733.049 924.701C732.915 924.268 732.765 923.818 732.599 923.351C732.432 922.884 732.249 922.484 732.049 922.151C733.249 922.184 734.382 922.201 735.449 922.201C736.549 922.234 737.499 922.251 738.299 922.251C739.132 922.251 739.699 922.251 739.999 922.251C740.499 922.218 740.832 922.118 740.999 921.951C741.165 921.751 741.249 921.434 741.249 921.001V888.551ZM774.099 917.401L776.449 915.951C777.315 916.751 778.182 917.634 779.049 918.601C779.949 919.568 780.782 920.518 781.549 921.451C782.349 922.384 782.982 923.218 783.449 923.951L780.999 925.651C780.532 924.918 779.915 924.068 779.149 923.101C778.415 922.134 777.599 921.151 776.699 920.151C775.832 919.151 774.965 918.234 774.099 917.401ZM765.399 882.901H782.249V914.151H779.199V885.801H768.349V914.301H765.399V882.901ZM793.149 880.651H796.249V921.651C796.249 922.684 796.099 923.468 795.799 924.001C795.532 924.534 795.099 924.934 794.499 925.201C793.832 925.468 792.949 925.634 791.849 925.701C790.749 925.801 789.315 925.834 787.549 925.801C787.482 925.401 787.332 924.884 787.099 924.251C786.899 923.651 786.682 923.118 786.449 922.651C787.782 922.684 788.965 922.701 789.999 922.701C791.065 922.701 791.782 922.684 792.149 922.651C792.815 922.651 793.149 922.318 793.149 921.651V880.651ZM786.299 884.501H789.299V914.451H786.299V884.501ZM772.099 889.351H774.999V907.101C774.999 908.768 774.865 910.468 774.599 912.201C774.365 913.934 773.882 915.634 773.149 917.301C772.449 918.968 771.399 920.534 769.999 922.001C768.632 923.468 766.832 924.768 764.599 925.901C764.499 925.701 764.332 925.451 764.099 925.151C763.865 924.851 763.632 924.551 763.399 924.251C763.165 923.951 762.949 923.734 762.749 923.601C764.815 922.534 766.465 921.368 767.699 920.101C768.965 918.801 769.915 917.434 770.549 916.001C771.182 914.568 771.599 913.101 771.799 911.601C771.999 910.068 772.099 908.551 772.099 907.051V889.351ZM753.849 883.201L756.099 880.551C756.999 881.018 757.965 881.568 758.999 882.201C760.032 882.801 761.015 883.418 761.949 884.051C762.882 884.651 763.649 885.201 764.249 885.701L761.949 888.751C761.382 888.218 760.632 887.618 759.699 886.951C758.799 886.284 757.832 885.634 756.799 885.001C755.765 884.334 754.782 883.734 753.849 883.201ZM751.699 896.701L753.849 894.001C754.782 894.468 755.749 895.001 756.749 895.601C757.782 896.201 758.782 896.801 759.749 897.401C760.715 897.968 761.515 898.501 762.149 899.001L759.899 902.001C759.332 901.501 758.565 900.934 757.599 900.301C756.665 899.668 755.682 899.034 754.649 898.401C753.615 897.768 752.632 897.201 751.699 896.701ZM752.699 923.351C753.399 922.051 754.132 920.518 754.899 918.751C755.699 916.984 756.499 915.118 757.299 913.151C758.099 911.151 758.832 909.234 759.499 907.401L762.499 909.351C761.899 911.084 761.232 912.901 760.499 914.801C759.799 916.668 759.065 918.518 758.299 920.351C757.532 922.151 756.799 923.818 756.099 925.351L752.699 923.351ZM805.799 883.251L808.299 880.951C809.165 881.651 810.065 882.434 810.999 883.301C811.932 884.168 812.815 885.018 813.649 885.851C814.482 886.684 815.149 887.434 815.649 888.101L813.049 890.701C812.549 890.001 811.882 889.218 811.049 888.351C810.249 887.484 809.382 886.601 808.449 885.701C807.549 884.801 806.665 883.984 805.799 883.251ZM808.749 924.701L808.149 921.351L809.299 919.801L818.349 913.951C818.482 914.451 818.632 915.018 818.799 915.651C818.999 916.251 819.199 916.751 819.399 917.151C817.232 918.584 815.499 919.751 814.199 920.651C812.899 921.551 811.882 922.251 811.149 922.751C810.415 923.251 809.882 923.651 809.549 923.951C809.215 924.251 808.949 924.501 808.749 924.701ZM802.299 895.701H811.199V899.301H802.299V895.701ZM817.099 890.401H847.749V894.001H817.099V890.401ZM818.699 901.301H832.099V904.801H818.699V901.301ZM823.949 903.251H827.399V918.501L823.949 918.901V903.251ZM817.799 918.951C819.732 918.451 822.065 917.834 824.799 917.101C827.565 916.334 830.382 915.551 833.249 914.751L833.749 918.101C831.115 918.868 828.499 919.634 825.899 920.401C823.299 921.168 820.949 921.868 818.849 922.501L817.799 918.951ZM838.649 882.201L841.249 880.601C842.282 881.668 843.332 882.851 844.399 884.151C845.465 885.451 846.265 886.601 846.799 887.601L844.049 889.451C843.549 888.451 842.782 887.268 841.749 885.901C840.715 884.534 839.682 883.301 838.649 882.201ZM833.349 880.251H837.149C837.149 884.651 837.249 888.868 837.449 892.901C837.649 896.901 837.915 900.601 838.249 904.001C838.582 907.368 838.982 910.318 839.449 912.851C839.949 915.384 840.515 917.351 841.149 918.751C841.815 920.151 842.549 920.884 843.349 920.951C843.782 920.951 844.149 920.284 844.449 918.951C844.749 917.584 844.982 915.684 845.149 913.251C845.382 913.484 845.682 913.751 846.049 914.051C846.449 914.318 846.832 914.568 847.199 914.801C847.599 915.001 847.915 915.168 848.149 915.301C847.882 917.401 847.565 919.151 847.199 920.551C846.865 921.918 846.482 922.984 846.049 923.751C845.615 924.518 845.149 925.051 844.649 925.351C844.182 925.684 843.715 925.851 843.249 925.851C841.749 925.784 840.449 925.001 839.349 923.501C838.282 922.034 837.382 919.951 836.649 917.251C835.915 914.518 835.315 911.284 834.849 907.551C834.415 903.784 834.082 899.601 833.849 895.001C833.615 890.401 833.449 885.484 833.349 880.251ZM808.749 924.701C808.615 924.401 808.432 924.034 808.199 923.601C807.999 923.201 807.782 922.801 807.549 922.401C807.315 922.001 807.082 921.684 806.849 921.451C807.315 921.151 807.832 920.651 808.399 919.951C808.965 919.251 809.249 918.368 809.249 917.301V895.701H812.799V920.551C812.799 920.551 812.649 920.651 812.349 920.851C812.082 921.051 811.749 921.318 811.349 921.651C810.949 921.951 810.549 922.284 810.149 922.651C809.749 923.018 809.415 923.368 809.149 923.701C808.882 924.068 808.749 924.401 808.749 924.701ZM852.949 912.801C852.915 912.534 852.815 912.184 852.649 911.751C852.482 911.284 852.315 910.818 852.149 910.351C852.015 909.884 851.865 909.484 851.699 909.151C852.265 909.051 852.865 908.718 853.499 908.151C854.132 907.551 854.849 906.801 855.649 905.901C856.082 905.468 856.715 904.734 857.549 903.701C858.415 902.668 859.365 901.451 860.399 900.051C861.432 898.651 862.482 897.134 863.549 895.501C864.615 893.868 865.599 892.218 866.499 890.551L869.949 892.651C867.815 895.984 865.515 899.234 863.049 902.401C860.582 905.568 858.099 908.351 855.599 910.751V910.851C855.599 910.851 855.465 910.918 855.199 911.051C854.932 911.151 854.615 911.301 854.249 911.501C853.915 911.701 853.615 911.918 853.349 912.151C853.082 912.384 852.949 912.601 852.949 912.801ZM852.949 912.801L852.799 909.651L854.749 908.351L869.699 905.901C869.665 906.401 869.665 906.984 869.699 907.651C869.765 908.284 869.832 908.801 869.899 909.201C866.399 909.834 863.582 910.351 861.449 910.751C859.349 911.151 857.732 911.468 856.599 911.701C855.499 911.934 854.682 912.134 854.149 912.301C853.649 912.468 853.249 912.634 852.949 912.801ZM852.599 900.651C852.532 900.384 852.415 900.018 852.249 899.551C852.115 899.084 851.965 898.618 851.799 898.151C851.632 897.651 851.465 897.234 851.299 896.901C851.765 896.801 852.232 896.484 852.699 895.951C853.165 895.418 853.649 894.751 854.149 893.951C854.449 893.551 854.865 892.901 855.399 892.001C855.932 891.068 856.532 889.968 857.199 888.701C857.865 887.434 858.515 886.084 859.149 884.651C859.815 883.218 860.399 881.768 860.899 880.301L864.749 881.901C863.882 883.901 862.915 885.901 861.849 887.901C860.815 889.868 859.732 891.768 858.599 893.601C857.465 895.401 856.315 897.034 855.149 898.501V898.601C855.149 898.601 855.015 898.668 854.749 898.801C854.515 898.934 854.215 899.118 853.849 899.351C853.515 899.551 853.215 899.768 852.949 900.001C852.715 900.234 852.599 900.451 852.599 900.651ZM852.599 900.651L852.549 897.851L854.449 896.651L864.999 895.751C864.899 896.218 864.815 896.751 864.749 897.351C864.682 897.951 864.649 898.451 864.649 898.851C862.282 899.118 860.349 899.351 858.849 899.551C857.349 899.718 856.182 899.868 855.349 900.001C854.549 900.134 853.949 900.251 853.549 900.351C853.149 900.451 852.832 900.551 852.599 900.651ZM851.549 919.351C853.115 919.084 854.882 918.768 856.849 918.401C858.849 918.001 860.949 917.584 863.149 917.151C865.382 916.684 867.599 916.234 869.799 915.801L870.099 919.251C866.965 919.984 863.815 920.684 860.649 921.351C857.515 922.018 854.699 922.634 852.199 923.201L851.549 919.351ZM870.199 886.701H896.949V890.301H870.199V886.701ZM871.449 898.101H896.099V901.701H871.449V898.101ZM874.799 920.401H892.899V923.801H874.799V920.401ZM881.749 879.951H885.599V899.951H881.749V879.951ZM872.749 906.801H894.849V925.751H891.099V910.201H876.399V925.951H872.749V906.801ZM902.899 906.551H946.749V910.001H902.899V906.551ZM922.849 883.651H926.799V926.001H922.849V883.651ZM921.499 908.001L924.649 909.401C923.082 911.501 921.182 913.518 918.949 915.451C916.715 917.384 914.315 919.118 911.749 920.651C909.215 922.151 906.699 923.384 904.199 924.351C903.999 924.051 903.749 923.701 903.449 923.301C903.149 922.901 902.832 922.518 902.499 922.151C902.199 921.818 901.899 921.518 901.599 921.251C903.465 920.651 905.349 919.884 907.249 918.951C909.149 918.018 910.982 916.968 912.749 915.801C914.549 914.634 916.182 913.384 917.649 912.051C919.149 910.718 920.432 909.368 921.499 908.001ZM927.899 907.851C928.999 909.218 930.315 910.551 931.849 911.851C933.415 913.151 935.099 914.384 936.899 915.551C938.699 916.684 940.549 917.718 942.449 918.651C944.382 919.584 946.249 920.351 948.049 920.951C947.782 921.184 947.482 921.501 947.149 921.901C946.815 922.268 946.499 922.651 946.199 923.051C945.932 923.451 945.699 923.801 945.499 924.101C943.665 923.368 941.782 922.484 939.849 921.451C937.949 920.384 936.082 919.201 934.249 917.901C932.449 916.601 930.749 915.218 929.149 913.751C927.549 912.251 926.149 910.734 924.949 909.201L927.899 907.851ZM911.599 893.851V899.051H938.149V893.851H911.599ZM911.599 885.651V890.751H938.149V885.651H911.599ZM907.749 882.401H942.199V902.301H907.749V882.401ZM954.649 920.551C957.582 920.451 960.982 920.351 964.849 920.251C968.749 920.118 972.882 919.968 977.249 919.801C981.615 919.634 985.965 919.451 990.299 919.251L990.199 922.701C985.999 922.901 981.765 923.101 977.499 923.301C973.232 923.501 969.182 923.668 965.349 923.801C961.515 923.968 958.115 924.118 955.149 924.251L954.649 920.551ZM954.249 905.101H995.699V908.651H954.249V905.101ZM962.799 895.501H986.649V899.001H962.799V895.501ZM967.949 907.351L972.149 908.551C971.382 910.118 970.549 911.784 969.649 913.551C968.782 915.284 967.899 916.968 966.999 918.601C966.132 920.234 965.282 921.684 964.449 922.951L961.149 921.801C961.949 920.501 962.765 919.001 963.599 917.301C964.465 915.601 965.282 913.884 966.049 912.151C966.815 910.384 967.449 908.784 967.949 907.351ZM979.799 912.651L982.999 910.901C984.565 912.201 986.099 913.634 987.599 915.201C989.132 916.768 990.532 918.318 991.799 919.851C993.065 921.384 994.082 922.784 994.849 924.051L991.499 926.151C990.732 924.884 989.715 923.468 988.449 921.901C987.182 920.301 985.799 918.684 984.299 917.051C982.832 915.418 981.332 913.951 979.799 912.651ZM974.599 883.701C973.265 885.701 971.499 887.768 969.299 889.901C967.132 892.001 964.715 894.001 962.049 895.901C959.415 897.801 956.682 899.468 953.849 900.901C953.682 900.568 953.465 900.218 953.199 899.851C952.965 899.484 952.699 899.118 952.399 898.751C952.132 898.384 951.865 898.068 951.599 897.801C954.499 896.434 957.282 894.784 959.949 892.851C962.649 890.884 965.082 888.801 967.249 886.601C969.449 884.368 971.182 882.184 972.449 880.051H976.349C977.682 881.918 979.199 883.718 980.899 885.451C982.599 887.151 984.415 888.751 986.349 890.251C988.282 891.751 990.249 893.101 992.249 894.301C994.282 895.468 996.299 896.451 998.299 897.251C997.865 897.718 997.432 898.268 996.999 898.901C996.599 899.501 996.215 900.068 995.849 900.601C993.282 899.368 990.649 897.851 987.949 896.051C985.282 894.218 982.782 892.234 980.449 890.101C978.115 887.968 976.165 885.834 974.599 883.701ZM1023.3 896.201H1043.85V899.951H1023.3V896.201ZM1002.35 919.851H1047.3V923.601H1002.35V919.851ZM1021.15 880.751H1025.1V921.851H1021.15V880.751ZM1063.1 880.201L1066.65 881.251C1065.55 884.084 1064.27 886.884 1062.8 889.651C1061.33 892.384 1059.75 894.968 1058.05 897.401C1056.35 899.834 1054.6 901.984 1052.8 903.851C1052.67 903.551 1052.48 903.168 1052.25 902.701C1052.02 902.234 1051.75 901.768 1051.45 901.301C1051.18 900.801 1050.93 900.418 1050.7 900.151C1052.33 898.518 1053.92 896.634 1055.45 894.501C1056.98 892.368 1058.4 890.084 1059.7 887.651C1061.03 885.184 1062.17 882.701 1063.1 880.201ZM1057.8 893.051L1061.35 889.451L1061.4 889.501V925.901H1057.8V893.051ZM1073.5 904.751H1092.05V908.251H1073.5V904.751ZM1090.8 904.751H1091.5L1092.1 904.501L1094.75 906.151C1093.58 907.518 1092.27 909.034 1090.8 910.701C1089.33 912.368 1087.82 914.051 1086.25 915.751C1084.72 917.418 1083.23 919.034 1081.8 920.601L1078.7 918.701C1080.13 917.201 1081.62 915.618 1083.15 913.951C1084.68 912.284 1086.12 910.684 1087.45 909.151C1088.82 907.584 1089.93 906.268 1090.8 905.201V904.751ZM1078.45 880.251L1082.15 880.751C1081.58 882.984 1080.97 885.351 1080.3 887.851C1079.63 890.318 1078.95 892.801 1078.25 895.301C1077.55 897.801 1076.87 900.168 1076.2 902.401C1075.53 904.634 1074.92 906.584 1074.35 908.251H1070.35C1070.98 906.484 1071.67 904.451 1072.4 902.151C1073.13 899.851 1073.85 897.434 1074.55 894.901C1075.28 892.368 1075.98 889.851 1076.65 887.351C1077.32 884.818 1077.92 882.451 1078.45 880.251ZM1067.2 885.801H1095.2V889.301H1067.2V885.801ZM1064.35 895.251H1097.5V898.801H1064.35V895.251ZM1073.2 915.751L1075.95 913.451C1077.55 914.418 1079.18 915.484 1080.85 916.651C1082.55 917.818 1084.12 918.968 1085.55 920.101C1087.02 921.234 1088.22 922.268 1089.15 923.201L1086.35 926.001C1085.45 925.034 1084.27 923.934 1082.8 922.701C1081.33 921.501 1079.77 920.284 1078.1 919.051C1076.43 917.818 1074.8 916.718 1073.2 915.751ZM1103.65 883.101H1146.4V886.651H1103.65V883.101ZM1106.9 907.551H1143V911.001H1106.9V907.551ZM1102.5 920.401H1147.2V923.951H1102.5V920.401ZM1122.65 901.301H1126.55V922.901H1122.65V901.301ZM1104.5 896.601C1107.4 896.534 1110.8 896.451 1114.7 896.351C1118.63 896.251 1122.82 896.134 1127.25 896.001C1131.72 895.834 1136.18 895.668 1140.65 895.501L1140.5 898.951C1136.13 899.151 1131.75 899.351 1127.35 899.551C1122.98 899.718 1118.85 899.884 1114.95 900.051C1111.05 900.184 1107.62 900.301 1104.65 900.401L1104.5 896.601ZM1118.2 884.701L1122.45 886.101C1121.72 887.534 1120.92 889.034 1120.05 890.601C1119.22 892.168 1118.37 893.668 1117.5 895.101C1116.63 896.534 1115.8 897.784 1115 898.851L1111.6 897.651C1112.37 896.484 1113.15 895.151 1113.95 893.651C1114.78 892.151 1115.57 890.618 1116.3 889.051C1117.07 887.484 1117.7 886.034 1118.2 884.701ZM1129.4 890.201L1132.45 888.101C1134.12 889.268 1135.85 890.568 1137.65 892.001C1139.45 893.434 1141.13 894.884 1142.7 896.351C1144.3 897.784 1145.58 899.101 1146.55 900.301L1143.25 902.701C1142.32 901.501 1141.08 900.168 1139.55 898.701C1138.02 897.234 1136.35 895.751 1134.55 894.251C1132.78 892.751 1131.07 891.401 1129.4 890.201ZM1163.35 921.401H1189.8V924.351H1163.35V921.401ZM1172.85 890.101H1176.5V895.651H1172.85V890.101ZM1153.9 894.051H1196.1V903.451H1192.45V897.001H1157.45V903.451H1153.9V894.051ZM1163.15 900.101H1188.8V910.151H1163.15V907.301H1185.05V903.001H1163.15V900.101ZM1163.3 913.601H1192V925.951H1188.25V916.551H1163.3V913.601ZM1161.15 900.101H1164.7V926.051H1161.15V900.101ZM1158 883.851H1174.15V886.901H1158V883.851ZM1177.45 883.851H1197.65V886.901H1177.45V883.851ZM1158.95 879.751L1162.45 880.701C1161.55 882.868 1160.4 884.984 1159 887.051C1157.63 889.118 1156.23 890.851 1154.8 892.251C1154.57 892.084 1154.25 891.868 1153.85 891.601C1153.48 891.334 1153.1 891.068 1152.7 890.801C1152.33 890.534 1152 890.334 1151.7 890.201C1153.17 888.901 1154.55 887.334 1155.85 885.501C1157.15 883.634 1158.18 881.718 1158.95 879.751ZM1178.6 879.751L1182.2 880.651C1181.3 882.784 1180.12 884.818 1178.65 886.751C1177.18 888.684 1175.65 890.301 1174.05 891.601C1173.82 891.434 1173.5 891.234 1173.1 891.001C1172.73 890.734 1172.33 890.484 1171.9 890.251C1171.5 890.018 1171.13 889.834 1170.8 889.701C1172.47 888.501 1173.98 887.034 1175.35 885.301C1176.75 883.534 1177.83 881.684 1178.6 879.751ZM1160.75 886.201L1164 885.351C1164.6 886.218 1165.18 887.201 1165.75 888.301C1166.32 889.368 1166.73 890.284 1167 891.051L1163.55 892.051C1163.35 891.284 1162.98 890.351 1162.45 889.251C1161.92 888.118 1161.35 887.101 1160.75 886.201ZM1182 886.251L1185.25 885.251C1186.05 886.118 1186.83 887.101 1187.6 888.201C1188.4 889.268 1189 890.218 1189.4 891.051L1186 892.201C1185.63 891.368 1185.07 890.401 1184.3 889.301C1183.53 888.168 1182.77 887.151 1182 886.251ZM1223.6 895.001V901.451H1242.15V895.001H1223.6ZM1223.6 885.601V891.951H1242.15V885.601H1223.6ZM1220.15 882.301H1245.75V904.701H1220.15V882.301ZM1219.55 910.601H1246.45V914.001H1219.55V910.601ZM1215.7 920.901H1248.15V924.351H1215.7V920.901ZM1202.1 883.351H1217.7V886.901H1202.1V883.351ZM1202.6 897.851H1216.95V901.351H1202.6V897.851ZM1201.55 917.001C1202.92 916.601 1204.45 916.151 1206.15 915.651C1207.88 915.118 1209.7 914.534 1211.6 913.901C1213.53 913.234 1215.47 912.584 1217.4 911.951L1218.05 915.601C1215.35 916.501 1212.63 917.418 1209.9 918.351C1207.17 919.251 1204.7 920.068 1202.5 920.801L1201.55 917.001ZM1208.3 884.751H1211.9V915.751L1208.3 916.451V884.751ZM1231.25 883.851H1234.5V903.101H1234.8V922.451H1230.95V903.101H1231.25V883.851ZM1255.05 883.351H1294.45V887.101H1255.05V883.351ZM1252.4 904.601H1297.25V908.351H1252.4V904.601ZM1258.5 890.501L1261.9 889.501C1262.57 890.701 1263.22 891.984 1263.85 893.351C1264.48 894.718 1265.05 896.068 1265.55 897.401C1266.08 898.701 1266.45 899.834 1266.65 900.801L1263.1 902.051C1262.87 901.051 1262.5 899.901 1262 898.601C1261.53 897.268 1261 895.901 1260.4 894.501C1259.8 893.068 1259.17 891.734 1258.5 890.501ZM1287.55 889.251L1291.5 890.351C1290.9 891.718 1290.23 893.118 1289.5 894.551C1288.8 895.984 1288.1 897.368 1287.4 898.701C1286.7 900.034 1286.02 901.201 1285.35 902.201L1282.1 901.151C1282.73 900.084 1283.38 898.868 1284.05 897.501C1284.75 896.101 1285.4 894.684 1286 893.251C1286.6 891.784 1287.12 890.451 1287.55 889.251ZM1272.75 884.801H1276.65V925.951H1272.75V884.801ZM1310.6 920.151H1338.75V923.751H1310.6V920.151ZM1308.85 904.651H1340.75V925.901H1336.75V908.251H1312.7V926.001H1308.85V904.651ZM1318.9 879.801L1323.05 881.251C1322.05 883.184 1320.93 885.201 1319.7 887.301C1318.5 889.368 1317.28 891.368 1316.05 893.301C1314.82 895.201 1313.63 896.884 1312.5 898.351L1309.2 896.951C1310.33 895.484 1311.5 893.768 1312.7 891.801C1313.9 889.801 1315.03 887.751 1316.1 885.651C1317.2 883.551 1318.13 881.601 1318.9 879.801ZM1330.95 887.901L1333.9 885.751C1335.6 887.084 1337.33 888.584 1339.1 890.251C1340.87 891.884 1342.48 893.551 1343.95 895.251C1345.45 896.918 1346.63 898.434 1347.5 899.801L1344.25 902.301C1343.45 900.934 1342.32 899.401 1340.85 897.701C1339.42 896.001 1337.83 894.301 1336.1 892.601C1334.37 890.868 1332.65 889.301 1330.95 887.901ZM1302.95 895.351C1305.32 895.284 1308.02 895.201 1311.05 895.101C1314.08 894.968 1317.32 894.834 1320.75 894.701C1324.22 894.568 1327.75 894.418 1331.35 894.251C1334.98 894.084 1338.57 893.934 1342.1 893.801L1341.9 897.401C1338.4 897.601 1334.87 897.784 1331.3 897.951C1327.77 898.084 1324.3 898.234 1320.9 898.401C1317.5 898.568 1314.3 898.718 1311.3 898.851C1308.3 898.951 1305.62 899.051 1303.25 899.151L1302.95 895.351ZM1357.65 927.351L1356.55 924.701C1358.58 923.868 1360.13 922.801 1361.2 921.501C1362.3 920.201 1362.85 918.601 1362.85 916.701L1361.95 912.501L1364.65 916.301C1364.28 916.734 1363.87 917.034 1363.4 917.201C1362.93 917.334 1362.47 917.401 1362 917.401C1360.97 917.401 1360.08 917.101 1359.35 916.501C1358.62 915.901 1358.25 915.018 1358.25 913.851C1358.25 912.651 1358.62 911.751 1359.35 911.151C1360.12 910.551 1361.02 910.251 1362.05 910.251C1363.45 910.251 1364.5 910.784 1365.2 911.851C1365.93 912.884 1366.3 914.268 1366.3 916.001C1366.3 918.701 1365.52 921.034 1363.95 923.001C1362.38 924.968 1360.28 926.418 1357.65 927.351ZM1428.45 917.401H1444.05V920.951H1428.45V917.401ZM1426.4 885.401H1446V923.951H1442.25V888.951H1430V924.751H1426.4V885.401ZM1402 890.201H1420.55V893.851H1402V890.201ZM1410.45 879.951L1414.15 880.401C1413.58 882.901 1412.95 885.568 1412.25 888.401C1411.58 891.234 1410.88 894.101 1410.15 897.001C1409.45 899.868 1408.73 902.618 1408 905.251C1407.3 907.851 1406.65 910.184 1406.05 912.251L1402.85 910.701C1403.45 908.801 1404.08 906.584 1404.75 904.051C1405.45 901.518 1406.13 898.851 1406.8 896.051C1407.5 893.251 1408.17 890.468 1408.8 887.701C1409.43 884.934 1409.98 882.351 1410.45 879.951ZM1404.55 908.801L1406.6 906.101C1408.23 906.934 1409.9 907.868 1411.6 908.901C1413.33 909.934 1415 911.018 1416.6 912.151C1418.23 913.284 1419.72 914.418 1421.05 915.551C1422.42 916.684 1423.53 917.768 1424.4 918.801L1422.15 921.951C1421.28 920.918 1420.18 919.834 1418.85 918.701C1417.55 917.534 1416.1 916.368 1414.5 915.201C1412.9 914.001 1411.25 912.868 1409.55 911.801C1407.85 910.701 1406.18 909.701 1404.55 908.801ZM1419.5 890.201H1420.15L1420.8 890.151L1423.15 890.601C1422.62 897.301 1421.58 902.968 1420.05 907.601C1418.52 912.234 1416.48 916.034 1413.95 919.001C1411.45 921.934 1408.45 924.284 1404.95 926.051C1404.72 925.584 1404.38 925.051 1403.95 924.451C1403.52 923.851 1403.1 923.351 1402.7 922.951C1405.87 921.551 1408.62 919.484 1410.95 916.751C1413.32 914.018 1415.22 910.534 1416.65 906.301C1418.08 902.034 1419.03 896.934 1419.5 891.001V890.201ZM1456.5 882.001H1493.05V885.001H1456.5V882.001ZM1453.05 904.201H1496.7V907.251H1453.05V904.201ZM1459.5 893.451H1470.25V895.951H1459.5V893.451ZM1458.4 898.701H1470.3V901.201H1458.4V898.701ZM1479.05 898.701H1491.3V901.251H1479.05V898.701ZM1479.05 893.451H1490.1V895.951H1479.05V893.451ZM1472.85 883.151H1476.45V902.551H1472.85V883.151ZM1467.9 912.801H1471.35V925.601H1467.9V912.801ZM1479 912.801H1482.45V925.601H1479V912.801ZM1453.6 887.951H1496.05V897.501H1492.55V890.701H1457V897.501H1453.6V887.951ZM1456.95 910.801H1491.2V913.901H1460.5V925.901H1456.95V910.801ZM1490.25 910.801H1493.9V922.251C1493.9 923.118 1493.8 923.784 1493.6 924.251C1493.4 924.751 1492.98 925.134 1492.35 925.401C1491.72 925.701 1490.92 925.868 1489.95 925.901C1489.02 925.968 1487.87 926.001 1486.5 926.001C1486.43 925.534 1486.27 925.001 1486 924.401C1485.77 923.834 1485.53 923.318 1485.3 922.851C1486.3 922.884 1487.18 922.901 1487.95 922.901C1488.75 922.901 1489.28 922.884 1489.55 922.851C1489.85 922.851 1490.03 922.801 1490.1 922.701C1490.2 922.601 1490.25 922.434 1490.25 922.201V910.801ZM1472.9 905.301L1476.95 905.501C1476.52 906.834 1476.05 908.151 1475.55 909.451C1475.05 910.718 1474.58 911.818 1474.15 912.751L1470.85 912.401C1471.25 911.401 1471.63 910.234 1472 908.901C1472.4 907.534 1472.7 906.334 1472.9 905.301ZM1514.55 911.101V915.301H1534.8V911.101H1514.55ZM1514.55 904.401V908.501H1534.8V904.401H1514.55ZM1510.85 901.701H1538.7V918.001H1510.85V901.701ZM1502.65 886.351H1547V889.651H1502.65V886.351ZM1522.8 880.001H1526.5V900.151H1522.8V880.001ZM1520.65 887.351L1523.75 888.601C1522.65 890.201 1521.35 891.768 1519.85 893.301C1518.35 894.801 1516.72 896.218 1514.95 897.551C1513.22 898.851 1511.42 900.034 1509.55 901.101C1507.72 902.168 1505.88 903.068 1504.05 903.801C1503.88 903.468 1503.65 903.134 1503.35 902.801C1503.05 902.434 1502.75 902.068 1502.45 901.701C1502.15 901.334 1501.87 901.034 1501.6 900.801C1503.37 900.168 1505.17 899.384 1507 898.451C1508.83 897.484 1510.6 896.418 1512.3 895.251C1514 894.051 1515.57 892.784 1517 891.451C1518.43 890.118 1519.65 888.751 1520.65 887.351ZM1528.6 887.351C1529.6 888.718 1530.82 890.051 1532.25 891.351C1533.72 892.651 1535.32 893.868 1537.05 895.001C1538.78 896.134 1540.58 897.168 1542.45 898.101C1544.32 899.001 1546.17 899.734 1548 900.301C1547.73 900.534 1547.43 900.834 1547.1 901.201C1546.8 901.568 1546.5 901.951 1546.2 902.351C1545.93 902.718 1545.7 903.068 1545.5 903.401C1543.63 902.701 1541.77 901.834 1539.9 900.801C1538.03 899.768 1536.22 898.618 1534.45 897.351C1532.68 896.051 1531.03 894.668 1529.5 893.201C1528 891.701 1526.68 890.168 1525.55 888.601L1528.6 887.351ZM1503.5 921.001H1546.3V924.401H1503.5V921.001ZM1562.8 902.251H1591.95V926.101H1588.2V905.251H1566.4V926.101H1562.8V902.251ZM1552.75 895.651H1596.85V898.751H1552.75V895.651ZM1556.4 888.901H1593.95V891.901H1556.4V888.901ZM1565.2 908.651H1589.75V911.301H1565.2V908.651ZM1565.2 914.801H1589.75V917.401H1565.2V914.801ZM1564.85 921.101H1589.75V924.101H1564.85V921.101ZM1591.1 880.401L1593.5 883.101C1591.17 883.568 1588.52 883.968 1585.55 884.301C1582.58 884.634 1579.45 884.901 1576.15 885.101C1572.85 885.301 1569.52 885.468 1566.15 885.601C1562.78 885.701 1559.55 885.751 1556.45 885.751C1556.42 885.351 1556.32 884.868 1556.15 884.301C1556.02 883.734 1555.87 883.251 1555.7 882.851C1558.73 882.818 1561.9 882.751 1565.2 882.651C1568.53 882.551 1571.8 882.401 1575 882.201C1578.2 882.001 1581.18 881.751 1583.95 881.451C1586.72 881.151 1589.1 880.801 1591.1 880.401ZM1570.6 883.801L1574.5 884.651C1573.37 888.651 1571.9 892.551 1570.1 896.351C1568.33 900.118 1566.12 903.584 1563.45 906.751C1560.78 909.918 1557.58 912.618 1553.85 914.851C1553.68 914.584 1553.45 914.268 1553.15 913.901C1552.88 913.501 1552.6 913.134 1552.3 912.801C1552 912.468 1551.72 912.168 1551.45 911.901C1555.02 909.868 1558.05 907.368 1560.55 904.401C1563.08 901.434 1565.17 898.184 1566.8 894.651C1568.43 891.118 1569.7 887.501 1570.6 883.801ZM1602.95 912.801C1602.92 912.534 1602.82 912.184 1602.65 911.751C1602.48 911.284 1602.32 910.818 1602.15 910.351C1602.02 909.884 1601.87 909.484 1601.7 909.151C1602.27 909.051 1602.87 908.718 1603.5 908.151C1604.13 907.551 1604.85 906.801 1605.65 905.901C1606.08 905.468 1606.72 904.734 1607.55 903.701C1608.42 902.668 1609.37 901.451 1610.4 900.051C1611.43 898.651 1612.48 897.134 1613.55 895.501C1614.62 893.868 1615.6 892.218 1616.5 890.551L1619.95 892.651C1617.82 895.984 1615.52 899.234 1613.05 902.401C1610.58 905.568 1608.1 908.351 1605.6 910.751V910.851C1605.6 910.851 1605.47 910.918 1605.2 911.051C1604.93 911.151 1604.62 911.301 1604.25 911.501C1603.92 911.701 1603.62 911.918 1603.35 912.151C1603.08 912.384 1602.95 912.601 1602.95 912.801ZM1602.95 912.801L1602.8 909.651L1604.75 908.351L1619.7 905.901C1619.67 906.401 1619.67 906.984 1619.7 907.651C1619.77 908.284 1619.83 908.801 1619.9 909.201C1616.4 909.834 1613.58 910.351 1611.45 910.751C1609.35 911.151 1607.73 911.468 1606.6 911.701C1605.5 911.934 1604.68 912.134 1604.15 912.301C1603.65 912.468 1603.25 912.634 1602.95 912.801ZM1602.6 900.651C1602.53 900.384 1602.42 900.018 1602.25 899.551C1602.12 899.084 1601.97 898.618 1601.8 898.151C1601.63 897.651 1601.47 897.234 1601.3 896.901C1601.77 896.801 1602.23 896.484 1602.7 895.951C1603.17 895.418 1603.65 894.751 1604.15 893.951C1604.45 893.551 1604.87 892.901 1605.4 892.001C1605.93 891.068 1606.53 889.968 1607.2 888.701C1607.87 887.434 1608.52 886.084 1609.15 884.651C1609.82 883.218 1610.4 881.768 1610.9 880.301L1614.75 881.901C1613.88 883.901 1612.92 885.901 1611.85 887.901C1610.82 889.868 1609.73 891.768 1608.6 893.601C1607.47 895.401 1606.32 897.034 1605.15 898.501V898.601C1605.15 898.601 1605.02 898.668 1604.75 898.801C1604.52 898.934 1604.22 899.118 1603.85 899.351C1603.52 899.551 1603.22 899.768 1602.95 900.001C1602.72 900.234 1602.6 900.451 1602.6 900.651ZM1602.6 900.651L1602.55 897.851L1604.45 896.651L1615 895.751C1614.9 896.218 1614.82 896.751 1614.75 897.351C1614.68 897.951 1614.65 898.451 1614.65 898.851C1612.28 899.118 1610.35 899.351 1608.85 899.551C1607.35 899.718 1606.18 899.868 1605.35 900.001C1604.55 900.134 1603.95 900.251 1603.55 900.351C1603.15 900.451 1602.83 900.551 1602.6 900.651ZM1601.55 919.351C1603.12 919.084 1604.88 918.768 1606.85 918.401C1608.85 918.001 1610.95 917.584 1613.15 917.151C1615.38 916.684 1617.6 916.234 1619.8 915.801L1620.1 919.251C1616.97 919.984 1613.82 920.684 1610.65 921.351C1607.52 922.018 1604.7 922.634 1602.2 923.201L1601.55 919.351ZM1620.2 886.701H1646.95V890.301H1620.2V886.701ZM1621.45 898.101H1646.1V901.701H1621.45V898.101ZM1624.8 920.401H1642.9V923.801H1624.8V920.401ZM1631.75 879.951H1635.6V899.951H1631.75V879.951ZM1622.75 906.801H1644.85V925.751H1641.1V910.201H1626.4V925.951H1622.75V906.801ZM1652.9 906.551H1696.75V910.001H1652.9V906.551ZM1672.85 883.651H1676.8V926.001H1672.85V883.651ZM1671.5 908.001L1674.65 909.401C1673.08 911.501 1671.18 913.518 1668.95 915.451C1666.72 917.384 1664.32 919.118 1661.75 920.651C1659.22 922.151 1656.7 923.384 1654.2 924.351C1654 924.051 1653.75 923.701 1653.45 923.301C1653.15 922.901 1652.83 922.518 1652.5 922.151C1652.2 921.818 1651.9 921.518 1651.6 921.251C1653.47 920.651 1655.35 919.884 1657.25 918.951C1659.15 918.018 1660.98 916.968 1662.75 915.801C1664.55 914.634 1666.18 913.384 1667.65 912.051C1669.15 910.718 1670.43 909.368 1671.5 908.001ZM1677.9 907.851C1679 909.218 1680.32 910.551 1681.85 911.851C1683.42 913.151 1685.1 914.384 1686.9 915.551C1688.7 916.684 1690.55 917.718 1692.45 918.651C1694.38 919.584 1696.25 920.351 1698.05 920.951C1697.78 921.184 1697.48 921.501 1697.15 921.901C1696.82 922.268 1696.5 922.651 1696.2 923.051C1695.93 923.451 1695.7 923.801 1695.5 924.101C1693.67 923.368 1691.78 922.484 1689.85 921.451C1687.95 920.384 1686.08 919.201 1684.25 917.901C1682.45 916.601 1680.75 915.218 1679.15 913.751C1677.55 912.251 1676.15 910.734 1674.95 909.201L1677.9 907.851ZM1661.6 893.851V899.051H1688.15V893.851H1661.6ZM1661.6 885.651V890.751H1688.15V885.651H1661.6ZM1657.75 882.401H1692.2V902.301H1657.75V882.401ZM1705.15 883.401L1707.55 881.101C1708.45 881.834 1709.38 882.651 1710.35 883.551C1711.32 884.451 1712.23 885.334 1713.1 886.201C1713.97 887.068 1714.65 887.834 1715.15 888.501L1712.6 891.151C1712.1 890.451 1711.42 889.651 1710.55 888.751C1709.72 887.851 1708.82 886.934 1707.85 886.001C1706.92 885.068 1706.02 884.201 1705.15 883.401ZM1708.95 925.101L1708.3 921.551L1709.3 919.951L1718.2 913.301C1718.33 913.801 1718.52 914.368 1718.75 915.001C1719.02 915.634 1719.25 916.134 1719.45 916.501C1717.35 918.134 1715.65 919.451 1714.35 920.451C1713.05 921.451 1712.03 922.234 1711.3 922.801C1710.6 923.401 1710.08 923.868 1709.75 924.201C1709.42 924.534 1709.15 924.834 1708.95 925.101ZM1701.9 895.701H1711.55V899.301H1701.9V895.701ZM1708.95 925.101C1708.85 924.801 1708.68 924.434 1708.45 924.001C1708.22 923.601 1707.97 923.201 1707.7 922.801C1707.47 922.434 1707.23 922.134 1707 921.901C1707.47 921.601 1707.98 921.084 1708.55 920.351C1709.12 919.618 1709.4 918.701 1709.4 917.601V895.701H1713V920.751C1713 920.751 1712.8 920.918 1712.4 921.251C1712 921.551 1711.53 921.934 1711 922.401C1710.47 922.868 1709.98 923.334 1709.55 923.801C1709.15 924.301 1708.95 924.734 1708.95 925.101ZM1723.65 908.751H1741.2V911.401H1723.65V908.751ZM1718.9 883.901H1746.25V886.801H1718.9V883.901ZM1720.15 890.001H1744.75V892.751H1720.15V890.001ZM1717.4 896.201H1747.8V899.101H1717.4V896.201ZM1723.6 915.501H1741.3V918.251H1723.6V915.501ZM1721 902.001H1741.3V904.901H1724.5V925.951H1721V902.001ZM1740.2 902.001H1743.8V921.801C1743.8 922.734 1743.67 923.468 1743.4 924.001C1743.17 924.534 1742.68 924.934 1741.95 925.201C1741.28 925.501 1740.37 925.668 1739.2 925.701C1738.03 925.768 1736.55 925.801 1734.75 925.801C1734.68 925.334 1734.53 924.784 1734.3 924.151C1734.1 923.551 1733.88 923.018 1733.65 922.551C1734.92 922.584 1736.08 922.601 1737.15 922.601C1738.25 922.634 1738.97 922.634 1739.3 922.601C1739.9 922.568 1740.2 922.284 1740.2 921.751V902.001ZM1730.5 880.001H1734.2V897.101H1730.5V880.001ZM1754.75 888.651H1792.8V892.301H1758.45V926.001H1754.75V888.651ZM1791.4 888.651H1795.15V921.001C1795.15 922.234 1794.98 923.184 1794.65 923.851C1794.32 924.518 1793.7 925.018 1792.8 925.351C1791.9 925.651 1790.67 925.834 1789.1 925.901C1787.53 925.968 1785.6 926.001 1783.3 926.001C1783.27 925.634 1783.17 925.218 1783 924.751C1782.87 924.318 1782.72 923.851 1782.55 923.351C1782.38 922.884 1782.2 922.468 1782 922.101C1783.2 922.168 1784.35 922.201 1785.45 922.201C1786.58 922.234 1787.55 922.234 1788.35 922.201C1789.18 922.201 1789.77 922.201 1790.1 922.201C1790.63 922.201 1790.98 922.118 1791.15 921.951C1791.32 921.751 1791.4 921.434 1791.4 921.001V888.651ZM1771.7 879.901L1776.35 880.651C1775.62 882.451 1774.8 884.284 1773.9 886.151C1773 888.018 1772.17 889.618 1771.4 890.951L1767.85 890.051C1768.32 889.118 1768.78 888.051 1769.25 886.851C1769.75 885.651 1770.22 884.451 1770.65 883.251C1771.12 882.018 1771.47 880.901 1771.7 879.901ZM1765 898.951H1768.45V919.101H1765V898.951ZM1766.6 898.951H1784.6V915.501H1766.6V912.101H1781.1V902.301H1766.6V898.951ZM1802.4 897.101H1847.25V900.651H1802.4V897.101ZM1806.75 886.801H1835.75V890.301H1806.75V886.801ZM1819.5 880.001H1823.35V899.001H1819.5V880.001ZM1837.75 905.501L1841.05 908.251C1839.02 909.184 1836.72 910.084 1834.15 910.951C1831.62 911.818 1828.98 912.634 1826.25 913.401C1823.55 914.134 1820.9 914.818 1818.3 915.451C1818.2 915.051 1818.02 914.568 1817.75 914.001C1817.52 913.401 1817.28 912.918 1817.05 912.551C1819.58 911.918 1822.13 911.218 1824.7 910.451C1827.27 909.684 1829.68 908.884 1831.95 908.051C1834.25 907.184 1836.18 906.334 1837.75 905.501ZM1841.65 881.951L1845.05 883.701C1841.72 888.301 1837.88 892.534 1833.55 896.401C1829.25 900.268 1824.6 903.734 1819.6 906.801C1814.6 909.834 1809.43 912.451 1804.1 914.651C1803.93 914.384 1803.68 914.051 1803.35 913.651C1803.02 913.251 1802.68 912.851 1802.35 912.451C1802.02 912.051 1801.72 911.734 1801.45 911.501C1806.85 909.468 1812.03 906.984 1817 904.051C1821.97 901.118 1826.53 897.784 1830.7 894.051C1834.9 890.318 1838.55 886.284 1841.65 881.951ZM1815.85 904.951H1819.7V919.551C1819.7 920.184 1819.8 920.668 1820 921.001C1820.23 921.334 1820.68 921.568 1821.35 921.701C1822.02 921.801 1823 921.851 1824.3 921.851C1824.67 921.851 1825.27 921.851 1826.1 921.851C1826.97 921.851 1827.95 921.851 1829.05 921.851C1830.18 921.851 1831.32 921.851 1832.45 921.851C1833.58 921.851 1834.62 921.851 1835.55 921.851C1836.52 921.851 1837.23 921.851 1837.7 921.851C1838.83 921.851 1839.68 921.684 1840.25 921.351C1840.82 921.018 1841.2 920.351 1841.4 919.351C1841.63 918.351 1841.82 916.868 1841.95 914.901C1842.25 915.101 1842.62 915.301 1843.05 915.501C1843.48 915.701 1843.92 915.884 1844.35 916.051C1844.78 916.184 1845.18 916.284 1845.55 916.351C1845.35 918.718 1845.02 920.551 1844.55 921.851C1844.08 923.118 1843.33 924.001 1842.3 924.501C1841.27 925.001 1839.8 925.251 1837.9 925.251C1837.6 925.251 1836.98 925.251 1836.05 925.251C1835.12 925.251 1834.03 925.251 1832.8 925.251C1831.6 925.251 1830.38 925.251 1829.15 925.251C1827.95 925.251 1826.88 925.251 1825.95 925.251C1825.05 925.251 1824.47 925.251 1824.2 925.251C1822.03 925.251 1820.33 925.101 1819.1 924.801C1817.9 924.501 1817.05 923.934 1816.55 923.101C1816.08 922.268 1815.85 921.101 1815.85 919.601V904.951ZM1071 943.601H1099.25V947.051H1071V943.601ZM1083 945.051H1086.55V986.901H1083V945.051ZM1072.8 953.251H1095.2V956.651H1076.25V979.801H1072.8V953.251ZM1093.8 953.251H1097.3V975.501C1097.3 976.368 1097.2 977.068 1097 977.601C1096.83 978.134 1096.43 978.534 1095.8 978.801C1095.23 979.101 1094.48 979.284 1093.55 979.351C1092.65 979.418 1091.5 979.451 1090.1 979.451C1090.07 978.951 1089.93 978.401 1089.7 977.801C1089.47 977.168 1089.23 976.618 1089 976.151C1089.97 976.184 1090.82 976.201 1091.55 976.201C1092.32 976.201 1092.83 976.184 1093.1 976.151C1093.4 976.151 1093.58 976.101 1093.65 976.001C1093.75 975.901 1093.8 975.718 1093.8 975.451V953.251ZM1064.6 941.051H1068.05V961.051C1068.05 963.551 1067.95 965.984 1067.75 968.351C1067.58 970.718 1067.22 973.001 1066.65 975.201C1066.08 977.368 1065.23 979.434 1064.1 981.401C1063 983.368 1061.52 985.218 1059.65 986.951C1059.45 986.684 1059.18 986.384 1058.85 986.051C1058.52 985.751 1058.17 985.451 1057.8 985.151C1057.47 984.851 1057.15 984.618 1056.85 984.451C1059.15 982.384 1060.85 980.118 1061.95 977.651C1063.05 975.151 1063.77 972.501 1064.1 969.701C1064.43 966.901 1064.6 964.018 1064.6 961.051V941.051ZM1056.6 946.751H1059.95V971.001H1056.6V946.751ZM1107.45 947.601H1146.5V975.851H1142.65V951.201H1111.15V976.101H1107.45V947.601ZM1109.85 958.501H1144.7V962.001H1109.85V958.501ZM1109.85 969.651H1144.7V973.251H1109.85V969.651ZM1124.75 941.001H1128.65V986.951H1124.75V941.001ZM1157.2 944.401L1159.6 942.101C1160.5 942.834 1161.43 943.651 1162.4 944.551C1163.37 945.451 1164.28 946.334 1165.15 947.201C1166.02 948.068 1166.7 948.834 1167.2 949.501L1164.65 952.151C1164.15 951.451 1163.47 950.651 1162.6 949.751C1161.77 948.851 1160.87 947.934 1159.9 947.001C1158.97 946.068 1158.07 945.201 1157.2 944.401ZM1161 986.101L1160.35 982.551L1161.35 980.951L1170.25 974.301C1170.38 974.801 1170.57 975.368 1170.8 976.001C1171.07 976.634 1171.3 977.134 1171.5 977.501C1169.4 979.134 1167.7 980.451 1166.4 981.451C1165.1 982.451 1164.08 983.234 1163.35 983.801C1162.65 984.401 1162.13 984.868 1161.8 985.201C1161.47 985.534 1161.2 985.834 1161 986.101ZM1153.95 956.701H1163.6V960.301H1153.95V956.701ZM1161 986.101C1160.9 985.801 1160.73 985.434 1160.5 985.001C1160.27 984.601 1160.02 984.201 1159.75 983.801C1159.52 983.434 1159.28 983.134 1159.05 982.901C1159.52 982.601 1160.03 982.084 1160.6 981.351C1161.17 980.618 1161.45 979.701 1161.45 978.601V956.701H1165.05V981.751C1165.05 981.751 1164.85 981.918 1164.45 982.251C1164.05 982.551 1163.58 982.934 1163.05 983.401C1162.52 983.868 1162.03 984.334 1161.6 984.801C1161.2 985.301 1161 985.734 1161 986.101ZM1175.7 969.751H1193.25V972.401H1175.7V969.751ZM1170.95 944.901H1198.3V947.801H1170.95V944.901ZM1172.2 951.001H1196.8V953.751H1172.2V951.001ZM1169.45 957.201H1199.85V960.101H1169.45V957.201ZM1175.65 976.501H1193.35V979.251H1175.65V976.501ZM1173.05 963.001H1193.35V965.901H1176.55V986.951H1173.05V963.001ZM1192.25 963.001H1195.85V982.801C1195.85 983.734 1195.72 984.468 1195.45 985.001C1195.22 985.534 1194.73 985.934 1194 986.201C1193.33 986.501 1192.42 986.668 1191.25 986.701C1190.08 986.768 1188.6 986.801 1186.8 986.801C1186.73 986.334 1186.58 985.784 1186.35 985.151C1186.15 984.551 1185.93 984.018 1185.7 983.551C1186.97 983.584 1188.13 983.601 1189.2 983.601C1190.3 983.634 1191.02 983.634 1191.35 983.601C1191.95 983.568 1192.25 983.284 1192.25 982.751V963.001ZM1182.55 941.001H1186.25V958.101H1182.55V941.001ZM1218.1 955.851H1249.7V959.251H1218.1V955.851ZM1217.75 969.751C1219.88 969.284 1222.47 968.718 1225.5 968.051C1228.53 967.351 1231.6 966.634 1234.7 965.901L1235.05 969.101C1232.15 969.834 1229.25 970.568 1226.35 971.301C1223.45 972.034 1220.85 972.701 1218.55 973.301L1217.75 969.751ZM1245.2 961.151L1248.45 962.001C1246.65 967.101 1244.33 971.734 1241.5 975.901C1238.67 980.034 1235.45 983.501 1231.85 986.301C1231.72 986.068 1231.5 985.768 1231.2 985.401C1230.93 985.068 1230.63 984.734 1230.3 984.401C1230 984.068 1229.73 983.801 1229.5 983.601C1233.03 981.101 1236.15 977.918 1238.85 974.051C1241.55 970.151 1243.67 965.851 1245.2 961.151ZM1232.2 941.801L1235.05 944.401C1233.65 945.134 1232.05 945.818 1230.25 946.451C1228.48 947.084 1226.65 947.668 1224.75 948.201C1222.85 948.701 1221 949.168 1219.2 949.601C1219.13 949.234 1218.98 948.784 1218.75 948.251C1218.52 947.718 1218.3 947.268 1218.1 946.901C1219.8 946.468 1221.53 945.984 1223.3 945.451C1225.1 944.918 1226.77 944.334 1228.3 943.701C1229.87 943.068 1231.17 942.434 1232.2 941.801ZM1225 946.551H1228.45V982.451C1228.45 983.551 1228.3 984.384 1228 984.951C1227.73 985.551 1227.25 986.018 1226.55 986.351C1225.88 986.618 1224.95 986.784 1223.75 986.851C1222.58 986.951 1221.12 987.001 1219.35 987.001C1219.28 986.534 1219.13 985.934 1218.9 985.201C1218.67 984.501 1218.43 983.901 1218.2 983.401C1219.5 983.434 1220.7 983.451 1221.8 983.451C1222.9 983.484 1223.65 983.484 1224.05 983.451C1224.42 983.418 1224.67 983.334 1224.8 983.201C1224.93 983.068 1225 982.818 1225 982.451V946.551ZM1235.95 941.201H1239.4C1239.37 946.034 1239.42 950.584 1239.55 954.851C1239.72 959.084 1239.98 962.968 1240.35 966.501C1240.72 970.001 1241.17 973.034 1241.7 975.601C1242.23 978.134 1242.85 980.101 1243.55 981.501C1244.28 982.868 1245.08 983.551 1245.95 983.551C1246.45 983.551 1246.82 982.968 1247.05 981.801C1247.32 980.634 1247.5 978.718 1247.6 976.051C1247.93 976.418 1248.35 976.784 1248.85 977.151C1249.35 977.484 1249.82 977.751 1250.25 977.951C1250.05 980.251 1249.78 982.068 1249.45 983.401C1249.12 984.734 1248.63 985.668 1248 986.201C1247.4 986.768 1246.58 987.051 1245.55 987.051C1244.25 987.051 1243.1 986.501 1242.1 985.401C1241.13 984.301 1240.3 982.751 1239.6 980.751C1238.9 978.718 1238.32 976.301 1237.85 973.501C1237.38 970.668 1237.02 967.551 1236.75 964.151C1236.48 960.718 1236.28 957.068 1236.15 953.201C1236.05 949.334 1235.98 945.334 1235.95 941.201ZM1241.4 943.651L1244.25 942.451C1244.95 943.251 1245.67 944.134 1246.4 945.101C1247.13 946.068 1247.8 947.034 1248.4 948.001C1249.03 948.934 1249.52 949.751 1249.85 950.451L1246.9 951.951C1246.57 951.184 1246.1 950.334 1245.5 949.401C1244.9 948.434 1244.23 947.451 1243.5 946.451C1242.8 945.451 1242.1 944.518 1241.4 943.651ZM1207.35 944.651H1217.1V974.401H1207.35V971.301H1214V947.801H1207.35V944.651ZM1205.45 944.651H1208.65V979.351H1205.45V944.651ZM1255.86 972.525C1255.82 970.477 1256.12 968.796 1256.77 967.483C1257.43 966.169 1258.32 965.198 1259.43 964.571C1260.54 963.931 1261.77 963.612 1263.11 963.612C1264.29 963.612 1265.39 963.866 1266.39 964.375C1267.4 964.872 1268.55 965.689 1269.84 966.826C1270.64 967.524 1271.3 968.033 1271.81 968.353C1272.32 968.66 1272.88 968.814 1273.51 968.814C1274.47 968.814 1275.23 968.459 1275.8 967.749C1276.38 967.027 1276.66 965.961 1276.64 964.553H1281.13C1281.18 966.612 1280.87 968.299 1280.21 969.613C1279.55 970.927 1278.67 971.898 1277.54 972.525C1276.43 973.152 1275.21 973.466 1273.88 973.466C1272.69 973.466 1271.59 973.212 1270.58 972.703C1269.58 972.182 1268.43 971.365 1267.16 970.252C1266.33 969.53 1265.66 969.021 1265.17 968.725C1264.67 968.418 1264.11 968.264 1263.48 968.264C1262.57 968.264 1261.81 968.595 1261.21 969.258C1260.61 969.909 1260.33 970.998 1260.35 972.525H1255.86ZM1308.5 970.901L1307.5 951.501L1307.4 945.601H1312.9L1312.8 951.501L1311.8 970.901H1308.5ZM1310.15 983.251C1309.25 983.251 1308.48 982.951 1307.85 982.351C1307.25 981.751 1306.95 980.951 1306.95 979.951C1306.95 978.951 1307.27 978.151 1307.9 977.551C1308.53 976.918 1309.28 976.601 1310.15 976.601C1311.02 976.601 1311.77 976.918 1312.4 977.551C1313.03 978.151 1313.35 978.951 1313.35 979.951C1313.35 980.951 1313.03 981.751 1312.4 982.351C1311.77 982.951 1311.02 983.251 1310.15 983.251Z" fill="#0AD235"/>
<defs>
<filter id="filter0_d_3_291" x="381" y="153" width="1596" height="1307" filterUnits="userSpaceOnUse" color-interpolation-filters="sRGB">
<feFlood flood-opacity="0" result="BackgroundImageFix"/>
<feColorMatrix in="SourceAlpha" type="matrix" values="0 0 0 0 0 0 0 0 0 0 0 0 0 0 0 0 0 0 127 0" result="hardAlpha"/>
<feMorphology radius="4" operator="dilate" in="SourceAlpha" result="effect1_dropShadow_3_291"/>
<feOffset dy="4"/>
<feGaussianBlur stdDeviation="10"/>
<feComposite in2="hardAlpha" operator="out"/>
<feColorMatrix type="matrix" values="0 0 0 0 0 0 0 0 0 0 0 0 0 0 0 0 0 0 0.25 0"/>
<feBlend mode="normal" in2="BackgroundImageFix" result="effect1_dropShadow_3_291"/>
<feBlend mode="normal" in="SourceGraphic" in2="effect1_dropShadow_3_291" result="shape"/>
</filter>
<filter id="filter1_d_3_291" x="321" y="803" width="91" height="99" filterUnits="userSpaceOnUse" color-interpolation-filters="sRGB">
<feFlood flood-opacity="0" result="BackgroundImageFix"/>
<feColorMatrix in="SourceAlpha" type="matrix" values="0 0 0 0 0 0 0 0 0 0 0 0 0 0 0 0 0 0 127 0" result="hardAlpha"/>
<feOffset dx="3" dy="4"/>
<feGaussianBlur stdDeviation="2"/>
<feComposite in2="hardAlpha" operator="out"/>
<feColorMatrix type="matrix" values="0 0 0 0 0 0 0 0 0 0 0 0 0 0 0 0 0 0 0.25 0"/>
<feBlend mode="normal" in2="BackgroundImageFix" result="effect1_dropShadow_3_291"/>
<feBlend mode="normal" in="SourceGraphic" in2="effect1_dropShadow_3_291" result="shape"/>
</filter>
</defs>
</svg>
