<svg width="588" height="61" viewBox="0 0 588 61" fill="none" xmlns="http://www.w3.org/2000/svg">
<path d="M0.852983 51V0.0909076H13.1577V20.5241H33.218V0.0909076H45.4979V51H33.218V30.5419H13.1577V51H0.852983ZM71.0643 51.7209C67.0704 51.7209 63.6235 50.9337 60.7234 49.3594C57.8398 47.7685 55.6192 45.5064 54.0614 42.5732C52.5202 39.6233 51.7496 36.1184 51.7496 32.0582C51.7496 28.1141 52.5285 24.6671 54.0863 21.7173C55.6441 18.7509 57.8398 16.4474 60.6737 14.8068C63.5075 13.1496 66.8467 12.321 70.6914 12.321C73.4092 12.321 75.895 12.7436 78.1488 13.5888C80.4026 14.4339 82.3498 15.6851 83.9904 17.3423C85.631 18.9995 86.9071 21.0462 87.8185 23.4822C88.73 25.9018 89.1857 28.6776 89.1857 31.8097V34.8423H56.0004V27.7827H77.8754C77.8588 26.4901 77.5522 25.3383 76.9556 24.3274C76.359 23.3165 75.5387 22.5294 74.4947 21.9659C73.4672 21.3859 72.2823 21.0959 70.94 21.0959C69.5811 21.0959 68.363 21.4025 67.2859 22.0156C66.2087 22.6122 65.3552 23.4325 64.7255 24.4766C64.0958 25.504 63.7643 26.6723 63.7312 27.9815V35.1655C63.7312 36.7232 64.0378 38.0904 64.6509 39.267C65.2641 40.4271 66.1341 41.3303 67.261 41.9766C68.3879 42.6229 69.7302 42.946 71.288 42.946C72.3652 42.946 73.3429 42.7969 74.2212 42.4986C75.0996 42.2003 75.8536 41.7611 76.4833 41.1811C77.113 40.6011 77.5853 39.8885 77.9002 39.0433L89.0614 39.3665C88.5974 41.8688 87.5782 44.0481 86.0039 45.9041C84.4461 47.7436 82.3995 49.1771 79.864 50.2045C77.3285 51.2154 74.3952 51.7209 71.0643 51.7209ZM107.55 0.0909076V51H95.394V0.0909076H107.55ZM127.442 0.0909076V51H115.287V0.0909076H127.442ZM153.002 51.7209C148.992 51.7209 145.545 50.9006 142.661 49.2599C139.794 47.6027 137.582 45.2992 136.024 42.3494C134.483 39.383 133.713 35.9444 133.713 32.0334C133.713 28.1058 134.483 24.6671 136.024 21.7173C137.582 18.7509 139.794 16.4474 142.661 14.8068C145.545 13.1496 148.992 12.321 153.002 12.321C157.013 12.321 160.451 13.1496 163.318 14.8068C166.202 16.4474 168.414 18.7509 169.955 21.7173C171.513 24.6671 172.292 28.1058 172.292 32.0334C172.292 35.9444 171.513 39.383 169.955 42.3494C168.414 45.2992 166.202 47.6027 163.318 49.2599C160.451 50.9006 157.013 51.7209 153.002 51.7209ZM153.077 42.5483C154.535 42.5483 155.77 42.1009 156.781 41.206C157.792 40.3111 158.562 39.0682 159.093 37.4773C159.639 35.8864 159.913 34.0469 159.913 31.9588C159.913 29.8376 159.639 27.9815 159.093 26.3906C158.562 24.7997 157.792 23.5568 156.781 22.6619C155.77 21.767 154.535 21.3196 153.077 21.3196C151.569 21.3196 150.293 21.767 149.249 22.6619C148.221 23.5568 147.434 24.7997 146.887 26.3906C146.357 27.9815 146.092 29.8376 146.092 31.9588C146.092 34.0469 146.357 35.8864 146.887 37.4773C147.434 39.0682 148.221 40.3111 149.249 41.206C150.293 42.1009 151.569 42.5483 153.077 42.5483ZM188.246 60.66L186.006 54.99C188.946 54.0567 191.186 52.7733 192.726 51.14C194.313 49.5533 195.106 47.7333 195.106 45.68L194.546 38.82L198.466 45.05C197.859 45.5633 197.206 45.96 196.506 46.24C195.806 46.52 195.059 46.66 194.266 46.66C192.539 46.66 190.999 46.1233 189.646 45.05C188.293 43.93 187.616 42.3667 187.616 40.36C187.616 38.4 188.293 36.86 189.646 35.74C190.999 34.62 192.609 34.06 194.476 34.06C196.949 34.06 198.816 34.9233 200.076 36.65C201.383 38.3767 202.036 40.71 202.036 43.65C202.036 47.6167 200.823 51.1167 198.396 54.15C195.969 57.1833 192.586 59.3533 188.246 60.66ZM260.724 51L245.909 0.0909076H259.506L267.187 33.4503H267.61L276.385 0.0909076H287.471L296.246 33.5249H296.669L304.375 0.0909076H317.947L303.157 51H291.3L282.127 20.1264H281.729L272.557 51H260.724ZM336.64 51.7209C332.647 51.7209 329.2 50.9337 326.3 49.3594C323.416 47.7685 321.195 45.5064 319.638 42.5732C318.096 39.6233 317.326 36.1184 317.326 32.0582C317.326 28.1141 318.105 24.6671 319.662 21.7173C321.22 18.7509 323.416 16.4474 326.25 14.8068C329.084 13.1496 332.423 12.321 336.268 12.321C338.985 12.321 341.471 12.7436 343.725 13.5888C345.979 14.4339 347.926 15.6851 349.567 17.3423C351.207 18.9995 352.483 21.0462 353.395 23.4822C354.306 25.9018 354.762 28.6776 354.762 31.8097V34.8423H321.577V27.7827H343.452C343.435 26.4901 343.128 25.3383 342.532 24.3274C341.935 23.3165 341.115 22.5294 340.071 21.9659C339.043 21.3859 337.858 21.0959 336.516 21.0959C335.157 21.0959 333.939 21.4025 332.862 22.0156C331.785 22.6122 330.931 23.4325 330.302 24.4766C329.672 25.504 329.34 26.6723 329.307 27.9815V35.1655C329.307 36.7232 329.614 38.0904 330.227 39.267C330.84 40.4271 331.71 41.3303 332.837 41.9766C333.964 42.6229 335.306 42.946 336.864 42.946C337.941 42.946 338.919 42.7969 339.797 42.4986C340.676 42.2003 341.43 41.7611 342.059 41.1811C342.689 40.6011 343.162 39.8885 343.476 39.0433L354.638 39.3665C354.174 41.8688 353.154 44.0481 351.58 45.9041C350.022 47.7436 347.976 49.1771 345.44 50.2045C342.905 51.2154 339.971 51.7209 336.64 51.7209ZM373.126 0.0909076V51H360.97V0.0909076H373.126ZM398.686 51.7209C394.659 51.7209 391.204 50.8923 388.32 49.2351C385.453 47.5779 383.249 45.2744 381.708 42.3246C380.167 39.3582 379.396 35.9278 379.396 32.0334C379.396 28.1224 380.167 24.692 381.708 21.7422C383.266 18.7758 385.478 16.464 388.345 14.8068C391.229 13.1496 394.667 12.321 398.661 12.321C402.191 12.321 405.265 12.959 407.883 14.2351C410.518 15.5111 412.573 17.3175 414.048 19.6541C415.54 21.9742 416.327 24.7003 416.41 27.8324H405.05C404.818 25.8769 404.155 24.344 403.061 23.2337C401.984 22.1233 400.575 21.5682 398.835 21.5682C397.426 21.5682 396.192 21.9659 395.131 22.7614C394.071 23.5402 393.242 24.7003 392.645 26.2415C392.065 27.7661 391.775 29.6553 391.775 31.9091C391.775 34.1629 392.065 36.0687 392.645 37.6264C393.242 39.1676 394.071 40.3359 395.131 41.1314C396.192 41.9103 397.426 42.2997 398.835 42.2997C399.962 42.2997 400.956 42.0594 401.818 41.5788C402.696 41.0982 403.417 40.3939 403.981 39.4659C404.544 38.5213 404.9 37.3778 405.05 36.0355H416.41C416.294 39.1842 415.506 41.9351 414.048 44.2884C412.606 46.6416 410.576 48.4728 407.958 49.782C405.356 51.0746 402.265 51.7209 398.686 51.7209ZM440.453 51.7209C436.443 51.7209 432.996 50.9006 430.113 49.2599C427.246 47.6027 425.033 45.2992 423.475 42.3494C421.934 39.383 421.164 35.9444 421.164 32.0334C421.164 28.1058 421.934 24.6671 423.475 21.7173C425.033 18.7509 427.246 16.4474 430.113 14.8068C432.996 13.1496 436.443 12.321 440.453 12.321C444.464 12.321 447.903 13.1496 450.77 14.8068C453.653 16.4474 455.865 18.7509 457.407 21.7173C458.964 24.6671 459.743 28.1058 459.743 32.0334C459.743 35.9444 458.964 39.383 457.407 42.3494C455.865 45.2992 453.653 47.6027 450.77 49.2599C447.903 50.9006 444.464 51.7209 440.453 51.7209ZM440.528 42.5483C441.986 42.5483 443.221 42.1009 444.232 41.206C445.243 40.3111 446.013 39.0682 446.544 37.4773C447.091 35.8864 447.364 34.0469 447.364 31.9588C447.364 29.8376 447.091 27.9815 446.544 26.3906C446.013 24.7997 445.243 23.5568 444.232 22.6619C443.221 21.767 441.986 21.3196 440.528 21.3196C439.02 21.3196 437.744 21.767 436.7 22.6619C435.672 23.5568 434.885 24.7997 434.338 26.3906C433.808 27.9815 433.543 29.8376 433.543 31.9588C433.543 34.0469 433.808 35.8864 434.338 37.4773C434.885 39.0682 435.672 40.3111 436.7 41.206C437.744 42.1009 439.02 42.5483 440.528 42.5483ZM465.97 51V12.8182H477.529V19.8281H477.952C478.747 17.508 480.089 15.6768 481.979 14.3345C483.868 12.9922 486.122 12.321 488.74 12.321C491.392 12.321 493.662 13.0005 495.551 14.3594C497.44 15.7183 498.642 17.5412 499.156 19.8281H499.553C500.266 17.5578 501.658 15.7431 503.729 14.3842C505.801 13.0088 508.245 12.321 511.062 12.321C514.675 12.321 517.608 13.4811 519.862 15.8011C522.116 18.1046 523.243 21.2699 523.243 25.2969V51H511.087V28.081C511.087 26.1752 510.598 24.7251 509.621 23.7308C508.643 22.7199 507.375 22.2145 505.817 22.2145C504.144 22.2145 502.826 22.7614 501.865 23.8551C500.92 24.9323 500.448 26.3823 500.448 28.2053V51H488.765V27.9567C488.765 26.1835 488.284 24.7831 487.323 23.7557C486.362 22.7282 485.094 22.2145 483.52 22.2145C482.459 22.2145 481.523 22.4714 480.711 22.9851C479.899 23.4822 479.261 24.1948 478.797 25.1229C478.349 26.0509 478.126 27.1446 478.126 28.4041V51H465.97ZM548.623 51.7209C544.629 51.7209 541.182 50.9337 538.282 49.3594C535.398 47.7685 533.178 45.5064 531.62 42.5732C530.079 39.6233 529.308 36.1184 529.308 32.0582C529.308 28.1141 530.087 24.6671 531.645 21.7173C533.203 18.7509 535.398 16.4474 538.232 14.8068C541.066 13.1496 544.405 12.321 548.25 12.321C550.968 12.321 553.454 12.7436 555.707 13.5888C557.961 14.4339 559.908 15.6851 561.549 17.3423C563.19 18.9995 564.466 21.0462 565.377 23.4822C566.289 25.9018 566.744 28.6776 566.744 31.8097V34.8423H533.559V27.7827H555.434C555.417 26.4901 555.111 25.3383 554.514 24.3274C553.918 23.3165 553.097 22.5294 552.053 21.9659C551.026 21.3859 549.841 21.0959 548.499 21.0959C547.14 21.0959 545.922 21.4025 544.844 22.0156C543.767 22.6122 542.914 23.4325 542.284 24.4766C541.654 25.504 541.323 26.6723 541.29 27.9815V35.1655C541.29 36.7232 541.596 38.0904 542.21 39.267C542.823 40.4271 543.693 41.3303 544.82 41.9766C545.946 42.6229 547.289 42.946 548.847 42.946C549.924 42.946 550.902 42.7969 551.78 42.4986C552.658 42.2003 553.412 41.7611 554.042 41.1811C554.672 40.6011 555.144 39.8885 555.459 39.0433L566.62 39.3665C566.156 41.8688 565.137 44.0481 563.562 45.9041C562.005 47.7436 559.958 49.1771 557.423 50.2045C554.887 51.2154 551.954 51.7209 548.623 51.7209ZM587.246 0.0909076L586.102 35.4141H575.886L574.742 0.0909076H587.246ZM580.982 51.7209C579.209 51.7209 577.684 51.0911 576.408 49.8317C575.148 48.5722 574.519 47.0476 574.519 45.2578C574.519 43.5012 575.148 42.0014 576.408 40.7585C577.684 39.4991 579.209 38.8693 580.982 38.8693C582.689 38.8693 584.188 39.4991 585.481 40.7585C586.79 42.0014 587.445 43.5012 587.445 45.2578C587.445 46.451 587.138 47.5365 586.525 48.5142C585.928 49.492 585.141 50.2708 584.164 50.8509C583.202 51.4309 582.142 51.7209 580.982 51.7209Z" fill="white"/>
</svg>
