<svg width="271" height="106" viewBox="0 0 271 106" fill="none" xmlns="http://www.w3.org/2000/svg">
<path d="M119.32 58.879L122.2 57.159C122.813 57.7724 123.44 58.4657 124.08 59.239C124.747 59.9857 125.36 60.719 125.92 61.439C126.507 62.159 126.973 62.799 127.32 63.359L124.28 65.319C123.96 64.7324 123.52 64.0524 122.96 63.279C122.4 62.5324 121.8 61.7724 121.16 60.999C120.547 60.2257 119.933 59.519 119.32 58.879ZM112.2 30.119H126.48V56.199H122.72V33.559H115.8V56.439H112.2V30.119ZM133.84 28.679H137.6V60.759C137.6 61.8257 137.48 62.6657 137.24 63.279C137 63.8924 136.56 64.359 135.92 64.679C135.307 64.999 134.493 65.2124 133.48 65.319C132.493 65.4257 131.267 65.4657 129.8 65.439C129.72 64.9057 129.56 64.2524 129.32 63.479C129.08 62.7324 128.84 62.079 128.6 61.519C129.56 61.5457 130.453 61.559 131.28 61.559C132.133 61.559 132.72 61.559 133.04 61.559C133.573 61.559 133.84 61.2924 133.84 60.759V28.679ZM128.36 31.679H132V56.359H128.36V31.679ZM117.44 35.759H120.92V51.119C120.92 52.4524 120.813 53.799 120.6 55.159C120.387 56.519 119.987 57.8524 119.4 59.159C118.84 60.439 118.013 61.6257 116.92 62.719C115.827 63.8124 114.373 64.7724 112.56 65.599C112.453 65.3324 112.267 64.999 112 64.599C111.76 64.2257 111.507 63.8524 111.24 63.479C110.973 63.1324 110.733 62.8657 110.52 62.679C112.093 61.959 113.347 61.1724 114.28 60.319C115.213 59.439 115.907 58.5057 116.36 57.519C116.813 56.5057 117.107 55.4524 117.24 54.359C117.373 53.2657 117.44 52.1724 117.44 51.079V35.759ZM102.64 31.839L105.48 28.359C106.173 28.679 106.933 29.079 107.76 29.559C108.613 30.039 109.44 30.519 110.24 30.999C111.04 31.4524 111.68 31.879 112.16 32.279L109.24 36.159C108.787 35.759 108.173 35.3057 107.4 34.799C106.653 34.2657 105.853 33.7457 105 33.239C104.173 32.7324 103.387 32.2657 102.64 31.839ZM101.12 42.559L103.84 39.079C104.533 39.399 105.293 39.7857 106.12 40.239C106.973 40.6924 107.787 41.1457 108.56 41.599C109.36 42.0524 110.027 42.4657 110.56 42.839L107.68 46.679C107.227 46.279 106.613 45.839 105.84 45.359C105.067 44.879 104.267 44.3857 103.44 43.879C102.613 43.3724 101.84 42.9324 101.12 42.559ZM101.8 62.679C102.307 61.639 102.853 60.4124 103.44 58.999C104.053 57.5857 104.667 56.0924 105.28 54.519C105.893 52.919 106.453 51.3457 106.96 49.799L110.84 52.279C110.413 53.719 109.933 55.1857 109.4 56.679C108.867 58.1457 108.32 59.599 107.76 61.039C107.227 62.4524 106.68 63.8257 106.12 65.159L101.8 62.679ZM143.88 31.439L147 28.559C147.72 29.119 148.48 29.759 149.28 30.479C150.08 31.199 150.84 31.919 151.56 32.639C152.307 33.3324 152.907 33.9724 153.36 34.559L150.04 37.839C149.64 37.2524 149.093 36.5857 148.4 35.839C147.707 35.0924 146.96 34.3324 146.16 33.559C145.36 32.7857 144.6 32.079 143.88 31.439ZM146.76 64.919L145.88 60.799L147.04 59.279L154.8 54.399C154.907 55.0124 155.08 55.7324 155.32 56.559C155.56 57.359 155.787 58.0124 156 58.519C154.213 59.6924 152.747 60.6524 151.6 61.399C150.48 62.1457 149.6 62.7324 148.96 63.159C148.347 63.5857 147.88 63.9324 147.56 64.199C147.24 64.4657 146.973 64.7057 146.76 64.919ZM141.96 40.359H149.16V44.959H141.96V40.359ZM154.04 35.719H178.64V40.279H154.04V35.719ZM155.24 44.879H165.88V49.279H155.24V44.879ZM158.48 47.759H162.88V59.239L158.48 59.639V47.759ZM154.56 58.839C156.133 58.4657 158.013 57.999 160.2 57.439C162.413 56.8524 164.64 56.2657 166.88 55.679L167.56 59.839C165.533 60.4257 163.493 61.0257 161.44 61.639C159.387 62.2257 157.493 62.7724 155.76 63.279L154.56 58.839ZM171.48 30.399L174.68 28.439C175.427 29.2657 176.173 30.1857 176.92 31.199C177.667 32.1857 178.227 33.0524 178.6 33.799L175.16 36.039C174.84 35.239 174.32 34.319 173.6 33.279C172.88 32.2124 172.173 31.2524 171.48 30.399ZM166.32 28.319H171.2C171.2 31.519 171.24 34.6257 171.32 37.639C171.4 40.6257 171.533 43.4124 171.72 45.999C171.933 48.559 172.16 50.799 172.4 52.719C172.667 54.639 172.96 56.1457 173.28 57.239C173.627 58.3057 173.987 58.839 174.36 58.839C174.627 58.8657 174.84 58.399 175 57.439C175.187 56.4524 175.307 55.0657 175.36 53.279C175.627 53.599 176 53.9457 176.48 54.319C176.987 54.6924 177.48 55.039 177.96 55.359C178.467 55.6524 178.853 55.879 179.12 56.039C178.88 57.959 178.56 59.5324 178.16 60.759C177.76 61.9857 177.333 62.9324 176.88 63.599C176.453 64.2657 176 64.719 175.52 64.959C175.04 65.199 174.6 65.319 174.2 65.319C172.973 65.319 171.907 64.759 171 63.639C170.12 62.519 169.387 60.9057 168.8 58.799C168.24 56.6657 167.787 54.1057 167.44 51.119C167.093 48.1057 166.827 44.6924 166.64 40.879C166.48 37.039 166.373 32.8524 166.32 28.319ZM146.76 64.919C146.653 64.519 146.467 64.0524 146.2 63.519C145.933 62.9857 145.653 62.4657 145.36 61.959C145.093 61.4257 144.813 61.0124 144.52 60.719C145 60.4524 145.48 60.0124 145.96 59.399C146.44 58.759 146.68 57.9857 146.68 57.079V40.359H151.24V60.519C151.24 60.519 151.08 60.6124 150.76 60.799C150.467 60.9857 150.093 61.239 149.64 61.559C149.213 61.879 148.773 62.2257 148.32 62.599C147.893 62.999 147.52 63.399 147.2 63.799C146.907 64.199 146.76 64.5724 146.76 64.919ZM182.64 55.199C182.56 54.879 182.427 54.4524 182.24 53.919C182.053 53.359 181.853 52.7724 181.64 52.159C181.427 51.5457 181.227 51.0257 181.04 50.599C181.6 50.4924 182.133 50.2257 182.64 49.799C183.147 49.3724 183.733 48.799 184.4 48.079C184.773 47.7324 185.293 47.159 185.96 46.359C186.627 45.5324 187.36 44.559 188.16 43.439C188.987 42.319 189.813 41.1057 190.64 39.799C191.467 38.4924 192.227 37.159 192.92 35.799L197.16 38.559C195.587 41.1457 193.787 43.679 191.76 46.159C189.76 48.639 187.733 50.839 185.68 52.759V52.839C185.68 52.839 185.52 52.919 185.2 53.079C184.907 53.239 184.56 53.4524 184.16 53.719C183.76 53.959 183.4 54.2124 183.08 54.479C182.787 54.7457 182.64 54.9857 182.64 55.199ZM182.64 55.199L182.36 51.319L184.52 49.799L196.24 48.039C196.213 48.679 196.227 49.4124 196.28 50.239C196.333 51.039 196.4 51.6924 196.48 52.199C193.76 52.679 191.547 53.079 189.84 53.399C188.16 53.719 186.853 53.9857 185.92 54.199C184.987 54.4124 184.267 54.599 183.76 54.759C183.28 54.919 182.907 55.0657 182.64 55.199ZM182.28 45.239C182.2 44.919 182.067 44.479 181.88 43.919C181.693 43.3324 181.48 42.7457 181.24 42.159C181.027 41.5457 180.827 41.0124 180.64 40.559C181.067 40.4524 181.48 40.199 181.88 39.799C182.28 39.399 182.68 38.9057 183.08 38.319C183.32 37.999 183.64 37.4924 184.04 36.799C184.467 36.1057 184.92 35.2924 185.4 34.359C185.907 33.4257 186.4 32.4124 186.88 31.319C187.36 30.199 187.787 29.079 188.16 27.959L193.12 29.999C192.427 31.519 191.64 33.039 190.76 34.559C189.907 36.079 189 37.5324 188.04 38.919C187.107 40.3057 186.173 41.5457 185.24 42.639V42.799C185.24 42.799 185.093 42.879 184.8 43.039C184.507 43.199 184.16 43.4124 183.76 43.679C183.36 43.9457 183.013 44.2257 182.72 44.519C182.427 44.7857 182.28 45.0257 182.28 45.239ZM182.28 45.239L182.16 41.799L184.24 40.439L192.76 39.839C192.627 40.4257 192.507 41.1057 192.4 41.879C192.32 42.6524 192.28 43.2924 192.28 43.799C190.387 43.959 188.84 44.119 187.64 44.279C186.44 44.4124 185.48 44.5324 184.76 44.639C184.067 44.7457 183.533 44.8524 183.16 44.959C182.787 45.039 182.493 45.1324 182.28 45.239ZM181 59.079C182.36 58.8657 183.88 58.6257 185.56 58.359C187.24 58.0657 189.027 57.7457 190.92 57.399C192.813 57.0524 194.68 56.7057 196.52 56.359L196.92 60.839C194.307 61.4257 191.667 61.9857 189 62.519C186.333 63.0524 183.933 63.5457 181.8 63.999L181 59.079ZM196.44 32.919H218.24V37.519H196.44V32.919ZM197.52 41.919H217.28V46.479H197.52V41.919ZM201.08 59.519H214.04V63.839H201.08V59.519ZM204.88 27.959H209.88V44.239H204.88V27.959ZM198.48 49.439H216.56V65.399H211.64V53.759H203.16V65.559H198.48V49.439ZM222.16 49.079H257.96V53.439H222.16V49.079ZM237.56 31.479H242.64V65.599H237.56V31.479ZM236.24 51.199L240.2 52.919C238.947 54.5724 237.453 56.1457 235.72 57.639C234.013 59.1324 232.173 60.4657 230.2 61.639C228.227 62.8124 226.227 63.7724 224.2 64.519C223.96 64.119 223.64 63.6657 223.24 63.159C222.867 62.679 222.48 62.2124 222.08 61.759C221.68 61.279 221.293 60.8657 220.92 60.519C222.413 60.0657 223.893 59.519 225.36 58.879C226.827 58.239 228.24 57.5057 229.6 56.679C230.96 55.8524 232.2 54.9857 233.32 54.079C234.467 53.1457 235.44 52.1857 236.24 51.199ZM243.52 50.919C244.347 51.879 245.347 52.8257 246.52 53.759C247.693 54.6657 248.973 55.5324 250.36 56.359C251.747 57.159 253.187 57.8924 254.68 58.559C256.173 59.2257 257.653 59.7724 259.12 60.199C258.773 60.519 258.387 60.919 257.96 61.399C257.56 61.879 257.173 62.3724 256.8 62.879C256.427 63.3857 256.12 63.8524 255.88 64.279C254.387 63.6924 252.893 62.9857 251.4 62.159C249.907 61.3324 248.453 60.4124 247.04 59.399C245.627 58.3857 244.307 57.3057 243.08 56.159C241.853 55.0124 240.76 53.8257 239.8 52.599L243.52 50.919ZM231.08 40.119V42.679H249V40.119H231.08ZM231.08 33.879V36.399H249V33.879H231.08ZM226.08 29.879H254.24V46.679H226.08V29.879Z" fill="#3690D0"/>
<path d="M78.1793 63.7408H7.40844V0.80897C7.40844 0.594417 7.32151 0.388653 7.16677 0.236942C7.01204 0.0852307 6.80217 0 6.58333 0H0.820722C0.602651 0.00113726 0.393906 0.0868695 0.240116 0.238458C0.0863253 0.390046 -3.08488e-06 0.595161 0 0.80897V70.1953C0 70.6385 0.368667 71 0.825111 71H78.1793C78.3974 70.9989 78.6061 70.9131 78.7599 70.7615C78.9137 70.61 79 70.4048 79 70.191V64.5455C79 64.3309 78.9131 64.1251 78.7583 63.9734C78.6036 63.8217 78.3937 63.7365 78.1749 63.7365L78.1793 63.7408ZM16.4583 55.6726H22.2209C22.439 55.6715 22.6478 55.5857 22.8016 55.4342C22.9553 55.2826 23.0417 55.0774 23.0417 54.8636V40.3409C23.0417 40.1264 22.9547 39.9206 22.8 39.7689C22.6453 39.6172 22.4354 39.5319 22.2166 39.5319H16.4583C16.2395 39.5319 16.0296 39.6172 15.8749 39.7689C15.7202 39.9206 15.6332 40.1264 15.6332 40.3409V54.8636C15.6332 55.3068 16.0063 55.6726 16.4583 55.6726ZM32.0959 55.6726H37.8542C38.073 55.6726 38.2829 55.5874 38.4376 55.4357C38.5923 55.284 38.6793 55.0782 38.6793 54.8636V22.5909C38.6793 22.3764 38.5923 22.1706 38.4376 22.0189C38.2829 21.8672 38.073 21.7819 37.8542 21.7819H32.0916C31.8735 21.7831 31.6647 21.8688 31.5109 22.0204C31.3572 22.172 31.2708 22.3771 31.2708 22.5909V54.8636C31.2708 55.3068 31.6395 55.6726 32.0959 55.6726ZM47.7292 55.6726H53.4918C53.7099 55.6715 53.9186 55.5857 54.0724 55.4342C54.2262 55.2826 54.3125 55.0774 54.3125 54.8636V30.4568C54.3113 30.243 54.2239 30.0384 54.0693 29.8876C53.9147 29.7368 53.7055 29.6522 53.4874 29.6522H47.7292C47.5111 29.6522 47.3019 29.7368 47.1473 29.8876C46.9927 30.0384 46.9052 30.243 46.9041 30.4568V54.8636C46.9041 55.3068 47.2771 55.6726 47.7292 55.6726ZM63.3668 55.6726H69.125C69.3438 55.6726 69.5537 55.5874 69.7084 55.4357C69.8632 55.284 69.9501 55.0782 69.9501 54.8636V14.5227C69.9501 14.4165 69.9288 14.3113 69.8873 14.2131C69.8458 14.115 69.7851 14.0258 69.7084 13.9507C69.6318 13.8756 69.5409 13.816 69.4408 13.7753C69.3407 13.7347 69.2334 13.7138 69.125 13.7138H63.3624C63.1443 13.7149 62.9356 13.8006 62.7818 13.9522C62.628 14.1038 62.5417 14.3089 62.5417 14.5227V54.8636C62.5417 55.3068 62.9103 55.6726 63.3668 55.6726Z" fill="#3690D0"/>
</svg>
