<svg width="198" height="38" viewBox="0 0 198 38" fill="none" xmlns="http://www.w3.org/2000/svg">
<path d="M1.48 16.839H36.68V19.799H1.48V16.839ZM4.32 6.95902H33.96V9.91902H4.32V6.95902ZM17.36 0.439022H20.52V37.199H17.36V0.439022ZM16.6 18.359L19.16 19.439C18.2267 21.039 17.12 22.599 15.84 24.119C14.56 25.639 13.1867 27.079 11.72 28.439C10.28 29.7724 8.77333 30.999 7.2 32.119C5.65333 33.2124 4.10667 34.159 2.56 34.959C2.37333 34.719 2.14667 34.439 1.88 34.119C1.64 33.799 1.38667 33.4924 1.12 33.199C0.853333 32.879 0.6 32.6257 0.36 32.439C1.88 31.7457 3.41333 30.8924 4.96 29.879C6.53333 28.8657 8.04 27.7457 9.48 26.519C10.92 25.2657 12.24 23.9457 13.44 22.559C14.6667 21.1724 15.72 19.7724 16.6 18.359ZM21.28 18.359C22.16 19.7724 23.2133 21.1724 24.44 22.559C25.6933 23.919 27.04 25.239 28.48 26.519C29.92 27.7724 31.4267 28.9057 33 29.919C34.5733 30.9057 36.12 31.7324 37.64 32.399C37.4267 32.6124 37.1733 32.8657 36.88 33.159C36.6133 33.4524 36.3467 33.759 36.08 34.079C35.84 34.399 35.6267 34.7057 35.44 34.999C33.92 34.199 32.3733 33.239 30.8 32.119C29.2267 30.999 27.7067 29.759 26.24 28.399C24.7733 27.039 23.4 25.599 22.12 24.079C20.8667 22.559 19.76 21.0124 18.8 19.439L21.28 18.359ZM48.12 11.999H69.88V14.759H48.12V11.999ZM41.24 19.359H76.72V22.199H41.24V19.359ZM51.76 21.319H55C54.7867 23.2657 54.44 25.0657 53.96 26.719C53.5067 28.3724 52.8133 29.8657 51.88 31.199C50.9733 32.5324 49.7333 33.7057 48.16 34.719C46.5867 35.7324 44.5867 36.5857 42.16 37.279C42.0533 37.0124 41.8933 36.719 41.68 36.399C41.4933 36.079 41.28 35.759 41.04 35.439C40.8267 35.1457 40.6 34.9057 40.36 34.719C42.6267 34.159 44.4667 33.4524 45.88 32.599C47.2933 31.7457 48.4 30.759 49.2 29.639C50 28.519 50.5867 27.2657 50.96 25.879C51.3333 24.4657 51.6 22.9457 51.76 21.319ZM61.88 21.079H64.92V32.359C64.92 32.9457 65.0267 33.319 65.24 33.479C65.48 33.639 66.0133 33.719 66.84 33.719C67.0533 33.719 67.4 33.719 67.88 33.719C68.3867 33.719 68.9467 33.719 69.56 33.719C70.1733 33.719 70.7467 33.719 71.28 33.719C71.84 33.719 72.24 33.719 72.48 33.719C73.0133 33.719 73.4 33.599 73.64 33.359C73.9067 33.119 74.0933 32.6257 74.2 31.879C74.3067 31.1057 74.3867 29.9457 74.44 28.399C74.6533 28.5857 74.92 28.759 75.24 28.919C75.56 29.0524 75.8933 29.1857 76.24 29.319C76.5867 29.4257 76.8933 29.519 77.16 29.599C77.0533 31.439 76.8533 32.8657 76.56 33.879C76.2667 34.8657 75.8267 35.5457 75.24 35.919C74.6533 36.2924 73.8133 36.479 72.72 36.479C72.5333 36.479 72.1467 36.479 71.56 36.479C70.9733 36.479 70.3333 36.479 69.64 36.479C68.9467 36.479 68.3067 36.479 67.72 36.479C67.1333 36.479 66.7467 36.479 66.56 36.479C65.3067 36.479 64.3467 36.359 63.68 36.119C63.0133 35.9057 62.5467 35.4924 62.28 34.879C62.0133 34.2924 61.88 33.4657 61.88 32.399V21.079ZM57.32 0.399022H60.48V6.75902H57.32V0.399022ZM42.2 4.67902H75.84V13.159H72.64V7.55902H45.24V13.159H42.2V4.67902ZM85.84 15.399H95.76V18.199H85.84V15.399ZM94.6 15.399H97.52C97.52 15.399 97.52 15.479 97.52 15.639C97.52 15.7724 97.5067 15.9457 97.48 16.159C97.48 16.3724 97.48 16.5457 97.48 16.679C97.4267 19.6657 97.3467 22.0924 97.24 23.959C97.16 25.799 97.04 27.199 96.88 28.159C96.7467 29.119 96.5333 29.7857 96.24 30.159C95.92 30.5324 95.5733 30.799 95.2 30.959C94.8533 31.119 94.4 31.239 93.84 31.319C93.3067 31.3724 92.6133 31.399 91.76 31.399C90.9067 31.3724 89.9867 31.3324 89 31.279C88.9733 30.8524 88.88 30.3857 88.72 29.879C88.5867 29.3457 88.4 28.879 88.16 28.479C89.0667 28.5857 89.92 28.6524 90.72 28.679C91.52 28.679 92.08 28.679 92.4 28.679C92.6933 28.679 92.9333 28.6524 93.12 28.599C93.3333 28.5457 93.52 28.4257 93.68 28.239C93.8667 27.999 94.0133 27.4657 94.12 26.639C94.2533 25.7857 94.3467 24.5057 94.4 22.799C94.48 21.0657 94.5467 18.759 94.6 15.879V15.399ZM105.84 2.39902L107.64 0.559022C108.493 0.959022 109.373 1.43902 110.28 1.99902C111.213 2.53236 112.08 3.07902 112.88 3.63902C113.68 4.17236 114.347 4.66569 114.88 5.11902L113 7.19902C112.493 6.71902 111.84 6.19902 111.04 5.63902C110.24 5.05236 109.387 4.47902 108.48 3.91902C107.573 3.35902 106.693 2.85235 105.84 2.39902ZM111.6 13.239L114.6 13.999C112.893 19.2257 110.56 23.759 107.6 27.599C104.64 31.439 101.12 34.5724 97.04 36.999C96.88 36.7857 96.6667 36.519 96.4 36.199C96.1333 35.9057 95.8533 35.599 95.56 35.279C95.2933 34.9857 95.0533 34.7324 94.84 34.519C98.8933 32.3857 102.32 29.519 105.12 25.919C107.92 22.2924 110.08 18.0657 111.6 13.239ZM86.08 7.19902H117.04V10.119H86.08V7.19902ZM84.12 7.19902H87.24V18.479C87.24 19.8924 87.1867 21.4257 87.08 23.079C86.9733 24.7324 86.7733 26.4124 86.48 28.119C86.1867 29.8257 85.76 31.4924 85.2 33.119C84.64 34.719 83.8933 36.1724 82.96 37.479C82.8 37.2657 82.56 37.0257 82.24 36.759C81.9467 36.4924 81.6267 36.239 81.28 35.999C80.96 35.759 80.68 35.5857 80.44 35.479C81.56 33.8257 82.3733 32.0124 82.88 30.039C83.4133 28.0657 83.7467 26.079 83.88 24.079C84.04 22.0524 84.12 20.1724 84.12 18.439V7.19902ZM100.76 0.439022H103.88C103.853 4.14569 103.987 7.66569 104.28 10.999C104.573 14.3324 104.987 17.399 105.52 20.199C106.053 22.9724 106.693 25.3857 107.44 27.439C108.213 29.4657 109.053 31.039 109.96 32.159C110.893 33.279 111.867 33.839 112.88 33.839C113.467 33.839 113.893 33.279 114.16 32.159C114.453 31.0124 114.653 29.1057 114.76 26.439C115.107 26.759 115.52 27.079 116 27.399C116.507 27.719 116.96 27.9457 117.36 28.079C117.173 30.3724 116.907 32.159 116.56 33.439C116.24 34.719 115.76 35.6124 115.12 36.119C114.507 36.6524 113.68 36.919 112.64 36.919C111.307 36.919 110.08 36.4657 108.96 35.559C107.84 34.6524 106.84 33.3724 105.96 31.719C105.107 30.0657 104.36 28.119 103.72 25.879C103.08 23.6124 102.533 21.119 102.08 18.399C101.653 15.679 101.333 12.8124 101.12 9.79902C100.907 6.75902 100.787 3.63902 100.76 0.439022ZM138.44 30.319L140.32 29.159C141.013 29.799 141.707 30.5057 142.4 31.279C143.12 32.0524 143.787 32.8124 144.4 33.559C145.04 34.3057 145.547 34.9724 145.92 35.559L143.96 36.919C143.587 36.3324 143.093 35.6524 142.48 34.879C141.893 34.1057 141.24 33.319 140.52 32.519C139.827 31.719 139.133 30.9857 138.44 30.319ZM131.48 2.71902H144.96V27.719H142.52V5.03902H133.84V27.839H131.48V2.71902ZM153.68 0.919023H156.16V33.719C156.16 34.5457 156.04 35.1724 155.8 35.599C155.587 36.0257 155.24 36.3457 154.76 36.559C154.227 36.7724 153.52 36.9057 152.64 36.959C151.76 37.039 150.613 37.0657 149.2 37.039C149.147 36.719 149.027 36.3057 148.84 35.799C148.68 35.319 148.507 34.8924 148.32 34.519C149.387 34.5457 150.333 34.559 151.16 34.559C152.013 34.559 152.587 34.5457 152.88 34.519C153.413 34.519 153.68 34.2524 153.68 33.719V0.919023ZM148.2 3.99902H150.6V27.959H148.2V3.99902ZM136.84 7.87902H139.16V22.079C139.16 23.4124 139.053 24.7724 138.84 26.159C138.653 27.5457 138.267 28.9057 137.68 30.239C137.12 31.5724 136.28 32.8257 135.16 33.999C134.067 35.1724 132.627 36.2124 130.84 37.119C130.76 36.959 130.627 36.759 130.44 36.519C130.253 36.279 130.067 36.039 129.88 35.799C129.693 35.559 129.52 35.3857 129.36 35.279C131.013 34.4257 132.333 33.4924 133.32 32.479C134.333 31.439 135.093 30.3457 135.6 29.199C136.107 28.0524 136.44 26.879 136.6 25.679C136.76 24.4524 136.84 23.239 136.84 22.039V7.87902ZM122.24 2.95902L124.04 0.839021C124.76 1.21235 125.533 1.65235 126.36 2.15902C127.187 2.63902 127.973 3.13235 128.72 3.63902C129.467 4.11902 130.08 4.55902 130.56 4.95902L128.72 7.39902C128.267 6.97236 127.667 6.49235 126.92 5.95902C126.2 5.42569 125.427 4.90569 124.6 4.39902C123.773 3.86569 122.987 3.38569 122.24 2.95902ZM120.52 13.759L122.24 11.599C122.987 11.9724 123.76 12.399 124.56 12.879C125.387 13.359 126.187 13.839 126.96 14.319C127.733 14.7724 128.373 15.199 128.88 15.599L127.08 17.999C126.627 17.599 126.013 17.1457 125.24 16.639C124.493 16.1324 123.707 15.6257 122.88 15.119C122.053 14.6124 121.267 14.159 120.52 13.759ZM121.32 35.079C121.88 34.039 122.467 32.8124 123.08 31.399C123.72 29.9857 124.36 28.4924 125 26.919C125.64 25.319 126.227 23.7857 126.76 22.319L129.16 23.879C128.68 25.2657 128.147 26.719 127.56 28.239C127 29.7324 126.413 31.2124 125.8 32.679C125.187 34.119 124.6 35.4524 124.04 36.679L121.32 35.079ZM163.8 2.99902L165.8 1.15902C166.493 1.71902 167.213 2.34569 167.96 3.03902C168.707 3.73236 169.413 4.41236 170.08 5.07902C170.747 5.74569 171.28 6.34569 171.68 6.87902L169.6 8.95902C169.2 8.39902 168.667 7.77236 168 7.07902C167.36 6.38569 166.667 5.67902 165.92 4.95902C165.2 4.23902 164.493 3.58569 163.8 2.99902ZM166.16 36.159L165.68 33.479L166.6 32.239L173.84 27.559C173.947 27.959 174.067 28.4124 174.2 28.919C174.36 29.399 174.52 29.799 174.68 30.119C172.947 31.2657 171.56 32.199 170.52 32.919C169.48 33.639 168.667 34.199 168.08 34.599C167.493 34.999 167.067 35.319 166.8 35.559C166.533 35.799 166.32 35.999 166.16 36.159ZM161 12.959H168.12V15.839H161V12.959ZM172.84 8.71902H197.36V11.599H172.84V8.71902ZM174.12 17.439H184.84V20.239H174.12V17.439ZM178.32 18.999H181.08V31.199L178.32 31.519V18.999ZM173.4 31.559C174.947 31.159 176.813 30.6657 179 30.079C181.213 29.4657 183.467 28.839 185.76 28.199L186.16 30.879C184.053 31.4924 181.96 32.1057 179.88 32.719C177.8 33.3324 175.92 33.8924 174.24 34.399L173.4 31.559ZM190.08 2.15902L192.16 0.879021C192.987 1.73235 193.827 2.67902 194.68 3.71902C195.533 4.75902 196.173 5.67902 196.6 6.47902L194.4 7.95902C194 7.15902 193.387 6.21235 192.56 5.11902C191.733 4.02569 190.907 3.03902 190.08 2.15902ZM185.84 0.599022H188.88C188.88 4.11902 188.96 7.49236 189.12 10.719C189.28 13.919 189.493 16.879 189.76 19.599C190.027 22.2924 190.347 24.6524 190.72 26.679C191.12 28.7057 191.573 30.279 192.08 31.399C192.613 32.519 193.2 33.1057 193.84 33.159C194.187 33.159 194.48 32.6257 194.72 31.559C194.96 30.4657 195.147 28.9457 195.28 26.999C195.467 27.1857 195.707 27.399 196 27.639C196.32 27.8524 196.627 28.0524 196.92 28.239C197.24 28.399 197.493 28.5324 197.68 28.639C197.467 30.319 197.213 31.719 196.92 32.839C196.653 33.9324 196.347 34.7857 196 35.399C195.653 36.0124 195.28 36.439 194.88 36.679C194.507 36.9457 194.133 37.079 193.76 37.079C192.56 37.0257 191.52 36.399 190.64 35.199C189.787 34.0257 189.067 32.359 188.48 30.199C187.893 28.0124 187.413 25.4257 187.04 22.439C186.693 19.4257 186.427 16.079 186.24 12.399C186.053 8.71902 185.92 4.78569 185.84 0.599022ZM166.16 36.159C166.053 35.919 165.907 35.6257 165.72 35.279C165.56 34.959 165.387 34.639 165.2 34.319C165.013 33.999 164.827 33.7457 164.64 33.559C165.013 33.319 165.427 32.919 165.88 32.359C166.333 31.799 166.56 31.0924 166.56 30.239V12.959H169.4V32.839C169.4 32.839 169.28 32.919 169.04 33.079C168.827 33.239 168.56 33.4524 168.24 33.719C167.92 33.959 167.6 34.2257 167.28 34.519C166.96 34.8124 166.693 35.0924 166.48 35.359C166.267 35.6524 166.16 35.919 166.16 36.159Z" fill="#696969"/>
</svg>
